<?xml version="1.0" encoding="utf-8"?>
<!-- Generator: Adobe Illustrator 23.0.2, SVG Export Plug-In . SVG Version: 6.00 Build 0)  -->
<svg version="1.1" id="Layer_1" xmlns="http://www.w3.org/2000/svg" xmlns:xlink="http://www.w3.org/1999/xlink" x="0px" y="0px"
	 viewBox="0 0 50 50" style="enable-background:new 0 0 50 50;" xml:space="preserve">
<style type="text/css">
	.st0{fill:#231F20;}
</style>
<path class="st0" d="M29.5,36.4c-8-1.2-17.3-2.2-26-2.5v1.5c4.6,0.5,13.5,1.5,23,3.1L29.5,36.4z M24,40.3
	c-6.4-1.2-13.5-2.2-20.4-2.8v1.6c4.2,0.6,10.6,1.7,17.7,3.2L24,40.3z M18.7,44.1C13.9,43,8.8,42,3.6,41.3v1.8
	c3.3,0.7,7.7,1.7,12.5,2.9L18.7,44.1z M3.6,47.4c2.2,0.6,4.7,1.4,7.5,2.2l2.7-1.9c-3.2-0.9-6.6-1.7-10.1-2.4L3.6,47.4L3.6,47.4z
	 M41.9,32.9v-8.2l-5.3-5.1l-4.9,5.1v7.1c-2-0.2-4.1-0.4-6.3-0.6c0.5-0.6,0.8-1.3,0.8-2.2c0-1.8-1.5-3.3-3.3-3.3
	c-0.9,0-1.7,0.4-2.3,1c-0.6-0.9-1.6-1.5-2.7-1.5c-0.2,0-0.3,0-0.5,0c-0.1-1.7-1.5-3.1-3.3-3.1c-1.7,0-3.1,1.3-3.3,2.9
	c-0.5-0.2-1-0.4-1.5-0.4c-1.8,0-3.3,1.5-3.3,3.3c0,0.3,0,0.6,0.1,0.8c-0.2,0.3-0.3,0.6-0.3,1c0,0.2,0,0.4,0.1,0.5
	c-0.8,0-1.6,0-2.4,0v1.4c4.4,0.2,17.5,1.1,30.7,2.9L15,50h4.6l17-15.2h2.1L24.5,49.7c-0.1,0.1-0.1,0.2-0.1,0.3h4.4l12.3-15.2h2.1
	l-9.6,15c0,0.1-0.1,0.2-0.1,0.2H38l7.5-15.2h1.7v-1.1C45.7,33.4,43.9,33.2,41.9,32.9z M42.7,50h4.6V36l-4.6,13.8
	C42.7,49.9,42.7,50,42.7,50z"/>
</svg>
