<?xml version="1.0" encoding="utf-8"?>
<!-- Generator: Adobe Illustrator 24.0.3, SVG Export Plug-In . SVG Version: 6.00 Build 0)  -->
<svg version="1.1" id="Layer_1" xmlns="http://www.w3.org/2000/svg" xmlns:xlink="http://www.w3.org/1999/xlink" x="0px" y="0px"
	 viewBox="0 0 512 512" style="enable-background:new 0 0 512 512;" xml:space="preserve">
<path d="M30,160.1C12.1,170.4,0,189.8,0,212v204c0,33.1,26.9,60,60,60h332c22.2,0,41.6-12.1,51.9-30L60,446c-16.6,0-30-13.4-30-30
	V212L30,160.1z M433.6,149.5H138.4c-12.2,0-20.4,8.2-20.4,20.4v168.3l65.3-50.8l76.4,58.5l107.8-124.7L454,322.6V169.9
	C454,157.7,445.8,149.5,433.6,149.5z M183.3,250.9c-21.1,0-38.2-17.1-38.2-38.2s17.1-38.2,38.2-38.2s38.2,17.1,38.2,38.2
	S204.4,250.9,183.3,250.9z M452,98H120c-33.1,0-60,26.9-60,60v204c0,33.1,26.9,60,60,60h332c33.1,0,60-26.9,60-60V158
	C512,124.9,485.1,98,452,98z M482,362c0,11.1-6,20.8-15,26l0,0l0,0c-4.4,2.5-9.5,4-15,4H120c-16.6,0-30-13.4-30-30V158
	c0-16.6,13.4-30,30-30h332c16.6,0,30,13.4,30,30V362z"/>
</svg>
