<?xml version="1.0" encoding="utf-8"?>
<!-- Generator: Adobe Illustrator 23.0.4, SVG Export Plug-In . SVG Version: 6.00 Build 0)  -->
<svg version="1.1" id="Layer_1" 
	xmlns="http://www.w3.org/2000/svg" 
	xmlns:xlink="http://www.w3.org/1999/xlink" x="0px" y="0px" viewBox="0 0 512 512" style="enable-background:new 0 0 512 512;" xml:space="preserve">
	<path id="clear-all-icon" class="st0" d="M256,0C114.8-0.2,0.2,114.2,0,255.4c-0.1,67.5,26.6,132.4,74.1,180.3
	c0.2,0.2,0.4,0.5,0.4,0.9c0.2,0,0.4,0.2,0.4,0.4c0,0,0,0,0,0c100,100,262.1,100,362,0c100-100,100-262.1,0-362C389,27,323.9,0,256,0
	L256,0z M35.7,255.8C36,134.2,134.9,35.9,256.5,36.2c51.9,0.1,102,18.6,141.6,52L88.2,397.8C54.4,358.2,35.7,307.9,35.7,255.8
	L35.7,255.8L35.7,255.8z M256,475.8c-52.3,0-102.8-18.6-142.6-52.5l309.9-309.5c78.7,92.3,67.6,230.9-24.6,309.5
	C358.8,457.3,308.3,475.9,256,475.8L256,475.8L256,475.8z"/>
</svg>
