<?xml version="1.0" encoding="utf-8"?>
<!-- Generator: Adobe Illustrator 23.0.2, SVG Export Plug-In . SVG Version: 6.00 Build 0)  -->
<svg version="1.1" id="Layer_1" xmlns="http://www.w3.org/2000/svg" xmlns:xlink="http://www.w3.org/1999/xlink" x="0px" y="0px"
	 viewBox="0 0 50 50" style="enable-background:new 0 0 50 50;" xml:space="preserve">
<path d="M6,30.4v1.3c0,5.6,3.1,10.4,7.7,12.9c-0.9,0.9-1.5,2.1-1.5,3.8c0,0.9,0.7,1.6,1.6,1.6c0.9,0,1.6-0.7,1.6-1.6
	c0-2,1.8-2.2,2.3-2.3c0.1,0,0.2,0,0.3,0c0.8,0.2,1.7,0.2,2.6,0.2h12.6c0.7,0,1.4-0.1,2.1-0.2h0.1c0.6,0,2.3,0.3,2.3,2.3
	c0,0.9,0.7,1.6,1.6,1.6s1.6-0.7,1.6-1.6c0-1.8-0.7-3.1-1.7-4c2.9-2,4.8-5.3,4.8-9v-2.5C42.7,33,41.1,33,39.6,33
	C24.7,33,9.2,30.9,6,30.4z M43.7,28.9C41.9,29,40,29,38.2,29v-8.9c0-2.5-2-4.6-4.4-4.6s-4.4,2.1-4.4,4.6h2.1c0-1.3,1.1-2.4,2.4-2.4
	c1.3,0,2.4,1.1,2.4,2.4v8.8C21,28.6,5.8,26.3,5.6,26.3c-0.7-0.1-1.3,0.4-1.4,1.1c-0.1,0.7,0.4,1.3,1.1,1.4c0.2,0,17.7,2.7,34,2.7
	c1.5,0,3,0,4.5-0.1c0.7,0,1.3-0.6,1.2-1.3C45,29.4,44.4,28.9,43.7,28.9z M34,24.8c0.7,0,1.2,0.5,1.2,1.2s-0.5,1.2-1.2,1.2
	s-1.2-0.5-1.2-1.2S33.3,24.8,34,24.8z M40.4,24.7c0.7,0,1.2,0.5,1.2,1.2s-0.5,1.2-1.2,1.2s-1.2-0.5-1.2-1.2S39.7,24.7,40.4,24.7z"/>
</svg>
