<?xml version="1.0" encoding="utf-8"?>
<!-- Generator: Adobe Illustrator 23.0.4, SVG Export Plug-In . SVG Version: 6.00 Build 0)  -->
<svg version="1.1" id="Layer_1" xmlns="http://www.w3.org/2000/svg" xmlns:xlink="http://www.w3.org/1999/xlink" x="0px" y="0px"
	 viewBox="0 0 512 512" style="enable-background:new 0 0 512 512;" xml:space="preserve">
<path d="M22.3,266.2c0,0-22.3,130.5,96.6,178.1c-11.3,11.3-18.8,26.3-18.8,47.7c0,11.3,8.8,20.1,20.1,20.1s20.1-8.8,20.1-20.1
	c0-25.1,22.6-27.6,28.8-28.8c1.3,0,25.1,2.5,36.4,2.5h158c8.8,0,27.6-2.5,27.6-2.5c7.5,0,28.8,3.8,28.8,28.8
	c0,11.3,8.8,20.1,20.1,20.1s20.1-8.8,20.1-20.1c0-22.6-8.8-38.9-21.3-50.2c72.9-52.7,60.2-144.2,60.2-144.2
	C482.6,298.8,240.2,304.9,22.3,266.2z M495.2,247.4c-22.6,1.3-46.4,1.3-69,1.3V137c0-31.4-25.1-57.7-55.2-57.7
	c-30.1,0-55.2,26.3-55.2,57.7h26.3c0-16.3,13.8-30.1,30.1-30.1c16.3,0,30.1,13.8,30.1,30.1v110.4c-191.9-3.8-382.5-32.6-385-32.6
	c-8.8-1.3-16.3,5-17.6,13.8c-1.3,8.8,5,16.3,13.8,17.6c2.5,0,222,33.9,426.4,33.9c18.8,0,37.6,0,56.4-1.3c8.8,0,16.3-7.5,15.1-16.3
	C511.5,253.6,503.9,247.4,495.2,247.4z M373.5,195.9c8.8,0,15.1,6.3,15.1,15.1c0,8.8-6.3,15.1-15.1,15.1c-8.8,0-15.1-6.3-15.1-15.1
	C358.5,202.2,364.7,195.9,373.5,195.9z M453.8,194.7c8.8,0,15.1,6.3,15.1,15.1s-6.3,15.1-15.1,15.1s-15.1-6.3-15.1-15.1
	S445,194.7,453.8,194.7z"/>
</svg>
