<?xml version="1.0" encoding="utf-8"?>
<!-- Generator: Adobe Illustrator 23.0.4, SVG Export Plug-In . SVG Version: 6.00 Build 0)  -->
<svg version="1.1" id="Layer_1" xmlns="http://www.w3.org/2000/svg" xmlns:xlink="http://www.w3.org/1999/xlink" x="0px" y="0px"
	 viewBox="0 0 512 512" style="enable-background:new 0 0 512 512;" xml:space="preserve">
<path d="M491.7,146.8c-12.3,0-21.3,10.1-21.3,21.3v38.1H180.3c4.5-4.5,6.7-10.1,6.7-16.8c0-14.6-11.2-25.8-25.8-25.8H86.2
	c-14.6,0-25.8,11.2-25.8,25.8c0,6.7,2.2,12.3,6.7,16.8H42.5v-38.1c0-12.3-10.1-21.3-21.3-21.3C8.9,146.8,0,156.9,0,168.1v322.6
	C0,501.9,10,512,21.2,512c12.3,0,21.3-10.1,21.3-21.3v-54.9H336v54.9c0,12.3,10.1,21.3,21.3,21.3c12.3,0,21.3-10.1,21.3-21.3v-54.9
	h90.7v54.9c0,12.3,10.1,21.3,21.3,21.3c11.2,0,21.3-10.1,21.3-21.3V168.1C513,155.8,502.9,146.8,491.7,146.8z M470.4,302.5h-90.7
	v-40.3h90.7V302.5z M179.2,380.9c4.5-4.5,6.7-10.1,6.7-16.8c0-14.6-11.2-25.8-25.8-25.8H86.2c-14.6,0-25.8,11.2-25.8,25.8
	c0,6.7,2.2,12.3,6.7,16.8H42.5V261.1H336v118.7L179.2,380.9L179.2,380.9z M379.7,380.9v-37h90.7v37H379.7z"/>
</svg>
