<?xml version="1.0" encoding="utf-8"?>
<!-- Generator: Adobe Illustrator 23.0.2, SVG Export Plug-In . SVG Version: 6.00 Build 0)  -->
<svg version="1.1" id="Layer_1" xmlns="http://www.w3.org/2000/svg" xmlns:xlink="http://www.w3.org/1999/xlink" x="0px" y="0px"
	 viewBox="0 0 50 50" style="enable-background:new 0 0 50 50;" xml:space="preserve">
<style type="text/css">
	.st0{fill:#231F20;}
</style>
<path class="st0" d="M34.9,10h-2.1V8.7c0-2-1.7-3.7-3.7-3.7h-4.9c-2,0-3.7,1.7-3.7,3.7V10h-2.1v20.5h16.4L34.9,10L34.9,10z M30.2,10
	h-7V8.7c0-0.6,0.5-1.1,1.1-1.1h4.9c0.6,0,1.1,0.5,1.1,1.1V10H30.2z M17.6,30.4V10c-2.1,0.1-3.9,1.8-3.9,4v12.4
	C13.7,28.6,15.4,30.3,17.6,30.4z M39.7,26.4V14c0-2.2-1.7-3.9-3.9-4v20.4C38,30.3,39.7,28.6,39.7,26.4z M40.3,35
	c-0.9,0-1.6,0.8-1.6,1.8v5.5H11.3V31.8c0-1-0.7-1.8-1.6-1.8C8.8,30,8,30.8,8,31.8V50h3.3v-4.7h27.4V50H42V36.8
	C42,35.8,41.2,35,40.3,35z M20.4,35.7v5h16.8v-1c0-2.2-1.8-4-4-4H20.4z M14.8,40.2c1.8,0.9,3.6,0.7,4.2-0.6c0.5-1.3-0.4-3.1-2.2-4.1
	c-1.8-0.9-3.6-0.7-4.2,0.6C12.1,37.4,13.1,39.2,14.8,40.2z"/>
</svg>
