<?xml version="1.0" encoding="utf-8"?>
<!-- Generator: Adobe Illustrator 23.0.4, SVG Export Plug-In . SVG Version: 6.00 Build 0)  -->
<svg version="1.1" id="Layer_1" xmlns="http://www.w3.org/2000/svg" xmlns:xlink="http://www.w3.org/1999/xlink" x="0px" y="0px"
	 viewBox="0 0 512 512" style="enable-background:new 0 0 512 512;" xml:space="preserve">
<path d="M512,312.9V512h-49.2v-70.6H49.2V512H0V215.2c0-14.7,11-26.6,24.6-26.6c13.6,0,24.6,11.9,24.6,26.6v181h413.7v-83.2
	c0-14.7,11-26.6,24.6-26.6C501,286.3,512,298.2,512,312.9z M439.9,357.5c0-33.7-27.3-61-61-61H186.7v75.6h253.1V357.5z M102.6,363.9
	c26.4,14.3,54.5,10,62.8-9.6c8.3-19.6-6.5-47.1-32.9-61.3c-26.4-14.3-54.5-10-62.8,9.6C61.4,322.1,76.2,349.6,102.6,363.9z"/>
</svg>
