<?xml version="1.0" encoding="utf-8"?>
<!-- Generator: Adobe Illustrator 23.0.4, SVG Export Plug-In . SVG Version: 6.00 Build 0)  -->
<svg version="1.1" id="Layer_1" xmlns="http://www.w3.org/2000/svg" xmlns:xlink="http://www.w3.org/1999/xlink" x="0px" y="0px"
	 viewBox="0 0 512 512" style="enable-background:new 0 0 512 512;" xml:space="preserve">
<path d="M300.8,202.9h24.5c21,0,39.7,9.3,46.7,32.7l25.7,77c3.5,0,9.3-1.2,14-1.2c54.8,0,100.3,44.3,100.3,100.3
	S467.5,512,411.5,512s-101.5-44.3-101.5-100.3c0-40.8,24.5-74.6,53.6-88.6l-3.5-15.2l-87.5,102.6c-10.5,12.8-21,17.5-35,17.5h-37.3
	c-8.2,47.8-47.8,84-99.1,84c-56,0-101.5-44.3-101.5-100.3s44.3-101.5,101.5-101.5c11.7,0,22.2,1.2,31.5,4.7l28-52.5l-5.8-16.3h-17.5
	c-8.2,0-15.2-7-15.2-15.2c0-8.2,7-15.2,15.2-15.2h73.5c8.2,0,15.2,7,15.2,15.2c0,8.2-7,15.2-15.2,15.2h-22.2l2.3,8.2h151.6l-2.3-7
	c-2.3-7-8.2-9.3-15.2-9.3h-24.5c-9.3,0-17.5-7-17.5-17.5C284.4,209.9,291.4,202.9,300.8,202.9 M103.6,481.7
	c32.7,0,60.6-22.2,67.6-53.6h-67.6c-9.3,0-16.3-7-16.3-16.3c0-2.3,1.2-5.8,2.3-9.3l31.5-58.3c-5.8-1.2-12.8-2.3-17.5-2.3
	c-38.5,0-70,31.5-70,70S65.2,481.7,103.6,481.7 M127,394.2h44.3c-3.5-16.3-14-29.2-24.5-38.5L127,394.2z M208.6,394.2L176,298.6
	l-16.3,29.2c24.5,17.5,37.3,38.5,42,66.5H208.6z M242.4,394.2c3.5,0,98-108.5,98-108.5H204L242.4,394.2z M375.4,352.2
	c-19.8,12.8-32.7,36.2-32.7,59.5c0,38.5,31.5,70,70,70s70-31.5,70-70s-31.5-70-70-70h-5.8l21,60.6c3.2,9.3,3,19.3-9.5,23.6
	c-10.6,3.6-19.9-2.2-23.1-11.9L375.4,352.2z"/>
</svg>
