<?xml version="1.0" encoding="utf-8"?>
<!-- Generator: Adobe Illustrator 23.0.2, SVG Export Plug-In . SVG Version: 6.00 Build 0)  -->
<svg version="1.1" id="Layer_1" xmlns="http://www.w3.org/2000/svg" xmlns:xlink="http://www.w3.org/1999/xlink" x="0px" y="0px"
	 viewBox="0 0 50 50" style="enable-background:new 0 0 50 50;" xml:space="preserve">
<path d="M6.6,39c0-0.2,0.3-0.2,0.4,0c0.4,1.7,1.7,4.3,5.6,4.3h0.2c0,0,4.8,0.1,5.7-4.3c0-0.2,0.3-0.2,0.4,0c0.4,1.7,1.7,4.3,5.6,4.3
	h0.2c0,0,4.8,0.1,5.7-4.3c0-0.2,0.3-0.2,0.4,0c0.4,1.7,1.7,4.3,5.6,4.3h0.1c0,0,0.9,0,2.1-0.4l6.9-9c0.6-0.9,0-2.1-1.1-2.1l-14,0.2
	c0-0.2,0-0.3-0.1-0.5c-0.2-0.6-2.4-5.8-2.9-6.9c-0.8-1.6-2-2.1-2.3-2.2l-0.3-0.1h-9.5v10.1L3.9,32.5c-0.9,0-1.6,0.8-1.6,1.7l-0.6,9
	C3.2,43,6,42.2,6.6,39z M18.4,25.4H24c0.1,0.1,0.3,0.3,0.5,0.6c0.4,0.8,1.8,4.2,2.6,6.1l-8.6,0.2v-6.9H18.4z M48,47
	c-3.9,0-5.2-2.6-5.6-4.3c-0.1-0.2-0.3-0.2-0.4,0C41.1,47,36.3,47,36.3,47h-0.1c-3.9,0-5.2-2.6-5.6-4.3c-0.1-0.2-0.3-0.2-0.4,0
	C29.3,47,24.5,47,24.5,47h-0.2c-3.9,0-5.2-2.6-5.6-4.3c-0.1-0.2-0.3-0.2-0.4,0C17.4,47,12.6,47,12.6,47h-0.2c-3.9,0-5.2-2.6-5.6-4.3
	c0-0.2-0.3-0.2-0.4,0C5.8,47.1,1,47,1,47v3c0,0,3.8,0,5.2-3c0.3-0.6,1-0.6,1.3,0c0.7,1.5,2.2,3,5.1,3h0.2c0,0,3.8,0,5.2-3
	c0.3-0.6,1-0.6,1.3,0c0.7,1.5,2.2,3,5.1,3h0.2c0,0,3.8,0,5.2-3c0.3-0.6,1-0.6,1.3,0c0.7,1.5,2.2,3,5.1,3h0.1c0,0,3.8,0,5.2-3
	c0.3-0.6,1-0.6,1.3,0c0.7,1.5,2.2,3,5.1,3H48L48,47L48,47z"/>
</svg>
