<?xml version="1.0" encoding="utf-8"?>
<!-- Generator: Adobe Illustrator 23.0.4, SVG Export Plug-In . SVG Version: 6.00 Build 0)  -->
<svg version="1.1" id="Layer_1" xmlns="http://www.w3.org/2000/svg" xmlns:xlink="http://www.w3.org/1999/xlink" x="0px" y="0px"
	 viewBox="0 0 512 512" style="enable-background:new 0 0 512 512;" xml:space="preserve">
<path d="M60.5,392.2c0-2.2,3.3-2.2,4.4,0c4.4,18.5,18.5,46.8,61,46.8c0,0,54.5,1.1,64.3-46.8c0-2.2,3.3-2.2,4.4,0
	c4.4,18.5,18.5,46.8,61,46.8c0,0,54.5,1.1,64.3-46.8c0-2.2,3.3-2.2,4.4,0c4.4,18.5,18.5,46.8,61,46.8c0,0,10.9,0,24-4.4l75.2-98
	c6.5-9.8,0-22.9-12-22.9l-152.5,2.2c0-2.2-27.2-68.6-32.7-80.6c-8.7-17.4-21.8-22.9-25.1-24l-3.3-1.1H155.3v110l-124.2,1.1
	c-9.8,0-17.4,8.7-17.4,18.5l-6.5,98C23.5,435.7,54,427,60.5,392.2z M189,244h61c1.1,1.1,3.3,3.3,5.4,6.5
	c4.4,8.7,19.6,45.8,28.3,66.5l-93.7,2.2V244H189z M512,479.3c-42.5,0-57.1-28.3-61.5-46.8c-1.1-2.2-3.3-2.2-4.4,0
	c-9.8,46.8-62.1,46.8-62.1,46.8S345,482,322,432.5c-1.1-2.2-3.3-2.2-4.4,0c-9.8,46.8-62.1,46.8-62.1,46.8s-36.1,5.8-63.2-46.8
	c-1.1-2.2-3.3-2.2-4.4,0c-9.8,46.8-62.1,46.8-62.1,46.8s-49.6,2.7-63.2-46.8c0-2.2-3.3-2.2-4.4,0c-6.5,47.9-58.8,46.8-58.8,46.8V512
	c0,0,41.4,0,56.6-32.7c3.3-6.5,10.9-6.5,14.2,0c7.6,16.3,24,32.7,55.6,32.7c0,0,43.6,0,58.8-32.7c3.3-6.5,10.9-6.5,14.2,0
	c7.6,16.3,24,32.7,55.6,32.7c0,0,43.6,0,58.8-32.7c3.3-6.5,10.9-6.5,14.2,0c7.6,16.3,24,32.7,55.6,32.7c0,0,42.5,0,57.7-32.7
	c3.3-6.5,10.9-6.5,14.2,0c7.6,16.3,25.6,32.7,57.1,32.7V479.3L512,479.3z"/>
</svg>
