<?xml version="1.0" encoding="utf-8"?>
<!-- Generator: Adobe Illustrator 23.0.4, SVG Export Plug-In . SVG Version: 6.00 Build 0)  -->
<svg version="1.1" id="Layer_1" xmlns="http://www.w3.org/2000/svg" xmlns:xlink="http://www.w3.org/1999/xlink" x="0px" y="0px"
	 viewBox="0 0 512 512" style="enable-background:new 0 0 512 512;" xml:space="preserve">
<path d="M497.8,169.5c-12.2-0.8-25.8-2.2-40.9-4.6c-18.6-2.9-35.2-8.2-49.9-14.2c-16.2,11.6-29.7,14.8-38.6,15.6
	c26.4-12.9,37.3-27.5,46.4-50c11-27.2-4.6-54.5-4.6-54.5c-23.2-12.2-48.1-1.2-63.7,9.8c-16.3,11.5-26.1,29.9-31.7,44.5
	c0.1-9,1.6-21.7,7.7-35.5c-2.8-4-5.9-8-9.5-11.9c-12.4-13.3-41.5-14.8-64.7-10.2c-6.6-3.8-14.7-8.4-23.8-13.6
	c-24.8-14-59.8-45-59.8-45s1.7,34.1,49.2,79.5c-5.2,12.1-1.9,25.6-1.9,25.6s-32.1,13.3-46,27.2c-13.9,13.9-26.6,32.7-27.8,39.9
	c-1.2,7.3,2.4,28.4-12.7,44.8c-15.1,16.3-58.1,70.2-82.9,82.2c-24.8,12.1-30.2,24.2-27.8,32.1c2.4,7.9,4.8,33.9,13.9,38.1
	c9.1,4.2,27.2,27.8,42.9,29.6c15.7,1.8,33.9-4.8,47.8-6.7c13.9-1.8,16.9-4.8,29.6,0.6c12.7,5.4,36.9,13.3,61.1,13.3
	c24.2,0,64.7,4.8,84.1-13.3c0,0,78.9,51.6,100.3,78.6c14,17.7,21.9,32.2,33,40.5c0,0-2-132.9,13.7-188.9S497.8,169.5,497.8,169.5z
	 M199.1,211.7c-7.7,0-14-6.3-14-14c0-7.7,6.3-14,14-14c7.7,0,14,6.3,14,14C213.1,205.4,206.9,211.7,199.1,211.7z"/>
</svg>
