<?xml version="1.0" encoding="utf-8"?>
<!-- Generator: Adobe Illustrator 23.0.2, SVG Export Plug-In . SVG Version: 6.00 Build 0)  -->
<svg version="1.1" id="Layer_1" xmlns="http://www.w3.org/2000/svg" xmlns:xlink="http://www.w3.org/1999/xlink" x="0px" y="0px"
	 viewBox="0 0 50 50" style="enable-background:new 0 0 50 50;" xml:space="preserve">
<path d="M48.8,43.5v0.8c0,0.7-0.6,1.3-1.4,1.3h-3.1C44,48.5,42.1,50,39.1,50c-2.9,0-4.8-1.5-5.1-4.4H16.5c-0.3,2.8-2.2,4.4-5.2,4.4
	c-2.9,0-4.7-1.5-5.1-4.4H2.6c-0.8,0-1.4-0.6-1.4-1.3v-0.8c0-0.7,0.6-1.4,1.4-1.4c1.7-13.7,13.2-16.5,21.7-16.5
	c7.2,0,11.5,3.1,12.7,7.6c6.3,0.6,9.9,2.6,10.4,8.9C48.2,42.2,48.8,42.8,48.8,43.5 M9.3,44.7c0,1.4,0.8,2.1,2.1,2.1s2.1-0.7,2.1-2.1
	c0-1.3-0.8-2.1-2.1-2.1C10.1,42.6,9.3,43.4,9.3,44.7 M13,31.3c-0.2,0.3-0.3,0.6-0.3,0.9c0,0.6,0.5,1.1,1.1,1.1h8.6
	c0.4,0,0.7-0.3,0.7-0.7v-4.1c0-0.4-0.3-0.7-0.7-0.7C18.9,27.9,14.6,28.9,13,31.3 M25.2,32.7c0,0.4,0.3,0.7,0.7,0.7h7.3
	c0.4,0,0.7-0.3,0.7-0.7c0-0.2,0-0.4-0.2-0.6c-1.4-3.2-4.6-4.3-7.8-4.3c-0.4,0-0.7,0.3-0.7,0.7V32.7z M37.1,44.7
	c0,1.4,0.8,2.1,2.1,2.1s2.1-0.7,2.1-2.1c0-1.3-0.8-2.1-2.1-2.1C37.9,42.6,37.1,43.4,37.1,44.7"/>
</svg>
