<?xml version="1.0" encoding="utf-8"?>
<!-- Generator: Adobe Illustrator 23.0.4, SVG Export Plug-In . SVG Version: 6.00 Build 0)  -->
<svg version="1.1" id="Layer_1" xmlns="http://www.w3.org/2000/svg" xmlns:xlink="http://www.w3.org/1999/xlink" x="0px" y="0px"
	 viewBox="0 0 512 512" style="enable-background:new 0 0 512 512;" xml:space="preserve">
<path d="M512,442.1v8.6c0,7.5-6.5,14-15.1,14h-33.3c-3.2,31.2-23.7,47.3-55.9,47.3c-31.2,0-51.6-16.1-54.9-47.3H164.6
	c-3.2,30.1-23.7,47.3-55.9,47.3c-31.2,0-50.6-16.1-54.9-47.3H15.1c-8.6,0-15.1-6.5-15.1-14v-8.6c0-7.5,6.5-15.1,15.1-15.1
	c18.3-147.4,142-177.5,233.4-177.5c77.4,0,123.7,33.3,136.6,81.7c67.8,6.5,106.5,28,111.9,95.7C505.5,428.1,512,434.6,512,442.1
	 M87.1,455c0,15.1,8.6,22.6,22.6,22.6s22.6-7.5,22.6-22.6c0-14-8.6-22.6-22.6-22.6C95.7,432.4,87.1,441,87.1,455 M126.9,310.9
	c-2.2,3.2-3.2,6.5-3.2,9.7c0,6.5,5.4,11.8,11.8,11.8H228c4.3,0,7.5-3.2,7.5-7.5v-44.1c0-4.3-3.2-7.5-7.5-7.5
	C190.4,274.3,144.1,285,126.9,310.9 M258.2,325.9c0,4.3,3.2,7.5,7.5,7.5h78.5c4.3,0,7.5-3.2,7.5-7.5c0-2.2,0-4.3-2.2-6.5
	c-15.1-34.4-49.5-46.3-83.9-46.3c-4.3,0-7.5,3.2-7.5,7.5V325.9z M386.2,455c0,15.1,8.6,22.6,22.6,22.6s22.6-7.5,22.6-22.6
	c0-14-8.6-22.6-22.6-22.6C394.8,432.4,386.2,441,386.2,455"/>
</svg>
