<?xml version="1.0" encoding="utf-8"?>
<!-- Generator: Adobe Illustrator 23.0.2, SVG Export Plug-In . SVG Version: 6.00 Build 0)  -->
<svg version="1.1" id="Layer_1" xmlns="http://www.w3.org/2000/svg" xmlns:xlink="http://www.w3.org/1999/xlink" x="0px" y="0px"
	 viewBox="0 0 50 50" style="enable-background:new 0 0 50 50;" xml:space="preserve">
<style type="text/css">
	.st0{fill:#231F20;}
</style>
<path class="st0" d="M36.6,26.6c-0.7,0.3-1.3,0.7-1.7,1.1c-4.6-5.1-5.3-17.2-5.3-19.8c0.7,0.3,1.6,0.6,2.6,1.1
	c0.5,1.6,3.6,9.9,14.6,11.3l1.1,0.1l0.3-1.1c0.1-0.2,1.5-4.7-1.2-8.4c-2.3-3.2-7-4.6-13.7-4L32.7,7c-1.3-0.6-2.4-1-3.1-1.3V5.6
	l-5.1-0.9l0,0c-0.2,0-0.5,0.1-0.7,0.2c-9,6-12,20.8-12.8,25.9c-0.9-0.3-2-0.6-2.8-0.5c-1.6,0.1-7,2.2-6.9,8.7
	c0.1,6.6,4.9,10.6,10.4,11c5.4,0.4,11.8-4.7,11.5-11.3s-6-7.9-7.8-8c-0.7,0-1.2,0-1.7,0.2c0.8-4.9,3.6-17.2,10.5-22.8h2.7
	c0.1,3,0.8,14.8,5.5,20.8c-0.8,0.1-1.8,0.4-2.4,0.7c-1.3,0.8-5.3,5.1-2.3,10.8s9.1,7.2,14.1,5.1c5-2.1,8.5-9.4,5.3-15.2
	C44,24.5,38.3,25.9,36.6,26.6z M36,10.8c3.2,1.7,6.6,3.8,8.7,6.3C40,15.8,37.4,12.9,36,10.8z M44.9,12.5c0.7,1,1,2.1,1.1,3.1
	c-2.1-2.3-5.1-4.4-8-6C41.3,9.9,43.6,10.8,44.9,12.5z"/>
</svg>
