<?xml version="1.0" encoding="utf-8"?>
<!-- Generator: Adobe Illustrator 23.0.4, SVG Export Plug-In . SVG Version: 6.00 Build 0)  -->
<svg version="1.1" id="Layer_1" xmlns="http://www.w3.org/2000/svg" xmlns:xlink="http://www.w3.org/1999/xlink" x="0px" y="0px"
	 viewBox="0 0 512 512" style="enable-background:new 0 0 512 512;" xml:space="preserve">
<path d="M419.7,442.8h-26.4V203.3c0-52.7-30.8-106.6-75.8-131.8v-9.9C317.5,27.5,290.1,0,256,0s-61.5,27.5-61.5,61.5v8.8
	c-45,26.4-75.8,79.1-75.8,131.8v239.5H92.3c-18.7,0-34.1,15.4-34.1,34.1v2.2c0,18.7,15.4,34.1,34.1,34.1h327.4
	c18.7,0,34.1-15.4,34.1-34.1v-2.2C453.8,458.2,438.4,442.8,419.7,442.8z M167,203.3c0-39.6,26.4-80.2,61.5-95.6l15.4-6.6V61.5
	c0-6.6,5.5-13.2,13.2-13.2c6.6,0,13.2,5.5,13.2,13.2v39.6l15.4,6.6c35.2,14.3,61.5,56,61.5,95.6v238.4H167V203.3z"/>
</svg>
