<?xml version="1.0" encoding="utf-8"?>
<!-- Generator: Adobe Illustrator 23.0.2, SVG Export Plug-In . SVG Version: 6.00 Build 0)  -->
<svg version="1.1" id="Layer_1" xmlns="http://www.w3.org/2000/svg" xmlns:xlink="http://www.w3.org/1999/xlink" x="0px" y="0px"
	 viewBox="0 0 50 50" style="enable-background:new 0 0 50 50;" xml:space="preserve">
<path d="M39.9,43.5h-2.4V21.7c0-4.8-2.8-9.7-6.9-12V8.8c0-3.1-2.5-5.6-5.6-5.6s-5.6,2.5-5.6,5.6v0.8c-4.1,2.4-6.9,7.2-6.9,12v21.8
	h-2.4c-1.7,0-3.1,1.4-3.1,3.1v0.2c0,1.7,1.4,3.1,3.1,3.1h29.8c1.7,0,3.1-1.4,3.1-3.1v-0.2C43,44.9,41.6,43.5,39.9,43.5z M16.9,21.7
	c0-3.6,2.4-7.3,5.6-8.7l1.4-0.6V8.8c0-0.6,0.5-1.2,1.2-1.2c0.6,0,1.2,0.5,1.2,1.2v3.6l1.4,0.6c3.2,1.3,5.6,5.1,5.6,8.7v21.7H16.9
	V21.7z"/>
</svg>
