<?xml version="1.0" encoding="utf-8"?>
<!-- Generator: Adobe Illustrator 23.0.2, SVG Export Plug-In . SVG Version: 6.00 Build 0)  -->
<svg version="1.1" id="Layer_1" xmlns="http://www.w3.org/2000/svg" xmlns:xlink="http://www.w3.org/1999/xlink" x="0px" y="0px"
	 viewBox="0 0 50 50" style="enable-background:new 0 0 50 50;" xml:space="preserve">
<path d="M44.7,30.8h-3.5l0,0H10.8l0,0H7.2c-0.7,0-1.3,0.6-1.3,1.3l0,0c0,0.7,0.6,1.3,1.3,1.3h3.5v11.1c0,3.1,2.5,5.6,5.6,5.6h19.2
	c3.1,0,5.6-2.5,5.6-5.6V33.4h3.5c0.7,0,1.3-0.6,1.3-1.3l0,0C46,31.4,45.4,30.8,44.7,30.8z M30.7,19.7c-0.9-1-2.2-1.6-3.6-1.8
	c-2.9-0.3-5.5,1.4-5.9,3.8L17,21.2c-2.7-0.3-5.1,1.3-6,3.8l30,3.7c-0.2-2.6-2.2-4.8-4.9-5.1L32,23.1C32.1,21.9,31.6,20.7,30.7,19.7z
	 M26.9,20.1c0.9,0.1,1.7,0.5,2.3,1.1c0.5,0.5,0.7,1.1,0.7,1.6L23.4,22C23.6,20.8,25.2,19.9,26.9,20.1z M8.2,27.5
	c0.6,0.4,1.3,0.8,2,1.1c-1.2-0.9-2.3-2-3.2-3.1c-0.2-0.3-0.4-0.6-0.6-0.9C6.2,24.3,6,24,5.9,23.7s-0.3-0.6-0.3-0.9
	c-0.1-0.3-0.1-0.6-0.1-0.9c0-0.1,0.1-0.3,0.1-0.4L5.7,21l0.2-0.4l0.3-0.4c0.2-0.2,0.4-0.5,0.7-0.7c0.2-0.2,0.5-0.4,0.8-0.6
	c0.6-0.3,1.2-0.7,1.9-0.9c0.7-0.3,1.3-0.5,2-0.7l0.8-0.3l-0.1-0.9c-0.1-0.5-0.1-1.1,0-1.7c0-0.3,0.1-0.6,0.1-0.9
	c0.1-0.3,0.1-0.6,0.2-0.8c0.1-0.3,0.2-0.5,0.3-0.8l0.4-0.7l0.5-0.6c0.2-0.2,0.4-0.4,0.6-0.6c0.2-0.2,0.5-0.3,0.7-0.5
	s0.5-0.3,0.7-0.4l0.8-0.4c0.3-0.1,0.6-0.2,0.9-0.3c0.6-0.2,1.2-0.3,1.8-0.4c0.6-0.1,1.2-0.2,1.9-0.2l0.9-0.1h1
	c0.7,0,1.2,0.1,1.8,0.1c0.3,0,0.6,0.1,0.9,0.2c0.3,0.1,0.6,0.1,0.9,0.2l0.9,0.3c0.3,0.1,0.6,0.3,0.8,0.4c0.3,0.1,0.5,0.3,0.8,0.5
	s0.5,0.4,0.7,0.6l0.4,0.3l0.3,0.3c0.2,0.2,0.4,0.5,0.6,0.7c0.4,0.5,0.8,1,1.1,1.6s0.6,1.2,0.8,1.8c0-0.7-0.2-1.3-0.4-2
	c-0.2-0.6-0.5-1.3-0.8-1.9c-0.2-0.3-0.4-0.6-0.6-0.9L31,9.8l-0.3-0.4c-0.2-0.3-0.5-0.5-0.7-0.7c-0.3-0.2-0.5-0.5-0.8-0.7
	s-0.6-0.4-0.9-0.6l-1-0.5c-0.3-0.2-0.7-0.2-1-0.4c-0.3-0.1-0.7-0.2-1-0.3c-0.7-0.1-1.4-0.3-2.1-0.3l-1-0.1h-0.1H22l0,0h-0.1h-0.3
	h-0.5c-0.7,0-1.4,0-2.1,0.1s-1.4,0.2-2.1,0.4c-0.3,0.1-0.7,0.2-1,0.3l-1,0.4c-0.3,0.1-0.7,0.3-1,0.5S13.2,7.9,13,8.2
	c-0.3,0.3-0.6,0.5-0.8,0.8l-0.8,1c-0.2,0.3-0.4,0.7-0.6,1c-0.2,0.3-0.3,0.7-0.4,1.1c-0.1,0.4-0.2,0.7-0.3,1.1c0,0.4-0.1,0.7-0.1,1.1
	c0,0.5,0,0.9,0,1.4c-0.5,0.2-0.9,0.4-1.4,0.6c-0.6,0.3-1.3,0.7-2,1.2c-0.3,0.3-0.7,0.5-1,0.8s-0.6,0.6-0.8,1l-0.3,0.6l-0.3,0.6
	c-0.1,0.2-0.1,0.4-0.1,0.7c0,0.2,0,0.5,0,0.7c0,0.5,0.1,0.9,0.3,1.3c0.1,0.4,0.3,0.8,0.5,1.1c0.2,0.4,0.5,0.7,0.7,1
	c0.3,0.3,0.5,0.6,0.8,0.8C6.9,26.6,7.5,27.1,8.2,27.5z"/>
</svg>
