<?xml version="1.0" encoding="utf-8"?>
<!-- Generator: Adobe Illustrator 23.0.2, SVG Export Plug-In . SVG Version: 6.00 Build 0)  -->
<svg version="1.1" id="svg2" xmlns="http://www.w3.org/2000/svg" xmlns:xlink="http://www.w3.org/1999/xlink" x="0px" y="0px"
	 viewBox="0 0 33.3 33.3" style="enable-background:new 0 0 33.3 33.3;" xml:space="preserve">
<style type="text/css">
	.st0{fill:#231F20;}
</style>
<title>cow</title>
<path id="g10" class="st0" d="M19.8,13.8c-0.5,0-0.9-0.4-0.9-0.9s0.4-0.9,0.9-0.9s0.9,0.4,0.9,0.9l0,0
	C20.7,13.4,20.3,13.8,19.8,13.8 M0.3,11c0,0,2.7,6.4,3.7,10s0.9,12.3,0.9,12.3c0.8-0.8,1.6-1.7,2.2-2.6c1.4-1.8,6.5-5.1,6.5-5.1
	c1.3,1.2,3.9,0.9,5.5,0.9c1.4,0,2.7-0.3,4-0.9c0.8-0.4,1-0.2,1.9,0c1,0.3,2.1,0.4,3.1,0.4c1-0.1,2.2-1.6,2.8-1.9s0.8-2,0.9-2.5
	s-0.2-1.3-1.8-2.1s-4.4-4.3-5.4-5.4c-0.6-0.8-0.9-1.9-0.8-2.9c-0.4-1-1-1.9-1.8-2.6c-0.9-0.7-1.9-1.3-3-1.8c0.1-0.6,0.1-1.1-0.1-1.7
	C21.9,2.2,22,0,22,0c-1.2,1.1-2.5,2.1-3.9,2.9l-1.5,0.9c-1.5-0.3-3.4-0.2-4.2,0.7c-0.2,0.3-0.4,0.5-0.6,0.8C12,6,12.2,6.8,12.2,7.6
	c-0.4-1.1-1.1-2.2-2.1-2.9C9,3.7,7.4,3.4,6.1,4C5.5,5.1,5.4,6.4,5.8,7.6c0.5,1.5,1.6,2.6,3,3.2c-0.9-0.1-1.8-0.4-2.5-1
	c-1,0.4-2.1,0.7-3.2,0.9C2.1,10.9,1.2,11,0.3,11"/>
</svg>
