<?xml version="1.0" encoding="utf-8"?>
<!-- Generator: Adobe Illustrator 23.0.2, SVG Export Plug-In . SVG Version: 6.00 Build 0)  -->
<svg version="1.1" id="Layer_1" xmlns="http://www.w3.org/2000/svg" xmlns:xlink="http://www.w3.org/1999/xlink" x="0px" y="0px"
	 viewBox="0 0 50 50" style="enable-background:new 0 0 50 50;" xml:space="preserve">
<path d="M28.5,16.2c0,0.7-0.5,1.2-1.2,1.2s-1.2-0.5-1.2-1.2V6.1h-2.6v10.1c0,0.7-0.5,1.2-1.2,1.2s-1.2-0.5-1.2-1.2V6.1h-2.4v11.6
	c0,2.5,1.5,4.7,3.7,5.6v24.6c0,1.2,0.9,2.1,2.1,2.1h0.9c1.2,0,2.1-0.9,2.1-2.1V23.2c2-1,3.4-3.1,3.4-5.5V6.1h-2.5v10.1H28.5z
	 M42.2,6.4L42.2,6.4C42.2,6.5,42.1,6.5,42.2,6.4c-2.7,0.1-4.9,2.2-4.9,4.9v13c0,2.6,2.1,4.8,4.8,4.8h0.1V48c0,1.2,0.9,2.1,2.1,2.1
	h0.9c1.2,0,2.1-0.9,2.1-2.1V6.4H42.2z M9.1,6.1H8.3c0,0-5.7,1-5.7,8.4c0,0-0.2,4,2.6,6.8C7.9,24.1,7,28.9,7,28.9l-1,18
	c0,0-0.1,2.9,2.2,2.9h1c2.3,0,2.2-2.9,2.2-2.9l-1-18c0,0-0.9-4.8,1.8-7.6s2.6-6.8,2.6-6.8C14.8,7.1,9.1,6.1,9.1,6.1z"/>
</svg>
