<?xml version="1.0" encoding="utf-8"?>
<!-- Generator: Adobe Illustrator 23.0.2, SVG Export Plug-In . SVG Version: 6.00 Build 0)  -->
<svg version="1.1" id="Layer_1" xmlns="http://www.w3.org/2000/svg" xmlns:xlink="http://www.w3.org/1999/xlink" x="0px" y="0px"
	 viewBox="0 0 50 50" style="enable-background:new 0 0 50 50;" xml:space="preserve">
<path d="M47.3,28.5l-0.1-0.8c-0.4-2.6-0.8-5.5-1.3-7.7c-0.8-3.7-3.3-6-7.6-6.9c-0.6-0.2-5.5-1.5-11.4-1.5h-3.6
	c-6,0-10.8,1.3-11.4,1.5C7.5,14,5,16.3,4.1,20c-0.5,2.2-0.9,5.1-1.3,7.6l-0.1,0.9c-0.2,1.4,0.4,2.9,1.6,3.6c3.5,2.2,6.4,6.6,6.9,9.2
	C13,50,21.8,50,24.7,50h0.6c2.9,0,11.7,0,13.4-8.7c0.5-2.6,3.4-7,6.9-9.2C46.9,31.4,47.5,29.9,47.3,28.5z M42.4,20.8
	c0.4,1.8,0.8,4.2,1.1,6.4c-1.6-0.9-3.8-1.8-6.2-2.3l0.6-8.3C40.6,17.3,41.9,18.5,42.4,20.8z M12,16.6l0.6,8.3
	c-2.4,0.5-4.6,1.4-6.2,2.3c0.3-2.2,0.7-4.6,1.1-6.4C8.1,18.5,9.4,17.3,12,16.6z M7.9,30.4c1.3-0.7,3.1-1.6,5.1-2l0.7,9.3
	C12.4,35.1,10.3,32.4,7.9,30.4z M24.7,46.5c-3.1,0-5.3-0.4-6.9-1.3l-2.3-29.3c1.9-0.3,4.7-0.7,7.7-0.7h3.6c3,0,5.8,0.4,7.7,0.7
	l-2.3,29.3c-1.6,0.9-3.9,1.3-6.9,1.3H24.7z M36.3,37.7l0.7-9.3c2,0.4,3.8,1.3,5.1,2C39.7,32.4,37.6,35.1,36.3,37.7z M19.4,19.3
	c-0.2,1.1-0.6,2.7-0.9,3.6l0.9-0.1c0.4-0.7,1.1-2.4,1.4-3.7L19.4,19.3z M20.7,22.9l0.9-0.1c0.4-0.7,1.1-2.4,1.4-3.7l-1.4,0.1
	C21.5,20.4,21.1,22,20.7,22.9z"/>
</svg>
