<?xml version="1.0" encoding="utf-8"?>
<!-- Generator: Adobe Illustrator 23.0.4, SVG Export Plug-In . SVG Version: 6.00 Build 0)  -->
<svg version="1.1" id="Layer_1" xmlns="http://www.w3.org/2000/svg" xmlns:xlink="http://www.w3.org/1999/xlink" x="0px" y="0px"
	 viewBox="0 0 512 512" style="enable-background:new 0 0 512 512;" xml:space="preserve">
<path d="M258.3,192.6c-88.1,0-159.7,71.6-159.7,159.7S170.3,512,258.3,512s159.7-71.6,159.7-159.7
	C419.2,264.2,347.6,192.6,258.3,192.6z M108,380.5l150.3-150.3l150.3,150.3H108z M70.5,261.9c0,4.7-3.5,8.2-8.2,8.2
	s-8.2-3.5-8.2-8.2v-72.8H35.2v72.8c0,4.7-3.5,8.2-8.2,8.2s-8.2-3.5-8.2-8.2v-72.8H0v83.4c0,17.6,10.6,32.9,25.8,39.9v176.1
	c0,8.2,7,15.3,15.3,15.3h7c8.2,0,15.3-7,15.3-15.3V312.4c14.1-7,24.7-22.3,24.7-38.8v-83.4H70.5V261.9z M474.4,191.4L474.4,191.4
	L474.4,191.4c-20,0-35.2,15.3-35.2,35.2v92.8c0,18.8,15.3,34.1,34.1,34.1c0,0,0,0,1.2,0v136.2c0,8.2,7,15.3,15.3,15.3h7
	c8.2,0,15.3-7,15.3-15.3V191.4H474.4z M163.2,191.4c0,0,24.7,1.2,42.3-15.3s47-10.6,47-10.6l111.6,5.9c0,0,18.8,0,18.8-14.1v-5.9
	c0-14.1-18.8-14.1-18.8-14.1l-111.6,5.9c0,0-29.4,5.9-47-10.6s-42.3-15.3-42.3-15.3c-45.8,0-51.7,35.2-51.7,35.2v4.7
	C111.6,156.2,118.6,191.4,163.2,191.4z"/>
</svg>
