<?xml version="1.0" encoding="utf-8"?>
<!-- Generator: Adobe Illustrator 23.0.2, SVG Export Plug-In . SVG Version: 6.00 Build 0)  -->
<svg version="1.1" id="Layer_1" xmlns="http://www.w3.org/2000/svg" xmlns:xlink="http://www.w3.org/1999/xlink" x="0px" y="0px"
	 viewBox="0 0 50 50" style="enable-background:new 0 0 50 50;" xml:space="preserve">
<path d="M40.1,26c-0.3-1.3,0.3-2.8,0.5-3.4c0.3-0.6,1-2.2,1.3-3.7c0.4-1.6-3.4-4.8-4.4-5.2c-0.7-0.3-1.2-0.4-1.2-0.4s-0.1,0-0.2-0.1
	c-0.2-0.5,0-0.9,0-0.9c0.3-0.2,0.6-0.5,0.6-1v-0.7c0-0.3-0.1-0.6-0.4-0.8c0.1,0.1,0.3,0.1,0.5,0.1c0.5,0,0.9-0.4,0.9-0.9V4.5
	c0-0.5-0.4-0.9-0.9-0.9S35.9,4,35.9,4.5V5c-0.4,0.1-0.8,0.5-0.8,0.9v1.6c0,0.5,0.3,0.8,0.8,0.9v0.1c-0.3,0-0.5,0.3-0.5,0.6
	c0,0.1,0,0.3,0.1,0.3H34l0,0V8.6c0-0.1-0.1-0.3-0.3-0.3h-0.9c-0.1,0-0.3,0.1-0.3,0.3v0.7l0,0H31c-0.6,0-1.1,0.5-1.1,1.1v0.7
	c0,0.4,0.2,0.8,0.6,1c0,0,0.2,0.4,0,0.9c0,0.1-0.2,0.1-0.2,0.1s-0.5,0.1-1.2,0.4c-0.7,0.3-4.5,3.5-4.4,5.2c0.1,1.5,1,3.1,1.3,3.7
	s0.8,2.1,0.5,3.4s-1.9,5.7-1.9,12.9c0,7.1,0.4,9.2,1.6,9.9c1.2,0.8,4.6,1.2,5.9,1.2h0.6l0,0h0.6h0.6l0,0h0.6c1.3,0,4.7-0.4,5.9-1.2
	C41.6,48,42,46,42,38.9C42,31.7,40.4,27.3,40.1,26z M38.4,42.4c-0.6,0.4-2.8,0.7-4.1,0.7h-1.1h-0.9c-1.2,0-3.5-0.4-4.1-0.7
	c-0.7-0.4-0.7-2.7-0.7-4.5c0-3,0.3-4.4,0.7-5.9c0.1-0.5,0.5-0.9,0.9-1.2c1.2-0.6,2.6-1,4.1-1c1.5,0,3,0.4,4.2,1
	c0.5,0.2,0.8,0.7,0.9,1.2c0.4,1.5,0.7,2.9,0.7,5.9C39.1,39.7,39.1,41.9,38.4,42.4z M12.2,11.9c-0.3,0-0.6,0-0.9,0.1
	c-1.1,0.2-2,0.9-2.6,1.8C8,14.7,7.8,15.9,8.1,17c0.4,1.9,2.1,3.3,4.1,3.3c0.3,0,0.6,0,0.9-0.1c2.3-0.5,3.7-2.7,3.2-5
	C15.9,13.3,14.1,11.9,12.2,11.9z M12.7,18.3c-1.2,0.3-2.5-0.6-2.7-1.8c-0.1-0.6,0-1.2,0.3-1.7s0.8-0.9,1.4-1c0.2,0,0.3-0.1,0.5-0.1
	c1.1,0,2,0.8,2.2,1.8C14.7,16.8,13.9,18.1,12.7,18.3z M14.6,3.5c-0.2,0-0.5,0-0.7,0.1C12.1,4,11,5.7,11.4,7.5
	c0.3,1.5,1.7,2.6,3.2,2.6c0.2,0,0.5,0,0.7-0.1c0.9-0.2,1.6-0.7,2.1-1.4C17.8,7.8,18,7,17.8,6.1C17.5,4.6,16.1,3.5,14.6,3.5z
	 M15.8,7.5c-0.2,0.3-0.5,0.5-0.9,0.6c-0.7,0.2-1.5-0.3-1.7-1.1s0.3-1.5,1.1-1.7c0.1,0,0.2,0,0.3,0c0.7,0,1.2,0.5,1.4,1.1
	C16,6.9,16,7.2,15.8,7.5z M20.9,9.7c-1.5,0.3-2.5,1.9-2.2,3.4c0.3,1.3,1.5,2.3,2.8,2.3c0.2,0,0.4,0,0.6-0.1c1.5-0.3,2.5-1.9,2.2-3.4
	S22.4,9.4,20.9,9.7z M21.7,13.5c-0.5,0.1-1-0.2-1.1-0.7s0.2-1,0.7-1.1c0.1,0,0.1,0,0.2,0c0.4,0,0.8,0.3,0.9,0.8
	C22.6,12.9,22.2,13.4,21.7,13.5z"/>
</svg>
