<?xml version="1.0" encoding="utf-8"?>
<!-- Generator: Adobe Illustrator 23.0.4, SVG Export Plug-In . SVG Version: 6.00 Build 0)  -->
<svg version="1.1" id="Layer_1" xmlns="http://www.w3.org/2000/svg" xmlns:xlink="http://www.w3.org/1999/xlink" x="0px" y="0px"
	 viewBox="0 0 512 512" style="enable-background:new 0 0 512 512;" xml:space="preserve">
<style type="text/css">
	.st0{fill-rule:evenodd;clip-rule:evenodd;}
</style>
<title>download</title>
<path class="st0" d="M496.6,263.2c-8.2,0-14.3,7.2-14.3,14.3l0,0v136.2c1,36.9-28.7,66.6-65.5,67.6c0,0,0,0-1,0H95.2
	c-36.9,0-66.6-30.7-65.5-67.6l0,0V275.5c0-8.2-6.1-14.3-13.3-15.4l0,0c-9.2,0-16.4,6.1-16.4,14.3l0,0v140.3C-1,468,42,511,95.2,512
	h321.5c53.2-1,96.2-44,95.2-97.3V277.5C512,269.3,505.8,263.2,496.6,263.2C497.6,263.2,497.6,263.2,496.6,263.2z M245.8,392.2
	c5.1,6.1,14.3,6.1,20.5,1c0,0,0,0,1-1l93.2-95.2c6.1-6.1,6.1-15.4,0-21.5c-6.1-5.1-14.3-5.1-20.5,0l0,0l-67.6,69.6V41
	c0-8.2-6.1-15.4-14.3-15.4l0,0c-8.2,0-14.3,6.1-14.3,14.3v305.1l-68.6-69.6c-5.1-5.1-14.3-5.1-20.5,0l0,0c-6.1,6.1-6.1,15.4,0,21.5
	L245.8,392.2z"/>
</svg>
