<?xml version="1.0" encoding="utf-8"?>
<!-- Generator: Adobe Illustrator 23.0.3, SVG Export Plug-In . SVG Version: 6.00 Build 0)  -->
<svg version="1.1" id="Layer_1" xmlns="http://www.w3.org/2000/svg" xmlns:xlink="http://www.w3.org/1999/xlink" x="0px" y="0px"
	 viewBox="0 0 50 50" style="enable-background:new 0 0 50 50;" xml:space="preserve">
<style type="text/css">
	.st0{fill-rule:evenodd;clip-rule:evenodd;fill:#231F20;}
</style>
<title>download</title>
<path id="download-icon" class="st0" d="M48.5,25.7c-0.8,0-1.4,0.7-1.4,1.4l0,0v13.3c0.1,3.6-2.8,6.5-6.4,6.6c0,0,0,0-0.1,0H9.3
	c-3.6,0-6.5-3-6.4-6.6c0,0,0,0,0,0V26.9c0-0.8-0.6-1.4-1.3-1.5c0,0,0,0,0,0C0.7,25.4,0,26,0,26.8c0,0,0,0,0,0v13.7
	c-0.1,5.2,4.1,9.4,9.3,9.5h31.4c5.2-0.1,9.4-4.3,9.3-9.5V27.1C50,26.3,49.4,25.7,48.5,25.7C48.6,25.7,48.6,25.7,48.5,25.7z M24,38.3
	c0.5,0.6,1.4,0.6,2,0.1c0,0,0,0,0.1-0.1l9.1-9.3c0.6-0.6,0.6-1.5,0-2.1c-0.6-0.5-1.4-0.5-2,0l0,0l-6.6,6.8V4c0-0.8-0.6-1.5-1.4-1.5
	c0,0,0,0,0,0c-0.8,0-1.4,0.6-1.4,1.4v29.8l-6.7-6.8c-0.5-0.5-1.4-0.5-2,0l0,0c-0.6,0.6-0.6,1.5,0,2.1L24,38.3z"/>
</svg>
