<?xml version="1.0" encoding="utf-8"?>
<!-- Generator: Adobe Illustrator 24.0.1, SVG Export Plug-In . SVG Version: 6.00 Build 0)  -->
<svg version="1.1" id="Layer_1" xmlns="http://www.w3.org/2000/svg" xmlns:xlink="http://www.w3.org/1999/xlink" x="0px" y="0px"
	 viewBox="0 0 512 512" style="enable-background:new 0 0 512 512;" xml:space="preserve">
<path d="M433.9,273h-4.1c-8.2,0-14.4,6.2-14.4,14.4v191.8h-320V287.4c0-8.2-6.2-14.4-14.4-14.4h-4c-8.2,0-14.4,6.2-14.4,14.4v210.2
	c0,8.2,6.2,14.4,14.4,14.4h4.1c1,0,1,0,2.1,0c1,0,1,0,2.1,0h341.5c1,0,1,0,2.1,0s1,0,2.1,0h4.1c8.2,0,14.4-6.2,14.4-14.4V287.4
	C449.3,279.2,442.1,273,433.9,273z M459.6,140.8c-3.1,0-5.1-1-8.2-2.1L256.5,38.2L60.6,139.7c-9.2,4.1-19.5,1-24.6-8.2
	c-4.1-9.2-1-19.5,8.2-24.6L247.3,2.3c5.1-3.1,11.3-3.1,16.4,0l204.1,104.6c9.2,4.1,12.3,15.4,8.2,24.6
	C472.9,137.7,466.7,140.8,459.6,140.8z M383.7,178.7c-11.3,6.2-48.2,11.3-59.5,8.2c1,2.1,1,4.1,1,6.2c0,10.3-8.2,18.5-18.5,18.5
	s-18.5-8.2-18.5-18.5c0-2.1,0-4.1,1-6.2c-11.3,3.1-48.2-2.1-59.5-8.2c-12.3-7.2-16.4-23.6-9.2-35.9s23.6-16.4,35.9-9.2
	c11.3,6.2,33.8,36.9,35.9,48.2c3.1-4.1,8.2-6.2,13.3-6.2s10.3,2.1,13.3,6.2c2.1-11.3,24.6-42,35.9-48.2c12.3-7.2,28.7-3.1,35.9,9.2
	C400.1,155.1,396,171.5,383.7,178.7z M192.8,380.2c0,2.8-2.2,5-5,5c-2.8,0-5-2.2-5-5c0-2.8,2.2-5,5-5
	C190.5,375.2,192.8,377.4,192.8,380.2z M198.6,353.4c0,2.8-2.2,5-5,5c-2.8,0-5-2.2-5-5c0-2.8,2.2-5,5-5
	C196.3,348.4,198.6,350.6,198.6,353.4z M212,327.4c0,2.8-2.2,5-5,5s-5-2.2-5-5c0-2.8,2.2-5,5-5S212,324.6,212,327.4z M234,307.3
	c0,2.8-2.2,5-5,5c-2.8,0-5-2.2-5-5s2.2-5,5-5C231.7,302.3,234,304.5,234,307.3z M263.9,296.5c0,2.8-2.2,5-5,5c-2.8,0-5-2.2-5-5
	s2.2-5,5-5C261.7,291.5,263.9,293.7,263.9,296.5z M290.7,290.9c0,2.8-2.2,5-5,5c-2.8,0-5-2.2-5-5c0-2.8,2.2-5,5-5
	C288.5,285.9,290.7,288.2,290.7,290.9z M306.5,274c0,2.8-2.2,5-5,5c-2.8,0-5-2.2-5-5s2.2-5,5-5C304.2,269,306.5,271.2,306.5,274z
	 M300.1,249.9c0,2.8-2.2,5-5,5c-2.8,0-5-2.2-5-5c0-2.8,2.2-5,5-5C297.8,244.9,300.1,247.2,300.1,249.9z M278.7,243.8
	c0,2.8-2.2,5-5,5c-2.8,0-5-2.2-5-5s2.2-5,5-5C276.5,238.8,278.7,241.1,278.7,243.8z M258.9,257.7c0,2.8-2.2,5-5,5s-5-2.2-5-5
	c0-2.8,2.2-5,5-5S258.9,254.9,258.9,257.7z M255.6,278.2c0,2.8-2.2,5-5,5c-2.8,0-5-2.2-5-5s2.2-5,5-5
	C253.4,273.2,255.6,275.4,255.6,278.2z M285.7,316.3c0,2.8-2.2,5-5,5c-2.8,0-5-2.2-5-5s2.2-5,5-5
	C283.5,311.3,285.7,313.5,285.7,316.3z M311.4,322.4c0,2.8-2.2,5-5,5c-2.8,0-5-2.2-5-5c0-2.8,2.2-5,5-5
	C309.2,317.4,311.4,319.6,311.4,322.4z M337.7,315.4c0,2.8-2.2,5-5,5c-2.8,0-5-2.2-5-5s2.2-5,5-5
	C335.4,310.4,337.7,312.6,337.7,315.4z M357.5,297.7c0,2.8-2.2,5-5,5c-2.8,0-5-2.2-5-5s2.2-5,5-5
	C355.3,292.7,357.5,294.9,357.5,297.7z M366.4,272c0,2.8-2.2,5-5,5c-2.8,0-5-2.2-5-5s2.2-5,5-5C364.1,267,366.4,269.2,366.4,272z
	 M362.5,248.8c0,2.8-2.2,5-5,5c-2.8,0-5-2.2-5-5s2.2-5,5-5C360.3,243.8,362.5,246.1,362.5,248.8z M347.7,228.1c0,2.8-2.2,5-5,5
	c-2.8,0-5-2.2-5-5c0-2.8,2.2-5,5-5C345.4,223.1,347.7,225.3,347.7,228.1z"/>
</svg>
