<?xml version="1.0" encoding="utf-8"?>
<!-- Generator: Adobe Illustrator 24.0.1, SVG Export Plug-In . SVG Version: 6.00 Build 0)  -->
<svg version="1.1" id="Layer_1" xmlns="http://www.w3.org/2000/svg" xmlns:xlink="http://www.w3.org/1999/xlink" x="0px" y="0px"
	 viewBox="0 0 512 512" style="enable-background:new 0 0 512 512;" xml:space="preserve">
<style type="text/css">
	.st0{fill:#1D1D1B;}
</style>
<path class="st0" d="M151.9,286l-73.3,29.3l10-248.5h55.2L151.9,286z M258.8,96.8h-55.2l-9.7,240.6l72.7-29L258.8,96.8z M512,300
	v212H0V368.2L170.8,300v68.1L341.4,300v68.1L512,300z M276.8,458.4h-87.6V492h87.6V458.4z M276.8,404.8h-87.6v33.6h87.6V404.8z
	 M384.4,458.4h-87.6V492h87.6V458.4z M384.4,404.8h-87.6v33.6h87.6V404.8z M492,458.4h-87.6l0,33.6H492V458.4z M492,404.8h-87.6
	l0,33.6H492V404.8z"/>
</svg>
