<?xml version="1.0" encoding="utf-8"?>
<!-- Generator: Adobe Illustrator 23.0.2, SVG Export Plug-In . SVG Version: 6.00 Build 0)  -->
<svg version="1.1" id="Layer_1" xmlns="http://www.w3.org/2000/svg" xmlns:xlink="http://www.w3.org/1999/xlink" x="0px" y="0px"
	 viewBox="0 0 50 50" style="enable-background:new 0 0 50 50;" xml:space="preserve">
<path d="M29.4,18.9l8.2-9.5l0.2-0.2H13.3l9.5,9.7H29.4z M38.8,36.8l-2.7-2.7l-8.8,10l1.1,1.1l0,0l3.6,4.1l1.8-1.6l-3.5-4
	c0.3-0.2,0.6-0.4,0.9-0.7l4,3.7l1.7-1.8l-3.7-3.4c0.3-0.2,0.6-0.4,0.8-0.7l4.3,3.3l1.5-1.9l-3.9-3c0.3-0.2,0.5-0.4,0.8-0.7l4.7,3
	l1.3-2.1L38.8,36.8C38.7,36.8,38.7,36.8,38.8,36.8z M25.5,23.3L11.6,9.2c0,0-6.4,5.9-6.9,13.4l11.7,11.1L25.5,23.3z M10.6,24.5
	c-1.2-1-1.3-2.2-0.4-3.4c0.7-0.9,1.6-1.2,2.6-0.8c-0.6-0.8-0.5-1.8,0.3-2.7c0.9-1.1,2.2-1.3,3.4-0.3c0.6,0.5,1,1.1,1,1.7l0.3,4.9
	c0,0.1,0,0.3-0.1,0.4s-0.2,0.2-0.3,0.2l-4.9,0.7C11.8,25.2,11.2,25,10.6,24.5z M37.5,22L37,22.5l2,1.8c0.1-0.1,0.3-0.3,0.6-0.6
	c0.6-0.7,1-1.6,0.2-2.3C39,20.8,38.2,21.2,37.5,22z M37.2,19.5c-0.6-0.6-1.3-0.3-1.9,0.4c-0.3,0.3-0.4,0.5-0.5,0.7l1.7,1.6l0.6-0.6
	C37.7,20.7,37.7,19.9,37.2,19.5z M38.5,10.2l-25.3,29l0,0l-3.6,3.6l1.7,1.7l4.1-4.1l-0.2-0.2c0.3,0.2,0.7,0.4,1,0.5l-3.3,4l1.9,1.6
	l3.6-4.4c0.3,0.2,0.6,0.3,0.9,0.5l-3,4.3l2,1.4l3.1-4.6c0.3,0.2,0.6,0.3,0.9,0.5l-2.6,4.7L22,50l2.6-4.7l20.6-23.4
	C44.3,16.9,38.5,10.2,38.5,10.2z M27.9,37.9c-1.4,1.5-3.3,1.8-5.1,0.2c-1.7-1.5-1.8-3.7-0.3-5.3c0.6-0.7,1.1-1,1.4-1.1l0.4,0.7
	c-0.4,0.1-0.8,0.4-1.2,0.9c-1.1,1.3-1.1,2.8,0.3,4.1c1.3,1.2,2.8,1.2,4-0.1c0.4-0.4,0.7-0.9,0.8-1.3l0.7,0.4
	C28.8,36.7,28.5,37.3,27.9,37.9z M30.2,35.2l-5.4-4.8l0.6-0.7l4.8,4.3l2.1-2.3l0.6,0.5L30.2,35.2z M35.8,29.2c-1,1.1-2.4,1.4-4-0.1
	l-3.2-2.8l0.6-0.7l3.2,2.9c1.2,1.1,2.2,1,2.8,0.3c0.7-0.8,0.7-1.8-0.5-2.8l-3.2-3l0.6-0.7l3.1,2.8C36.9,26.6,36.8,28.1,35.8,29.2z
	 M38.9,25.5l-5.3-4.7c0.2-0.4,0.6-0.9,1-1.4c0.6-0.7,1.1-1,1.7-1.1c0.5-0.1,0.9,0,1.3,0.4c0.5,0.5,0.7,1.2,0.4,2l0,0
	c0.6-0.4,1.5-0.6,2.3,0.1c0.5,0.4,0.6,0.9,0.7,1.4c0,0.7-0.4,1.4-1.2,2.3C39.5,25,39.2,25.3,38.9,25.5z"/>
</svg>
