<?xml version="1.0" encoding="utf-8"?>
<!-- Generator: Adobe Illustrator 23.0.2, SVG Export Plug-In . SVG Version: 6.00 Build 0)  -->
<svg version="1.1" id="Layer_1" xmlns="http://www.w3.org/2000/svg" xmlns:xlink="http://www.w3.org/1999/xlink" x="0px" y="0px"
	 viewBox="0 0 50 50" style="enable-background:new 0 0 50 50;" xml:space="preserve">
<path d="M40.9,7.6c-2.6,0-4.4,1.1-5,3.3c-0.6-2.2-2.4-3.3-5-3.3c-3.3,0-5.3,1.9-5.3,5.4c0,1.7,0.5,3.2,1.5,4.1l8,7.5
	c0.2,0.2,0.5,0.3,0.8,0.3s0.6-0.1,0.8-0.3l8-7.5c1-1,1.5-2.4,1.5-4.1C46.2,9.4,44.2,7.6,40.9,7.6z M19.9,26.8c0,0,0.1-2.7,0.3-5.5
	c0.1-1.8,1.4-3.1,1.9-3.8c0.2-0.3,0-0.6-0.4-0.6h-3.3H14h-3.3c-0.3,0-0.6,0.3-0.4,0.6c0.5,0.7,1.8,2,1.9,3.8
	c0.2,2.8,0.3,5.5,0.3,5.5s-8.7,2-8.7,7.2s9.1,12.7,9.1,12.7l-2.4,2.4c-0.2,0.4,0.1,0.9,0.6,0.9h4.2h1.9h4.2c0.5,0,0.8-0.5,0.6-0.9
	l-2.4-2.4c0,0,9.1-7.6,9.1-12.7C28.6,28.8,19.9,26.8,19.9,26.8z"/>
</svg>
