<?xml version="1.0" encoding="utf-8"?>
<!-- Generator: Adobe Illustrator 23.0.2, SVG Export Plug-In . SVG Version: 6.00 Build 0)  -->
<svg version="1.1" id="Layer_1" xmlns="http://www.w3.org/2000/svg" xmlns:xlink="http://www.w3.org/1999/xlink" x="0px" y="0px"
	 viewBox="0 0 50 50" style="enable-background:new 0 0 50 50;" xml:space="preserve">
<style type="text/css">
	.st0{fill:#231F20;}
</style>
<path class="st0" d="M41.3,9.9c-2.4,0-4.1,1-4.7,3.1c-0.6-2-2.3-3.1-4.7-3.1c-3.1,0-5,1.8-5,5.1c0,1.6,0.4,3,1.4,3.9l7.5,7
	c0.2,0.2,0.5,0.3,0.8,0.3s0.5-0.1,0.8-0.3l7.5-7c1-0.9,1.4-2.3,1.4-3.9C46.2,11.7,44.4,9.9,41.3,9.9z M35.2,32.3c-0.1,0-0.1,0-0.2,0
	l0,0c0,0-0.2,0-0.4,0.1c-0.9,0.2-1.7,0.6-2.2,1.3c-1,1-1.9,2.6-2.4,5.4c-1.8-1.2-4.3-1.9-7-1.9c-0.1,0-0.2,0-0.4,0
	c-0.1,0-0.2,0-0.4,0c-2.7,0-5.2,0.7-7,1.9c-0.5-2.8-1.5-4.5-2.4-5.4c-0.6-0.7-1.3-1.1-2.2-1.3c-0.3-0.1-0.4-0.1-0.4-0.1l0,0
	c-0.1,0-0.1,0-0.2,0c-2.1,0-3.7,1.7-3.7,3.7c0,1.8,1.3,3.3,3,3.7c0.3,2.5,1.1,7.1,2.6,8.8h1.7c0,0.1,0,0.2,0,0.2
	c0,0.7,0.6,1.4,1.4,1.4h1c0.7,0,1.4-0.6,1.4-1.4c0-0.1,0-0.2,0-0.2h3.2h4.7H28c0,0.1,0,0.2,0,0.2c0,0.7,0.6,1.4,1.4,1.4h1
	c0.7,0,1.4-0.6,1.4-1.4c0-0.1,0-0.2,0-0.2h1.7c1.6-1.7,2.4-6.3,2.6-8.8c1.7-0.3,3-1.9,3-3.7C38.9,33.9,37.2,32.3,35.2,32.3z
	 M13.6,32.7c1,1.1,1.8,2.5,2.4,4.4c1.8-0.8,3.9-1.3,6.2-1.3c0.1,0,0.2,0,0.3,0h0.1h0.1c0.1,0,0.2,0,0.3,0c2.2,0,4.3,0.4,6.2,1.3
	c0.5-1.8,1.3-3.3,2.4-4.4c0.6-0.8,1.5-1.3,2.4-1.6c-0.4-3.7-5.3-6-11.3-6s-10.9,2.3-11.3,6C12.1,31.5,13,32,13.6,32.7z"/>
</svg>
