<?xml version="1.0" encoding="utf-8"?>
<!-- Generator: Adobe Illustrator 23.0.4, SVG Export Plug-In . SVG Version: 6.00 Build 0)  -->
<svg version="1.1" id="Layer_1" xmlns="http://www.w3.org/2000/svg" xmlns:xlink="http://www.w3.org/1999/xlink" x="0px" y="0px"
	 viewBox="0 0 512 512" style="enable-background:new 0 0 512 512;" xml:space="preserve">
<path d="M392.9,196.5c22.1,0,40.5-18.4,40.5-40.5s-18.4-40.5-40.5-40.5s-40.5,18.4-40.5,40.5S370.8,196.5,392.9,196.5z M412.5,384.3
	l23.3-116.6c45.4-17.2,76.1-61.4,76.1-111.7c0-66.3-54-120.3-120.3-120.3c-44.2,0-82.3,23.3-103.1,58.9l-154.7,7.4v105.6l154.7,8.6
	c13.5,22.1,33.2,39.3,57.7,49.1l-24.6,117.9c0,19.6,12.3,35.6,29.5,41.7c0,8.6,0,40.5,20.9,62.6c14.7,16,35.6,24.6,62.6,24.6v-20.9
	c-20.9,0-36.8-6.1-46.7-17.2c-14.7-16-16-38.1-14.7-46.7C395.4,426.1,412.5,407.6,412.5,384.3z M392.9,93.3
	c34.4,0,61.4,28.2,61.4,61.4c0,34.4-28.2,61.4-61.4,61.4c-34.4,0-61.4-28.2-61.4-61.4C331.5,121.6,358.5,93.3,392.9,93.3z
	 M87.2,95.8H11.1C4.9,95.8,0,100.7,0,106.8c0,6.1,4.9,11.1,11.1,11.1h76.1c6.1,0,11.1-4.9,11.1-11.1C98.2,100.7,93.3,95.8,87.2,95.8
	z M87.2,143.7H11.1c-6.1,0-11.1,4.9-11.1,11.1s4.9,11.1,11.1,11.1h76.1c6.1,0,11.1-4.9,11.1-11.1C98.2,149.8,93.3,143.7,87.2,143.7z
	 M87.2,192.8H11.1c-6.1,0-11.1,4.9-11.1,11.1c0,6.1,4.9,11.1,11.1,11.1h76.1c6.1,0,11.1-4.9,11.1-11.1
	C98.2,197.7,93.3,192.8,87.2,192.8z"/>
</svg>
