<?xml version="1.0" encoding="utf-8"?>
<!-- Generator: Adobe Illustrator 23.0.2, SVG Export Plug-In . SVG Version: 6.00 Build 0)  -->
<svg version="1.1" id="Layer_1" xmlns="http://www.w3.org/2000/svg" xmlns:xlink="http://www.w3.org/1999/xlink" x="0px" y="0px"
	 viewBox="0 0 50 50" style="enable-background:new 0 0 50 50;" xml:space="preserve">
<path d="M36.1,24.2c1.8,0,3.3-1.5,3.3-3.3s-1.5-3.3-3.3-3.3s-3.3,1.5-3.3,3.3S34.3,24.2,36.1,24.2z M37.7,39.5l1.9-9.5
	c3.7-1.4,6.2-5,6.2-9.1c0-5.4-4.4-9.8-9.8-9.8c-3.6,0-6.7,1.9-8.4,4.8L15,16.5v8.6l12.6,0.7c1.1,1.8,2.7,3.2,4.7,4l-2,9.6
	c0,1.6,1,2.9,2.4,3.4c0,0.7,0,3.3,1.7,5.1c1.2,1.3,2.9,2,5.1,2v-1.7c-1.7,0-3-0.5-3.8-1.4c-1.2-1.3-1.3-3.1-1.2-3.8
	C36.3,42.9,37.7,41.4,37.7,39.5z M36.1,15.8c2.8,0,5,2.3,5,5c0,2.8-2.3,5-5,5c-2.8,0-5-2.3-5-5C31.1,18.1,33.3,15.8,36.1,15.8z
	 M11.2,16H5c-0.5,0-0.9,0.4-0.9,0.9s0.4,0.9,0.9,0.9h6.2c0.5,0,0.9-0.4,0.9-0.9C12.1,16.4,11.7,16,11.2,16z M11.2,19.9H5
	c-0.5,0-0.9,0.4-0.9,0.9s0.4,0.9,0.9,0.9h6.2c0.5,0,0.9-0.4,0.9-0.9C12.1,20.4,11.7,19.9,11.2,19.9z M11.2,23.9H5
	c-0.5,0-0.9,0.4-0.9,0.9s0.4,0.9,0.9,0.9h6.2c0.5,0,0.9-0.4,0.9-0.9C12.1,24.3,11.7,23.9,11.2,23.9z"/>
</svg>
