<?xml version="1.0" encoding="utf-8"?>
<!-- Generator: Adobe Illustrator 23.0.4, SVG Export Plug-In . SVG Version: 6.00 Build 0)  -->
<svg version="1.1" id="Layer_1" xmlns="http://www.w3.org/2000/svg" xmlns:xlink="http://www.w3.org/1999/xlink" x="0px" y="0px"
	 viewBox="0 0 512 512" style="enable-background:new 0 0 512 512;" xml:space="preserve">
<title>Untitled-2</title>
<path id="g10" d="M256.5,490.5c-88.1,0-148.5-53.2-148.5-130V139.3c0-11.3,9.2-21.5,21.5-21.5c12.3,0,21.5,9.2,21.5,21.5v130
	c0,6.1,5.1,10.2,10.2,10.2s10.2-5.1,10.2-10.2V77.9c0-11.3,9.2-21.5,20.5-21.5s21.5,9.2,21.5,20.5v189.4c0,6.1,5.1,10.2,10.2,10.2
	c6.1,0,10.2-5.1,10.2-10.2V45.1c0-11.3,9.2-21.5,21.5-21.5c12.3,0,21.5,9.2,21.5,21.5v222.2c0,6.1,5.1,10.2,10.2,10.2
	c6.1,0,10.2-5.1,10.2-10.2V109.6v-1c0-11.3,9.2-21.5,21.5-21.5h1c11.3,1,20.5,11.3,19.5,22.5v195.6c0,6.1,5.1,10.2,10.2,10.2
	c6.1,0,10.2-5.1,10.2-10.2V297v-2v-61.4c0-12.3,9.2-22.5,21.5-22.5c12.3,1,21.5,10.2,21.5,22.5v128
	C405,437.3,344.6,490.5,256.5,490.5 M426.5,255v-21.5v-1c0-23.6-19.5-43-43-43c-7.2,0-15.4,2-21.5,6.1v-87v-1c0-23.6-19.5-43-43-43
	c-7.2,0-15.4,2-21.5,6.1V45.1c1-23.6-16.4-44-39.9-45.1s-42,16.4-44,39.9c-6.1-4.1-13.3-6.1-21.5-6.1h-1c-23.6,1-42,20.5-41,44v25.6
	c-6.1-4.1-14.3-6.1-21.5-6.1c-23.6,0-43,19.5-43,43v221.2c1,88.1,70.7,150.5,171,150.5s170-62.5,170-151.5V257V255z"/>
</svg>
