<?xml version="1.0" encoding="utf-8"?>
<!-- Generator: Adobe Illustrator 23.0.4, SVG Export Plug-In . SVG Version: 6.00 Build 0)  -->
<svg version="1.1" id="Layer_1" xmlns="http://www.w3.org/2000/svg" xmlns:xlink="http://www.w3.org/1999/xlink" x="0px" y="0px"
	 viewBox="0 0 512 512" style="enable-background:new 0 0 512 512;" xml:space="preserve">
<title>Untitled-2</title>
<path id="g10" d="M256.5,490.5c-88.1,0-148.5-53.2-148.5-130v-127c0-12.3,9.2-21.5,21.5-22.5c12.3,1,21.5,11.3,21.5,22.5v61.4v2v7.2
	c0,6.1,5.1,10.2,10.2,10.2c5.1,0,10.2-5.1,10.2-10.2V109.6c-1-11.3,8.2-21.5,19.5-22.5c1,0,1,0,2,0c11.3,0,21.5,9.2,21.5,21.5
	c0,1,0,1,0,2v158.7c0,6.1,5.1,10.2,10.2,10.2s10.2-5.1,10.2-10.2V45.1c0-11.3,9.2-21.5,21.5-21.5c11.3,0,21.5,9.2,21.5,21.5v221.2
	c0,6.1,5.1,10.2,10.2,10.2s10.2-5.1,10.2-10.2V75.8c0-11.3,10.2-20.5,22.5-20.5c11.3,0,20.5,10.2,20.5,22.5v191.5
	c0,6.1,5.1,10.2,10.2,10.2c6.1,0,10.2-5.1,10.2-10.2v-130c0-11.3,9.2-21.5,21.5-21.5c11.3,0,21.5,9.2,21.5,21.5v222.2
	C405,437.3,344.6,490.5,256.5,490.5 M86.5,257v104.4c0,88.1,69.6,150.5,170,150.5s170-62.5,170-151.5V139.3c0-23.6-19.5-43-43-43
	c-7.2,0-15.4,2-21.5,6.1V77.9c1-23.6-17.4-43-41-44h-1c-7.2,0-15.4,2-21.5,6.1c-1-23.6-21.5-41-44-39.9s-41,21.5-39.9,45.1v26.6
	c-6.1-4.1-13.3-6.1-21.5-6.1c-23.6,0-43,19.5-43,43v1v87c-6.1-4.1-13.3-6.1-21.5-6.1c-23.6,0-43,19.5-43,43v1V256v1H86.5z"/>
</svg>
