<?xml version="1.0" encoding="utf-8"?>
<!-- Generator: Adobe Illustrator 23.0.2, SVG Export Plug-In . SVG Version: 6.00 Build 0)  -->
<svg version="1.1" id="Layer_1" xmlns="http://www.w3.org/2000/svg" xmlns:xlink="http://www.w3.org/1999/xlink" x="0px" y="0px"
	 viewBox="0 0 50 50" style="enable-background:new 0 0 50 50;" xml:space="preserve">
<style type="text/css">
	.st0{fill:#231F20;}
</style>
<path class="st0" d="M48.2,45.5c-5.7-5.9-13.5-9.5-21.7-9.9v-2c0-0.1,0-0.1,0-0.1c2.7-0.7,4.6-3.1,4.6-6c0-3.4-2.8-6.1-6.1-6.1
	c-3.4,0-6.1,2.8-6.1,6.1c0,0.8,0.7,1.5,1.5,1.5s1.5-0.7,1.5-1.5c0-1.7,1.4-3.2,3.2-3.2c1.7,0,3.2,1.4,3.2,3.2c0,1.4-1,2.7-2.4,3.1
	c-0.7,0.1-1.2,0.6-1.4,0.8c-0.6,0.6-0.9,1.4-0.9,2.3v1.9c-8.3,0.4-16.2,4-21.8,9.9c-1,1.1-1,2.8,0.1,3.8C2.4,49.8,3.1,50,3.7,50
	c0.7,0,1.4-0.3,1.9-0.8c5.1-5.3,11.9-8.2,19.3-8.2s14.3,2.9,19.3,8.2c1,1.1,2.7,1.1,3.8,0.1C49.2,48.2,49.2,46.6,48.2,45.5z"/>
</svg>
