<?xml version="1.0" encoding="utf-8"?>
<!-- Generator: Adobe Illustrator 23.0.4, SVG Export Plug-In . SVG Version: 6.00 Build 0)  -->
<svg version="1.1" id="Layer_1" xmlns="http://www.w3.org/2000/svg" xmlns:xlink="http://www.w3.org/1999/xlink" x="0px" y="0px"
	 viewBox="0 0 512 512" style="enable-background:new 0 0 512 512;" xml:space="preserve">
<path d="M436.5,128.3c-20.5-12.3-41-29.5-58.3-40.2s-24.6-2.5-36.1-8.2c-11.5-5.7-23.3-13.9-40.5-17.2c-14.4-2.7-32.4-5.4-55.1-6.4
	c-4.3-12.4-12.2-30.4-24.8-40.4c-11.5-9.1-28.5-16-28.5-16s3.8,10.8,7,25.4c2.6,11.9,6,19.1-1.4,20.1c-7.3,0.9-17.7-9.6-27-19.5
	C163.1,16.7,148,7.6,148,7.6s-2.8,12.7,0.4,27.9c1.3,6,4.2,12.6,7.5,18.9c-24.7,6.9-42.2,25.3-42.2,25.3c15.2-3.4,27.8-1.8,35.8,0.2
	c-5.5,4.2-11.4,9.1-13.4,12.3c-4.1,6.6-11.5,21.3-16.4,26.3c-4.9,4.9-12.3,10.7-19.7,24.6c-7.4,14-4.9,28.7-12.3,38.6
	c-7.4,9.8-50.1,58.3-61.6,73.9c-11.5,15.6-24.6,30.4-24.6,42.7c0,12.3-4.9,32.8,5.7,43.5s20.5,14.8,32.8,14.8c0,0-2.5,7.6,8,13.1
	c11.7,6.1,30.6-2.3,35.6-6.3c9.9-7.8,7.7-19.3,21.7-26.7c14-7.4,33.2-11.3,51.2-17.9c18.1-6.6,18.9-10.7,36.9-13.1
	c18.1-2.5,41-0.8,58.3-23.8c0,0,32.8,105.1,53.3,143.6c20.5,38.6,61.5,86.6,61.5,86.6s18.4-81.5,42.4-142.4
	c19.6-49.6,102.5-177.9,102.5-177.9C482.8,165,448.8,135.7,436.5,128.3z M160.7,171.1c-6.6,0-12-5.4-12-12c0-6.6,5.4-12,12-12
	c6.6,0,12,5.4,12,12C172.8,165.7,167.4,171.1,160.7,171.1z"/>
</svg>
