<?xml version="1.0" encoding="utf-8"?>
<!-- Generator: Adobe Illustrator 23.0.2, SVG Export Plug-In . SVG Version: 6.00 Build 0)  -->
<svg version="1.1" id="Layer_1" xmlns="http://www.w3.org/2000/svg" xmlns:xlink="http://www.w3.org/1999/xlink" x="0px" y="0px"
	 viewBox="0 0 50 50" style="enable-background:new 0 0 50 50;" xml:space="preserve">
<style type="text/css">
	.st0{fill:#231F20;}
</style>
<path class="st0" d="M44.7,19.4L25.3,8.6c-0.4-0.2-0.9-0.2-1.3,0L4.6,19.4c-0.4,0.2-0.7,0.7-0.7,1.2V21c0,1,1.1,1.7,2,1.2l0.7-0.4
	v26.9C6.6,49.4,7.2,50,8,50h0.4c0.8,0,1.4-0.6,1.4-1.4V20.2c0-0.1,0-0.2,0-0.2L24,12.1c0.4-0.2,0.9-0.2,1.3,0L39.6,20
	c0,0.1,0,0.1,0,0.2v28.4c0,0.8,0.6,1.4,1.4,1.4h0.4c0.8,0,1.4-0.6,1.4-1.4V21.7l0.7,0.4c0.9,0.5,2-0.2,2-1.2v-0.4
	C45.4,20.1,45.2,19.6,44.7,19.4z M33.6,41.1h-18c-1.9,0-3.5,1.6-3.5,3.5s1.6,3.5,3.5,3.5h18c1.9,0,3.5-1.6,3.5-3.5
	C37.1,42.7,35.6,41.1,33.6,41.1z"/>
</svg>
