<?xml version="1.0" encoding="utf-8"?>
<!-- Generator: Adobe Illustrator 23.0.3, SVG Export Plug-In . SVG Version: 6.00 Build 0)  -->
<svg version="1.1" id="Layer_1" xmlns="http://www.w3.org/2000/svg" xmlns:xlink="http://www.w3.org/1999/xlink" x="0px" y="0px"
	 viewBox="0 0 50 50" style="enable-background:new 0 0 50 50;" xml:space="preserve">
<style type="text/css">
	.st0{fill:#231F20;}
</style>
<g>
	<g>
		<path class="st0" d="M49.1,21.5l-22.4-20c-0.9-0.8-2.3-0.8-3.2,0l-22.6,20c-1,0.9-1.2,2.4-0.3,3.5c0.4,0.5,0.9,0.8,1.5,0.8
			c0.7,0.1,4.6,0,4.6,0v22.3c0,1,0.8,1.8,1.8,1.8h0.5c0.1,0,0.2,0,0.2,0s0.2,0,0.2,0h31.4c0.1,0,0.2,0,0.2,0c0.1,0,0.2,0,0.2,0h0.5
			c1,0,1.8-0.8,1.8-1.8V25.9c0,0,3.4,0,3.9,0c0.7,0,1.4-0.3,1.9-0.9C50.3,24,50.2,22.4,49.1,21.5z"/>
	</g>
</g>
</svg>
