<?xml version="1.0" encoding="utf-8"?>
<!-- Generator: Adobe Illustrator 23.0.4, SVG Export Plug-In . SVG Version: 6.00 Build 0)  -->
<svg version="1.1" id="Layer_1" xmlns="http://www.w3.org/2000/svg" xmlns:xlink="http://www.w3.org/1999/xlink" x="0px" y="0px"
	 viewBox="0 0 512 512" style="enable-background:new 0 0 512 512;" xml:space="preserve">
<path d="M435.2,116.2l-50.4-16.8V34.6h-55.2v45.6L94.6,1.1C77.8-3.7,59.8,8.3,59.8,26.2c0,10.8,7.2,20.4,18,24l340.6,113.9
	c16.8,6,33.6-7.2,33.6-24C453.2,129.4,446,119.8,435.2,116.2z M75.4,512h67.2V363.3h79.2V512h217.1V212.2L75.4,94.6V512z
	 M298.5,362.1h68.4v64.8h-68.4V362.1z M191.8,190.6h33.6v87.6h-33.6V190.6z M134.2,190.6h33.6v87.6h-33.6V190.6z"/>
</svg>
