<?xml version="1.0" encoding="utf-8"?>
<!-- Generator: Adobe Illustrator 23.0.4, SVG Export Plug-In . SVG Version: 6.00 Build 0)  -->
<svg version="1.1" id="Layer_1" xmlns="http://www.w3.org/2000/svg" xmlns:xlink="http://www.w3.org/1999/xlink" x="0px" y="0px"
	 viewBox="0 0 512 512" style="enable-background:new 0 0 512 512;" xml:space="preserve">
<path d="M502.9,221l-229.6-205c-9.2-8.2-23.6-8.2-32.8,0L9,221c-10.2,9.2-12.3,24.6-3.1,35.9c4.1,5.1,9.2,8.2,15.4,8.2
	c7.2,1,47.1,0,47.1,0v228.5c0,10.2,8.2,18.4,18.4,18.4H92c1,0,2,0,2,0h2h321.8c1,0,2,0,2,0c1,0,2,0,2,0h5.1
	c10.2,0,18.4-8.2,18.4-18.4V266.1c0,0,34.8,0,40,0c7.2,0,14.3-3.1,19.5-9.2C515.2,246.6,514.1,230.2,502.9,221z"/>
</svg>
