<?xml version="1.0" encoding="utf-8"?>
<!-- Generator: Adobe Illustrator 23.0.2, SVG Export Plug-In . SVG Version: 6.00 Build 0)  -->
<svg version="1.1" id="Layer_1" xmlns="http://www.w3.org/2000/svg" xmlns:xlink="http://www.w3.org/1999/xlink" x="0px" y="0px"
	 viewBox="0 0 50 50" style="enable-background:new 0 0 50 50;" xml:space="preserve">
<style type="text/css">
	.st0{fill:#231F20;}
</style>
<path class="st0" d="M46.3,20.9L25.7,9.5c-0.4-0.2-1-0.2-1.4,0L3.7,20.9C3.2,21.2,3,21.6,3,22.2v0.4c0,1.1,1.2,1.8,2.1,1.3l0.8-0.4
	v25.1c0,0.8,0.6,1.4,1.4,1.4h0.2l0,0H28v-2.1v-1.2V29.1h9.9v17.6v1.1V50h4.6l0,0h0.2c0.8,0,1.4-0.6,1.4-1.4V23.4l0.8,0.4
	c1,0.5,2.1-0.2,2.1-1.3v-0.4C47.1,21.7,46.8,21.2,46.3,20.9z M20.9,30.9v8.6h-8.8v-8.6H20.9z"/>
</svg>
