<?xml version="1.0" encoding="utf-8"?>
<!-- Generator: Adobe Illustrator 23.0.4, SVG Export Plug-In . SVG Version: 6.00 Build 0)  -->
<svg version="1.1" id="Layer_1" xmlns="http://www.w3.org/2000/svg" xmlns:xlink="http://www.w3.org/1999/xlink" x="0px" y="0px"
	 viewBox="0 0 512 512" style="enable-background:new 0 0 512 512;" xml:space="preserve">
<path d="M503.6,173.5L264,40.9c-4.7-2.3-11.6-2.3-16.3,0L8.2,173.5C2.3,177,0,181.7,0,188.6v4.7c0,12.8,14,20.9,24.4,15.1l9.3-4.7
	v291.9c0,9.3,7,16.3,16.3,16.3h2.3l0,0h238.4V268.9h115.1V512h53.5l0,0h2.3c9.3,0,16.3-7,16.3-16.3V202.6l9.3,4.7
	c11.6,5.8,24.4-2.3,24.4-15.1v-4.7C512.9,182.8,509.5,177,503.6,173.5z M208.2,289.8v100H105.9v-100H208.2z"/>
</svg>
