<?xml version="1.0" encoding="utf-8"?>
<!-- Generator: Adobe Illustrator 23.0.4, SVG Export Plug-In . SVG Version: 6.00 Build 0)  -->
<svg version="1.1" id="Layer_1" xmlns="http://www.w3.org/2000/svg" xmlns:xlink="http://www.w3.org/1999/xlink" x="0px" y="0px"
	 viewBox="0 0 512 512" style="enable-background:new 0 0 512 512;" xml:space="preserve">
<path d="M359.9,0c-73.3,0-134.2,59.7-134.2,133c0,22.4,6.2,44.7,16.2,63.4L28.1,412.6c-13.7,13.7-13.7,37.3,0,51
	c7.5,7.5,16.2,11.2,26.1,11.2c8.7,0,18.6-3.7,26.1-11.2l11.2-11.2l49.7,49.7c7.5,7.5,16.2,9.9,24.9,9.9s18.6-3.7,24.9-9.9
	c13.7-13.7,13.7-36,0-49.7l-49.7-49.7l16.2-16.2l49.7,49.7c7.5,7.5,16.2,9.9,24.9,9.9s18.6-3.7,24.9-9.9c13.7-13.7,13.7-36,0-49.7
	l-49.7-49.7l87-87c19.9,11.2,42.3,18.6,67.1,18.6c73.3,0,133-59.7,133-133C494.1,59.7,434.5,0,359.9,0z M359.9,193.9
	c-33.6,0-60.9-27.3-60.9-60.9s27.3-60.9,60.9-60.9c33.6,0,60.9,27.3,60.9,60.9C422.1,166.5,394.7,193.9,359.9,193.9z"/>
</svg>
