<?xml version="1.0" encoding="utf-8"?>
<!-- Generator: Adobe Illustrator 23.0.4, SVG Export Plug-In . SVG Version: 6.00 Build 0)  -->
<svg version="1.1" id="Layer_1" xmlns="http://www.w3.org/2000/svg" xmlns:xlink="http://www.w3.org/1999/xlink" x="0px" y="0px"
	 viewBox="0 0 512 512" style="enable-background:new 0 0 512 512;" xml:space="preserve">
<path d="M52,212.2h52c6.8,0,12.3-5.5,12.3-12.3s-5.5-12.3-12.3-12.3H52c-6.8,0-12.3,5.5-12.3,12.3S45.2,212.2,52,212.2z
	 M156.1,212.2h52c6.8,0,12.3-5.5,12.3-12.3s-5.5-12.3-12.3-12.3h-52c-6.8,0-12.3,5.5-12.3,12.3S149.2,212.2,156.1,212.2z
	 M409.3,206.7V178l8.2-5.5c1.4,2.7,2.7,5.5,6.8,6.8c5.5,1.4,11-1.4,13.7-5.5c1.4-5.5-1.4-11-5.5-13.7c-1.4,0-2.7,0-2.7,0l0,0l0,0
	c1.4-5.5-1.4-11-5.5-13.7c-5.5-1.4-11,1.4-13.7,5.5c-1.4,4.1,0,6.8,1.4,9.6l-12.3,8.2H397V97.2c0,0,2.7-30.1,23.3-30.1
	s23.3,21.9,23.3,35.6h20.5c0-41.1-21.9-56.1-43.8-56.1c-31.5,0-42.4,31.5-43.8,49.3v73.9h-1.4l-12.3-8.2c2.7-2.7,2.7-6.8,1.4-9.6
	c-1.4-5.5-8.2-8.2-13.7-5.5c-5.5,1.4-8.2,8.2-5.5,13.7l0,0l0,0c-1.4,0-2.7,0-2.7,0c-5.5,1.4-8.2,8.2-5.5,13.7
	c1.4,5.5,8.2,8.2,13.7,5.5c2.7-1.4,5.5-4.1,6.8-6.8l8.2,5.5v28.7h-86.2V512H512V206.7H409.3z M361.4,279.3
	c-8.2,0-16.4-6.8-16.4-16.4c0-8.2,6.8-16.4,16.4-16.4c8.2,0,16.4,6.8,16.4,16.4C377.8,272.4,371,279.3,361.4,279.3z M417.5,279.3
	c-8.2,0-16.4-6.8-16.4-16.4c0-8.2,6.8-16.4,16.4-16.4c8.2,0,16.4,6.8,16.4,16.4C434,272.4,425.8,279.3,417.5,279.3z M224.5,224.5H37
	c-20.5,0-37,16.4-37,37V308h260.1v-46.5C260.1,240.9,245,224.5,224.5,224.5z M47.9,279.3c-8.2,0-16.4-6.8-16.4-16.4
	c0-8.2,6.8-16.4,16.4-16.4c8.2,0,16.4,6.8,16.4,16.4C63,272.4,56.1,279.3,47.9,279.3z M102.7,279.3c-8.2,0-16.4-6.8-16.4-16.4
	c0-8.2,6.8-16.4,16.4-16.4c8.2,0,16.4,6.8,16.4,16.4C119.1,272.4,112.3,279.3,102.7,279.3z M158.8,279.3c-8.2,0-16.4-6.8-16.4-16.4
	c0-8.2,6.8-16.4,16.4-16.4c8.2,0,16.4,6.8,16.4,16.4C173.9,272.4,167,279.3,158.8,279.3z M213.6,279.3c-8.2,0-16.4-6.8-16.4-16.4
	c0-8.2,6.8-16.4,16.4-16.4c8.2,0,16.4,6.8,16.4,16.4C230,272.4,223.1,279.3,213.6,279.3z M0,475c0,20.5,16.4,37,37,37h187.6
	c20.5,0,37-16.4,37-37v-152H1.4L0,475L0,475z M54.8,351.8h152c6.8,0,12.3,5.5,12.3,12.3c0,6.8-5.5,12.3-12.3,12.3h-152
	c-6.8,0-12.3-5.5-12.3-12.3C42.4,357.3,47.9,351.8,54.8,351.8z"/>
</svg>
