<?xml version="1.0" encoding="utf-8"?>
<!-- Generator: Adobe Illustrator 23.0.3, SVG Export Plug-In . SVG Version: 6.00 Build 0)  -->
<svg version="1.1" id="Layer_1" xmlns="http://www.w3.org/2000/svg" xmlns:xlink="http://www.w3.org/1999/xlink" x="0px" y="0px"
	 viewBox="0 0 50 50" style="enable-background:new 0 0 50 50;" xml:space="preserve">
<style type="text/css">
	.st0{fill:#231F20;}
</style>
<g>
	<path class="st0" d="M25,6.1h1.4v5.4H25V6.1z M25,21c0.4,0.1,0.8,0.2,1.2,0.3c0.1,0,0.2,0,0.2,0.1v-4.7H25V21z M50,25
		c0,13.8-11.2,25-25,25S0,38.8,0,25S11.2,0,25,0S50,11.2,50,25z M30.4,15.6c0.6,0.6,1.1,1.4,1.4,2.4c0.1,0.4,0.1,0.8,0.2,1.3h6.3
		c0-1-0.2-1.9-0.5-2.9c-1.4-3.7-3.9-6.1-7.5-7.1V15.6z M21.1,34.4c-1.4-1-2.4-2.3-2.7-3.9c-0.1-0.4-0.2-0.8-0.2-1.3h-6.7v0.1
		c0,0.8,0.1,1.7,0.2,2.4c1.2,4.5,4.5,7.7,9.4,8.8V34.4z M29.2,30.1c-0.7-0.4-1.1-0.6-2.6-1l-0.1,3.6H25v-3.8
		c-0.6-0.1-0.6-0.2-1.1-0.4c-0.5-0.1-1.1-0.2-1.5-0.4v17.3h6.8V30.1z M38.6,31.3c0-2.7-1-4.9-2.9-6.4c-1.9-1.6-4.2-2.2-6.5-2.9V4.4
		h-6.8v0.1v15.6c-1.2-0.6-1.9-1.3-1.9-2.7c0-0.7,0.2-1.4,0.7-2V9.2c-4.9,1.3-7.9,4.6-7.9,9.2c0,2.1,0.8,4,2.3,5.4
		c2.3,2.1,4.8,2.7,7.7,3.5l1.8,0.5c3.9,1,6.2,1.5,6.2,4.3c0,0.8-0.4,1.7-1,2.3v6.3C35.5,39.2,38.6,35.6,38.6,31.3z M25,43.3h1.4
		v-5.2H25V43.3z"/>
</g>
</svg>
