<?xml version="1.0" encoding="utf-8"?>
<!-- Generator: Adobe Illustrator 23.0.4, SVG Export Plug-In . SVG Version: 6.00 Build 0)  -->
<svg version="1.1" id="Layer_1" xmlns="http://www.w3.org/2000/svg" xmlns:xlink="http://www.w3.org/1999/xlink" x="0px" y="0px"
	 viewBox="0 0 512 512" style="enable-background:new 0 0 512 512;" xml:space="preserve">
<path d="M256,62.5h14.3v55.3H256V62.5z M256,215c4.1,1,8.2,2,12.3,3.1c1,0,2,0,2,1V171H256V215z M512,256c0,141.3-114.7,256-256,256
	S0,397.3,0,256S114.7,0,256,0S512,114.7,512,256z M311.3,159.7c6.1,6.1,11.3,14.3,14.3,24.6c1,4.1,1,8.2,2,13.3h64.5
	c0-10.2-2-19.5-5.1-29.7c-14.3-37.9-39.9-62.5-76.8-72.7v64.5H311.3z M216.1,352.3c-14.3-10.2-24.6-23.6-27.6-39.9
	c-1-4.1-2-8.2-2-13.3h-68.6v1c0,8.2,1,17.4,2,24.6c12.3,46.1,46.1,78.8,96.3,90.1C216.1,414.7,216.1,352.3,216.1,352.3z M299,308.2
	c-7.2-4.1-11.3-6.1-26.6-10.2l-1,36.9H256v-38.9c-6.1-1-6.1-2-11.3-4.1c-5.1-1-11.3-2-15.4-4.1v177.2H299V308.2z M395.3,320.5
	c0-27.6-10.2-50.2-29.7-65.5c-19.5-16.4-43-22.5-66.6-29.7V45.1h-69.6v1v159.7c-12.3-6.1-19.5-13.3-19.5-27.6c0-7.2,2-14.3,7.2-20.5
	V94.2c-50.2,13.3-80.9,47.1-80.9,94.2c0,21.5,8.2,41,23.6,55.3c23.6,21.5,49.2,27.6,78.8,35.8l18.4,5.1c39.9,10.2,63.5,15.4,63.5,44
	c0,8.2-4.1,17.4-10.2,23.6v64.5C363.5,401.4,395.3,364.5,395.3,320.5z M256,443.4h14.3v-53.2H256V443.4z"/>
</svg>
