<?xml version="1.0" encoding="utf-8"?>
<!-- Generator: Adobe Illustrator 23.0.4, SVG Export Plug-In . SVG Version: 6.00 Build 0)  -->
<svg version="1.1" id="Layer_1" xmlns="http://www.w3.org/2000/svg" xmlns:xlink="http://www.w3.org/1999/xlink" x="0px" y="0px"
	 viewBox="0 0 512 512" style="enable-background:new 0 0 512 512;" xml:space="preserve">
<title>map-marker</title>
<path d="M256,0L256,0C164.9,3.1,93.2,78.8,96.3,169c0,37.9,22.5,99.3,69.6,187.4c32.8,62.5,65.5,114.7,66.6,116.7L256,512l23.6-37.9
	c1-2,33.8-54.3,66.6-116.7c47.1-88.1,69.6-149.5,69.6-187.4C418.8,78.8,347.1,3.1,256,0z M256,255c-47.1,0-85-37.9-85-85
	s37.9-85,85-85s85,37.9,85,85S303.1,255,256,255z"/>
</svg>
