<?xml version="1.0" encoding="utf-8"?>
<!-- Generator: Adobe Illustrator 23.0.2, SVG Export Plug-In . SVG Version: 6.00 Build 0)  -->
<svg version="1.1" id="Layer_1" xmlns="http://www.w3.org/2000/svg" xmlns:xlink="http://www.w3.org/1999/xlink" x="0px" y="0px"
	 viewBox="0 0 50 50" style="enable-background:new 0 0 50 50;" xml:space="preserve">
<style type="text/css">
	.st0{fill:#231F20;}
</style>
<path class="st0" d="M39.1,20.2c0-7.7-6.6-14-14.7-14s-14.7,6.3-14.7,14c0,2.6,0.8,5.1,2.1,7.2l0,0c1.2,1.8,2.4,3.6,3.7,5.4
	c2.5,3.3,4.5,6.6,5.8,10.5c0.6,1.7,1.1,3.5,1.6,5.3c0,0.2,0.1,0.4,0.1,0.5c0.2,0.5,0.7,0.8,1.3,0.8c0.6,0,1.1-0.4,1.4-0.9
	c0.1-0.1,0.1-0.3,0.1-0.4c0.5-1.8,1-3.7,1.6-5.4c1.3-3.9,3.3-7.2,5.8-10.5c1.3-1.7,2.5-3.6,3.7-5.4l0,0
	C38.3,25.4,39.1,22.9,39.1,20.2z M18.9,29.3c0,0-0.9,0.7-2.1-0.4c-1.1-1.1-0.2-2,0.1-2.4l3-2.8c0.1,0,0.2,0,0.4,0
	c0.4,0,0.8-0.1,1.2-0.1c0.3-0.1,0.6-0.1,0.9-0.1c0.1,0,0.1,0,0.2,0c0.7,0,1.2,0.2,1.5,0.3L18.9,29.3z M32.2,29.5
	c-0.3,0.3-0.6,0.4-0.9,0.4c-0.6,0-1.1-0.5-1.3-0.7l-5-5.8c0,0-0.9-0.8-2.5-0.8c-0.1,0-0.1,0-0.2,0c-0.7,0-1.4,0.3-2.1,0.3
	c-0.5,0-0.9-0.1-1.3-0.6l-4-5.6c0,0-1.1-2,0.6-5c0,0,0.3-0.3,0.5-0.3c0.1,0,0.2,0,0.3,0.1l16.1,16.1C32.5,27.6,33.2,28.6,32.2,29.5z
	 M35.8,15.8l-5,5.3C29,22.5,27,20.9,27,20.9s-0.6-0.6-2.1-2.1s-0.2-3.9-0.2-3.9l5.1-5c0,0,0.7-0.5,1.1-0.1s-0.1,1.1-0.1,1.1
	l-4.2,4.4c0,0-0.6,0.6,0,1.2c0.7,0.7,1.3,0.2,1.3,0.2l4.5-4.4c0,0,0.7-0.5,1.2-0.1c0.5,0.5-0.1,1.1-0.1,1.1l-4.2,4.5
	c0,0-0.5,0.6,0.1,1.2s1.1,0.2,1.1,0.2s4.4-4.4,4.5-4.4c0,0,0.7-0.4,1,0C36.3,15.2,35.8,15.8,35.8,15.8z"/>
</svg>
