<?xml version="1.0" encoding="utf-8"?>
<!-- Generator: Adobe Illustrator 23.0.4, SVG Export Plug-In . SVG Version: 6.00 Build 0)  -->
<svg version="1.1" id="Layer_1" xmlns="http://www.w3.org/2000/svg" xmlns:xlink="http://www.w3.org/1999/xlink" x="0px" y="0px"
	 viewBox="0 0 512 512" style="enable-background:new 0 0 512 512;" xml:space="preserve">
<path d="M511.8,408.4c-1.1-10.2-6.8-18.2-13.7-22.8c3.4-19.4-5.7-36.4-23.9-43.3c-3.4-1.1-6.8-2.3-11.4-2.3
	c-14.8,0-26.2,9.1-34.2,14.8c-1.1,1.1-2.3,2.3-3.4,2.3c-9.1-1.1-29.6-5.7-45.6-11.4l-23.9-6.8c-11.4-8-22.8-13.7-36.4-22.8
	c-22.8-12.5-46.7-26.2-66.1-43.3c-18.2-15.9-35.3-30.7-56.9-41c-31.9-14.8-64.9-18.2-99.1-18.2v2.3c-45.6,6.8-83.1,103.6-93.4,151.5
	c-3.4,15.9-4.6,33-3.4,49c1.1,14.8,2.3,30.7,6.8,45.6c2.3,6.8,4.6,11.4,8,15.9c8,10.2,20.5,15.9,34.2,21.6c11.4,4.6,22.8,8,34.2,9.1
	c15.9,3.4,46.7,2.3,60.4,3.4c22.8,0,35.3-9.1,52.4-22.8c41-33,88.8-46.7,140.1-45.6c9.1,0,17.1-1.1,23.9-3.4l0,0l20.5-1.1
	c0,0,34.2-2.3,51.2-2.3c4.6,0,5.7,0,5.7,0c1.1,0,5.7,3.4,9.1,4.6c9.1,4.6,19.4,11.4,33,11.4l0,0l0,0c12.5,0,20.5-5.7,23.9-10.2
	C514.1,430,511.8,414.1,511.8,408.4z M162.1,400.4c-11.4,27.3-34.2,79.7-69.5,83.1c-1.1,0-3.4,0-4.6,0c-9.1,0-18.2-2.3-29.6-6.8
	c-11.4-4.6-20.5-8-23.9-13.7c-1.1-2.3-2.3-3.4-3.4-6.8c-2.3-11.4-4.6-23.9-5.7-39.9c-1.1-14.8,0-29.6,2.3-42.1
	c13.7-63.8,52.4-131,74-131c17.1,2.3,42.1,19.4,58.1,46.7C173.5,312.7,183.8,350.3,162.1,400.4z M478.8,431.1L478.8,431.1
	c-12.5,0-27.3-13.7-37.6-15.9c-2.3,0-5.7,0-9.1,0c-11.4,0-29.6,1.1-41,2.3c2.3-3.4,4.6-8,5.7-12.5c4.6-13.7,2.3-21.6-4.6-30.7
	c12.5,3.4,27.3,6.8,35.3,6.8c2.3,0,3.4,0,4.6,0c8-3.4,20.5-18.2,31.9-18.2c1.1,0,2.3,0,3.4,1.1c11.4,4.6,11.4,14.8,9.1,21.6
	c-2.3,6.8-18.2,10.2-18.2,10.2s30.7,2.3,31.9,15.9C491.3,418.6,491.3,430,478.8,431.1z M82.4,416.3c-21.6,1.1-5.7-17.1-6.8-31.9
	c-17.1-25.1-29.6,8-30.7,23.9c-1.1,15.9-3.4,33,11.4,41C79,463,93.8,459.6,110.9,438C129.1,414.1,99.5,416.3,82.4,416.3z
	 M134.8,295.6c-6.8-6.8-15.9-13.7-25.1-11.4c-14.8,3.4-42.1,27.3-41,41c-2.3,3.4,11.4,17.1,14.8,21.6c9.1,10.2,10.2,15.9,10.2,29.6
	c0,13.7,2.3,12.5,14.8,18.2c8,4.6,17.1,5.7,26.2,1.1c19.4-11.4,8-31.9,10.2-50.1C147.3,330.9,149.6,309.3,134.8,295.6z"/>
</svg>
