<?xml version="1.0" encoding="utf-8"?>
<!-- Generator: Adobe Illustrator 24.0.2, SVG Export Plug-In . SVG Version: 6.00 Build 0)  -->
<svg version="1.1" id="Layer_2_1_" xmlns="http://www.w3.org/2000/svg" xmlns:xlink="http://www.w3.org/1999/xlink" x="0px" y="0px"
	 viewBox="0 0 512 512" style="enable-background:new 0 0 512 512;" xml:space="preserve">
<path d="M148.6,151.4C134.1,121.2,111.9,87,101.9,49c-4.6-17.8-8.2-34.4-11-49h106.2c1.7,7.8,3.7,15.9,5.9,24.4
	c8.1,30.6,27.9,58,39.2,81.7c-35,3.3-67.5,18.8-92.6,44.2C149.2,150.7,148.9,151,148.6,151.4z M386,256
	c1.1,72.7-56.8,130.6-129.4,130.7c-71.5,0-130.6-59-130.6-130.6c0-32.9,12.1-62.8,32.1-85.7c23.2-26.6,56.8-43.7,94.1-44.9
	c0.7-0.1,1.4-0.1,2.1-0.1c0,0,1.8,0,2.1,0c37.6,0.3,71.6,16.6,95.4,42.5C373,191,386,221.9,386,256z M312.2,288.9
	c0-6.7-0.7-12.8-2.2-18.4c-1.5-5.6-3.8-10.9-7.1-15.8c-3.2-4.9-7.8-8.9-13.7-12.1c-5.9-3.2-12.9-5.3-21.2-6.2l35-39.5
	c2.1-2.4,3.2-5.1,3.2-8.2c0-3.4-1.2-6.2-3.6-8.6c-2.4-2.4-5.3-3.6-8.6-3.6h-76.7c-3.4,0-6.3,1.2-8.7,3.6c-2.4,2.4-3.6,5.3-3.6,8.6
	c0,3.4,1.2,6.3,3.6,8.7c2.4,2.4,5.3,3.6,8.7,3.6h48.2l-33.8,38.4c-2.1,2.6-3.2,5.4-3.2,8.4c0,3.4,1.2,6.3,3.8,8.8
	c2.5,2.4,5.6,3.6,9.3,3.6h14.9c19,0,28.5,9.6,28.5,28.7c0,8.7-2.7,15.5-8,20.4c-5.3,4.9-13.2,7.4-23.7,7.4c-7.3,0-13.4-1.4-18.5-4.1
	c-5-2.7-9.9-6.7-14.5-11.9c-3.8-4.1-7.6-6.2-11.5-6.2c-3.4,0-6.4,1.3-8.9,3.8c-2.5,2.5-3.8,5.5-3.8,9c0,2.7,0.7,5,2.1,7.1
	c5.5,7.8,13,14.2,22.7,19.2c9.6,5,20.4,7.5,32.3,7.5c19.4,0,34.1-4.5,44.1-13.6C307.2,318.6,312.2,305.6,312.2,288.9z M311.5,0
	c-1.6,7.2-3.4,14.8-5.5,22.7c-8.1,31.2-28,59.1-39.4,83.1c16.3,1.2,32.1,5,47.2,11.3c17.8,7.5,33.8,18.2,47.5,31.8
	C375.2,119.4,397,86,406.6,49c4.6-17.8,8.2-34.4,11-49H311.5z"/>
</svg>
