<?xml version="1.0" encoding="utf-8"?>
<!-- Generator: Adobe Illustrator 24.0.1, SVG Export Plug-In . SVG Version: 6.00 Build 0)  -->
<svg version="1.1" id="Layer_2" xmlns="http://www.w3.org/2000/svg" xmlns:xlink="http://www.w3.org/1999/xlink" x="0px" y="0px"
	 viewBox="0 0 512 512" style="enable-background:new 0 0 512 512;" xml:space="preserve">
<style type="text/css">
	.st0{fill:#1D1D1B;}
</style>
<path class="st0" d="M111.9,49c-4.6-17.8-8.2-34.4-11-49h106.2c1.7,7.8,3.7,15.9,5.9,24.4c8.1,30.6,17.9,58,29.2,81.7
	c-35,3.3-67.5,18.8-92.6,44.2c-0.4,0.4-0.7,0.7-1,1.1C134.1,121.2,121.9,87,111.9,49z M266.6,105.8c16.3,1.2,32.1,5,47.2,11.3
	c17.8,7.5,33.8,18.2,47.5,31.8C375.2,119.4,387,86,396.6,49c4.6-17.8,8.2-34.4,11-49H301.5c-1.6,7.2-3.4,14.8-5.5,22.7
	C287.9,53.9,278,81.8,266.6,105.8z M386,256c0-34.1-13-65-34.2-88.1c-23.8-25.9-57.8-42.2-95.4-42.5c-0.3,0-2.1,0-2.1,0
	c-0.7,0-1.4,0-2.1,0.1c-37.3,1.2-70.9,18.3-94.1,44.9c-20,22.9-32.1,52.8-32.1,85.7c0,71.6,59.1,130.6,130.6,130.6
	C329.2,386.6,387.1,328.7,386,256z M308.6,307.4c-4.4,7.7-10.6,13.5-18.8,17.7s-19,6.2-32.3,6.2c-13,0-23.3-1.5-30.8-4.6
	s-13.7-7.5-18.6-13.4c-4.9-5.9-8.6-13.3-11.2-22.2l39.7-5.3c1.6,8,4,13.6,7.3,16.7c3.3,3.1,7.5,4.6,12.5,4.6c5.3,0,9.8-2,13.3-5.9
	c3.5-3.9,5.3-9.1,5.3-15.6c0-6.6-1.7-11.8-5.1-15.4c-3.4-3.6-8.1-5.5-13.9-5.5c-3.1,0-7.4,0.8-12.9,2.3l2.1-28.4
	c2.2,0.3,3.9,0.5,5.2,0.5c5.2,0,9.6-1.7,13-5c3.5-3.3,5.2-7.3,5.2-11.8c0-4.4-1.3-7.8-3.9-10.4c-2.6-2.6-6.2-3.9-10.7-3.9
	c-4.7,0-8.5,1.4-11.4,4.2s-4.9,7.8-6,14.9l-37.6-6.7c3.1-12,9.1-21.2,18-27.5c8.9-6.4,21.5-9.6,37.7-9.6c18.7,0,32.2,3.5,40.5,10.4
	c8.3,7,12.5,15.7,12.5,26.3c0,6.2-1.7,11.8-5.1,16.8c-3.4,5-8.5,9.4-15.3,13.2c5.5,1.4,9.8,3,12.7,4.8c4.8,2.9,8.4,6.8,11.1,11.6
	s4,10.5,4,17.1C315.1,291.7,312.9,299.7,308.6,307.4z"/>
</svg>
