<?xml version="1.0" encoding="utf-8"?>
<!-- Generator: Adobe Illustrator 23.0.4, SVG Export Plug-In . SVG Version: 6.00 Build 0)  -->
<svg version="1.1" id="Layer_1" xmlns="http://www.w3.org/2000/svg" xmlns:xlink="http://www.w3.org/1999/xlink" x="0px" y="0px"
	 viewBox="0 0 512 512" style="enable-background:new 0 0 512 512;" xml:space="preserve">
<path d="M361.1,171.5c-83.3,0-152.2,67.6-152.2,152.2c0,1.2,0,2.4,0,2.4h31.4c1.2,0,2.4,0,3.6,0c0-1.2,0-2.4,0-3.6
	c0-61.6,47.1-111.1,107.5-115.9v231.8c-4.8,0-8.5-1.2-13.3-1.2c-1.2,12.1-4.8,22.9-10.9,33.8c10.9,2.4,21.7,3.6,32.6,3.6
	c83.3,0,152.2-67.6,152.2-152.2C512,239.1,444.4,171.5,361.1,171.5z M369.5,438.3V206.5c60.4,4.8,107.5,54.3,107.5,115.9
	S429.9,434.7,369.5,438.3z M240.3,338.1H86.9C38.6,338.1,0,376.8,0,425.1S38.6,512,86.9,512h153.4c48.3,0,86.9-38.6,86.9-86.9
	S288.6,338.1,240.3,338.1z M275.3,400.9c-1.2,2.4-4.8,3.6-7.2,3.6c-2.4,0-3.6-1.2-6-2.4c-13.3-10.9-30.2-10.9-31.4-10.9H163V477
	H86.9C58,477,35,454,35,425.1c0-29,22.9-51.9,51.9-51.9h143.7c1.2,0,24.2-1.2,43.5,14.5C277.7,391.2,277.7,397.3,275.3,400.9z"/>
</svg>
