<?xml version="1.0" encoding="utf-8"?>
<!-- Generator: Adobe Illustrator 23.0.4, SVG Export Plug-In . SVG Version: 6.00 Build 0)  -->
<svg version="1.1" id="Layer_1" xmlns="http://www.w3.org/2000/svg" xmlns:xlink="http://www.w3.org/1999/xlink" x="0px" y="0px"
	 viewBox="0 0 512 512" style="enable-background:new 0 0 512 512;" xml:space="preserve">
<path d="M239.1,116.5c0,0-19.3-50.1-61.6,28.3l-2.6,5.1c-42.4,77,14.1,60.4,14.1,60.4s-127.1,113-23.1,169.5l3.9,2.6
	C273.8,440.1,296.9,277,296.9,277s18,48.8,60.4-28.3l2.6-5.1c42.4-77-6.4-66.8-6.4-66.8s122-106.6,18-163.1l-2.6-1.3
	C263.5-45.3,239.1,116.5,239.1,116.5z M343.1,165.3c-12.8,12.8-36,50.1-36,50.1l-2.6,5.1c0,0-19.3,38.5-23.1,56.5
	c-3.9,18-12.8,100.2-86,60.4l-6.4-2.6c-73.2-41.1-9-92.5,5.1-105.3c12.8-12.8,36-50.1,36-50.1l3.9-6.4c0,0,19.3-38.5,23.1-56.5
	c3.9-18,12.8-100.2,86-60.4l6.4,2.6C421.4,99.8,357.2,152.4,343.1,165.3z M267.3,179.4c2.6-5.1,3.9-9,5.1-14.1
	c1.3-5.1,2.6-9,3.9-14.1c1.3-3.9,2.6-9,2.6-12.8c1.3-7.7,1.3-14.1,1.3-19.3s0-7.7,0-7.7l-79.6,142.5c0,0,10.3-5.1,21.8-15.4
	c6.4-5.1,12.8-11.6,19.3-19.3c6.4-7.7,12.8-16.7,18-25.7C263.5,188.4,266.1,183.3,267.3,179.4z M311,156.3c-3.9,2.6-6.4,5.1-9,9
	c-3.9,3.9-6.4,6.4-10.3,10.3c-2.6,3.9-6.4,7.7-9,12.8c-2.6,3.9-5.1,9-7.7,14.1c-5.1,9-9,19.3-12.8,28.3c-2.6,9-5.1,18-6.4,27
	c-2.6,15.4-1.3,27-1.3,27l75.8-141.3c0,0-2.6,1.3-6.4,3.9C322.6,147.3,317.4,151.2,311,156.3z M386.8,470.9h-262l-77-439.2H5.4
	L88.9,512h332.6l83.5-480.3h-42.4L386.8,470.9z"/>
</svg>
