<?xml version="1.0" encoding="utf-8"?>
<!-- Generator: Adobe Illustrator 23.0.2, SVG Export Plug-In . SVG Version: 6.00 Build 0)  -->
<svg version="1.1" id="Layer_1" xmlns="http://www.w3.org/2000/svg" xmlns:xlink="http://www.w3.org/1999/xlink" x="0px" y="0px"
	 viewBox="0 0 50 50" style="enable-background:new 0 0 50 50;" xml:space="preserve">
<style type="text/css">
	.st0{fill:#231F20;}
</style>
<path class="st0" d="M5.3,50h18.2V33.8H5.3V50z M15.2,44h-1.7v-2h1.7V44z M8.1,37.3h12.5v2H8.1V37.3z M26.5,22.9V50h18.2V22.9H26.5z
	 M35.4,45.7c-1.7,0-3-1.4-3-3c0-1.7,1.4-3,3-3c1.7,0,3,1.4,3,3C38.5,44.4,37.1,45.7,35.4,45.7z M35.4,38c-3.6,0-6.4-2.9-6.4-6.4
	c0-3.6,2.9-6.4,6.4-6.4c3.6,0,6.4,2.9,6.4,6.4C41.9,35.1,39,38,35.4,38z M35.4,29.4c1.2,0,2.2,1,2.2,2.2c0,1.2-1,2.2-2.2,2.2
	s-2.2-1-2.2-2.2C33.2,30.4,34.2,29.4,35.4,29.4z"/>
</svg>
