<?xml version="1.0" encoding="utf-8"?>
<!-- Generator: Adobe Illustrator 23.0.4, SVG Export Plug-In . SVG Version: 6.00 Build 0)  -->
<svg version="1.1" id="Layer_1" xmlns="http://www.w3.org/2000/svg" xmlns:xlink="http://www.w3.org/1999/xlink" x="0px" y="0px"
	 viewBox="0 0 512 512" style="enable-background:new 0 0 512 512;" xml:space="preserve">
<path d="M0,512h236.5V301.5H0V512z M128.6,434h-22.1v-26h22.1V434z M36.4,347h162.4v26H36.4V347z M275.5,159.8V512H512V159.8H275.5z
	 M391.1,456.1c-22.1,0-39-18.2-39-39c0-22.1,18.2-39,39-39c22.1,0,39,18.2,39,39C431.4,439.2,413.2,456.1,391.1,456.1z M391.1,356.1
	c-46.8,0-83.2-37.7-83.2-83.2c0-46.8,37.7-83.2,83.2-83.2c46.8,0,83.2,37.7,83.2,83.2C475.6,318.4,437.9,356.1,391.1,356.1z
	 M391.1,244.3c15.6,0,28.6,13,28.6,28.6s-13,28.6-28.6,28.6c-15.6,0-28.6-13-28.6-28.6C362.6,257.3,375.6,244.3,391.1,244.3z"/>
</svg>
