<?xml version="1.0" encoding="utf-8"?>
<!-- Generator: Adobe Illustrator 23.0.2, SVG Export Plug-In . SVG Version: 6.00 Build 0)  -->
<svg version="1.1" id="Layer_1" xmlns="http://www.w3.org/2000/svg" xmlns:xlink="http://www.w3.org/1999/xlink" x="0px" y="0px"
	 viewBox="0 0 50 50" style="enable-background:new 0 0 50 50;" xml:space="preserve">
<style type="text/css">
	.st0{fill:#231F20;}
</style>
<path class="st0" d="M46.6,35.3V4.1h-5.2l0,0l0,0h-0.1v0.1c-8.2,4.5-20.9,5.2-21.2,5.2h-5.2v26.7c-1.8-0.2-3.9,0.1-6,1.1
	c-4.4,2.1-6.7,6.5-5.1,9.7s6.4,4.1,10.8,2c3.8-1.8,6-5.3,5.6-8.3V18.4c1.2-0.1,13.2-0.8,21.1-5.2v17.6c-1.8-0.2-3.9,0.1-6,1.1
	c-4.4,2.1-6.7,6.5-5.1,9.7c1.6,3.2,6.4,4.1,10.8,2C44.8,41.8,47.1,38.3,46.6,35.3z"/>
</svg>
