<?xml version="1.0" encoding="utf-8"?>
<!-- Generator: Adobe Illustrator 23.0.4, SVG Export Plug-In . SVG Version: 6.00 Build 0)  -->
<svg version="1.1" id="Layer_1" xmlns="http://www.w3.org/2000/svg" xmlns:xlink="http://www.w3.org/1999/xlink" x="0px" y="0px"
	 viewBox="0 0 512 512" style="enable-background:new 0 0 512 512;" xml:space="preserve">
<path d="M512,255.6c0,0.1,0,0.3,0,0.4c0,4.2-1.6,8.4-4.8,11.7c0,0,0,0,0,0l-60.9,60.9c-6.4,6.4-16.9,6.4-23.3,0s-6.4-16.9,0-23.3
	l33.7-33.7l-183.8,0.3l-0.6,184l33-33c6.4-6.4,16.9-6.4,23.3,0c6.4,6.4,6.4,16.9,0,23.3l-60.9,60.9c-0.4,0.4-0.8,0.8-1.3,1.1
	c-3,2.5-6.7,3.7-10.4,3.7c-1.8,0-3.5-0.3-5.2-0.9c-5.6-1.2-8.6-4.4-10.1-7.7l-57.2-57.2c-6.4-6.4-6.4-16.9,0-23.3s16.9-6.4,23.3,0
	l32.2,32.2l0.3-183.1l-182.9,0.5l32.7,32.7c6.4,6.4,6.4,16.9,0,23.3c-6.4,6.4-16.9,6.4-23.3,0L7.4,270.2c-2.9-1.8-5.7-4.8-6.8-10
	C0.2,258.9,0,257.4,0,256c0-0.6,0-1.2,0.1-1.8c0.4-5.4,3.3-10,7.6-12.7l58.1-58.1c6.4-6.4,16.9-6.4,23.3,0s6.4,16.9,0,23.3L57,238.8
	l182.3-0.3l0.3-182.3l-32.8,32.8c-6.4,6.4-16.9,6.4-23.3,0c-6.4-6.4-6.4-16.9,0-23.3l60.9-60.9c0.4-0.4,0.8-0.8,1.3-1.1
	c0.2-0.2,0.5-0.4,0.7-0.6c2.7-2,6-3.3,9.6-3.4c6.4-0.2,12,3.2,15,8.4l57.6,57.6c6.4,6.4,6.4,16.9,0,23.3s-16.9,6.4-23.3,0L273.1,57
	l-0.4,181.4l181.6-0.2l-31.4-31.4c-6.4-6.4-6.4-16.9,0-23.3c6.4-6.4,16.9-6.4,23.3,0l56.1,56.1c5.8,2.6,9.8,8.4,9.6,15.2
	c0,0,0,0.1,0,0.1l0,0.5C512,255.5,512,255.5,512,255.6z"/>
</svg>
