<?xml version="1.0" encoding="utf-8"?>
<!-- Generator: Adobe Illustrator 23.0.2, SVG Export Plug-In . SVG Version: 6.00 Build 0)  -->
<svg version="1.1" id="Layer_1" xmlns="http://www.w3.org/2000/svg" xmlns:xlink="http://www.w3.org/1999/xlink" x="0px" y="0px"
	 viewBox="0 0 50 50" style="enable-background:new 0 0 50 50;" xml:space="preserve">
<style type="text/css">
	.st0{fill:#231F20;}
</style>
<path class="st0" d="M41.5,34.4L41.5,34.4c1.3-1.3,1-2.7,1-2.7s-2.8-7.6-3.9-8.3c-1.1-0.7-2.5-0.1-2.5-0.1l0,0
	c-0.4,0.1-0.7,0.4-0.9,0.7L32,29.5l-3.9-0.3c-0.9-0.1-1.7,0.6-1.8,1.5c-0.1,0.9,0.6,1.7,1.5,1.8l4.9,0.4h0.1c0.6,0,1.1-0.3,1.4-0.8
	l1.4-2.4l2,4.3l-3.4,4.3c-0.2,0.3-0.4,0.7-0.4,1v9.1c0,0.9,0.7,1.6,1.6,1.6c0.9,0,1.6-0.7,1.6-1.6v-8.5L41.5,34.4
	C41.4,34.5,41.4,34.5,41.5,34.4z M47.7,46.5l-4.3-9.1c-0.4-0.8-1.4-1.2-2.2-0.8S40,38,40.4,38.8l4.3,9.1c0.3,0.6,0.9,0.9,1.5,0.9
	c0.2,0,0.5,0,0.7-0.2C47.8,48.3,48.1,47.4,47.7,46.5z M6.6,41.7c-0.2,0.6,0.1,1.3,0.8,1.6l7.3,2.6c0-0.9,0.3-1.7,0.8-2.3L8.1,41
	C7.5,40.7,6.8,41.1,6.6,41.7z M21.4,42.4L27,26.5c0.2-0.6-0.1-1.3-0.8-1.6c-0.6-0.2-1.3,0.1-1.6,0.8l-5.5,15.9
	C20,41.6,20.8,41.9,21.4,42.4z M18.9,42.7c-1.8,0-3.2,1.4-3.2,3.2s1.4,3.2,3.2,3.2s3.2-1.4,3.2-3.2C22.2,44.2,20.7,42.7,18.9,42.7z
	 M18.9,47.5c-0.9,0-1.6-0.7-1.6-1.6c0-0.9,0.7-1.6,1.6-1.6s1.6,0.7,1.6,1.6S19.8,47.5,18.9,47.5z M17.4,20.5l6,2.1l-2.3,6.6l-6-2.1
	L17.4,20.5z M9.2,26.4l11.4,4.1l-4,11.2L5.3,37.6L9.2,26.4z M34,22.8c1.9,0,2.8-1.1,2.8-2.8c0-1.8-0.9-2.8-2.8-2.8
	c-1.9,0-2.8,1-2.8,2.8C31.2,21.7,32.1,22.8,34,22.8z"/>
</svg>
