<?xml version="1.0" encoding="utf-8"?>
<!-- Generator: Adobe Illustrator 23.0.4, SVG Export Plug-In . SVG Version: 6.00 Build 0)  -->
<svg version="1.1" id="Layer_1" xmlns="http://www.w3.org/2000/svg" xmlns:xlink="http://www.w3.org/1999/xlink" x="0px" y="0px"
	 viewBox="0 0 512 512" style="enable-background:new 0 0 512 512;" xml:space="preserve">
<path d="M512,269.6c0-55.4-44.6-99.9-99.9-99.9c-29.7,0-56.7,13.5-75.6,33.8c-12.2-24.3-12.2-54-13.5-86.4
	c-1.4-39.2-1.4-78.3-23-110.7c-4.1-6.8-12.2-8.1-18.9-4.1c-6.8,4.1-8.1,12.2-4.1,18.9c17.6,25.7,17.6,60.8,18.9,97.2
	c1.4,40.5,2.7,83.7,27,116.1c13.5,16.2,25.7,25.7,40.5,35.1l4.1,2.7c24.3,16.2,41.9,28.4,54,48.6c-4.1,1.4-6.8,1.4-10.8,1.4
	c-4.1,0-9.5,0-13.5-1.4h-1.4h-1.4l0,0c-1.4,0-2.7,0-4.1,0c-13.5,0-23,10.8-23,23c0,10.8,8.1,20.3,18.9,23l0,0
	c8.1,2.7,17.6,4.1,25.7,4.1s16.2-1.4,24.3-2.7c0,12.2-1.4,23-5.4,32.4c-8.1,18.9-33.8,32.4-54,27l0,0c0-16.2-4.1-54-41.9-52.7
	c-44.6,2.7-62.1,55.4-64.8,64.8c-13.5,10.8-27,20.3-40.5,20.3l0,0c-13.5,0-23-9.5-35.1-18.9c-1.4-1.4-2.7-2.7-4.1-4.1
	c-8.1-13.5-36.5-58.1-70.2-56.7c-32.4,1.4-35.1,39.2-35.1,54c-4.1,1.4-8.1,1.4-12.2,1.4c-5.4,0-21.6-6.8-27-10.8
	c-17.6-14.9-20.3-27-18.9-55.4c1.4-29.7,12.2-58.1,29.7-72.9c8.1-6.8,16.2-12.2,25.7-18.9c17.6-12.2,35.1-24.3,48.6-43.2
	c21.6-32.4,21.6-68.9,23-104c0-13.5,1.4-27,2.7-39.2c1.4-9.5,4.1-39.2,21.6-66.2c4.1-6.8,2.7-14.9-4.1-18.9
	c-6.8-4.1-14.9-2.7-18.9,4.1c-21.6,32.4-25.7,66.2-25.7,78.3c-1.4,13.5-1.4,28.4-2.7,41.9c-1.4,32.4-1.4,64.8-18.9,89.1
	c-9.5,14.9-24.3,24.3-40.5,35.1c-9.5,6.8-18.9,13.5-28.4,20.3c-23,20.3-37.8,54-39.2,91.8c-1.4,33.8,2.7,55.4,28.4,78.3
	c9.5,8.1,31.1,17.6,43.2,17.6c18.9,1.4,32.4-5.4,43.2-10.8c8.1-4.1,16.2-8.1,28.4-8.1c10.8-1.4,20.3,5.4,33.8,17.6
	c13.5,12.2,29.7,27,52.7,27h1.4c23,0,41.9-14.9,56.7-25.7c18.9-14.9,31.1-23,47.3-18.9c9.5,2.7,14.9,4.1,20.3,6.8
	c4.1,1.4,9.5,4.1,16.2,5.4c33.8,10.8,74.3-9.5,89.1-44.6c6.8-16.2,8.1-35.1,6.8-54C491.7,337.2,512,306.1,512,269.6z M447.2,308.8
	c-16.2-28.4-40.5-44.6-63.5-59.4l-4.1-2.7c-4.1-2.7-8.1-5.4-10.8-6.8c9.5-13.5,25.7-23,43.2-23c29.7,0,52.7,24.3,52.7,52.7
	C464.7,285.8,458,299.3,447.2,308.8z"/>
</svg>
