<?xml version="1.0" encoding="utf-8"?>
<!-- Generator: Adobe Illustrator 24.0.3, SVG Export Plug-In . SVG Version: 6.00 Build 0)  -->
<svg version="1.1" id="Layer_1" xmlns="http://www.w3.org/2000/svg" xmlns:xlink="http://www.w3.org/1999/xlink" x="0px" y="0px"
	 viewBox="0 0 512 512" style="enable-background:new 0 0 512 512;" xml:space="preserve">
<title>zoom-in</title>
<path d="M256,482c-8.3,0-15,6.7-15,15s6.7,15,15,15s15-6.7,15-15S264.3,482,256,482z M256,442c-8.3,0-15-6.7-15-15
	c0-86.2,96.8-184.8,100.9-189c23-23,35.7-53.5,35.7-86S364.9,89,342,66c-23-23-53.5-35.6-86-35.6c-32.5,0-63,12.6-86,35.6
	c-23,23-35.6,53.5-35.6,86c0,8.3-6.7,15-15,15s-15-6.7-15-15c0-40.5,15.8-78.5,44.4-107.2S215.5,0.4,256,0.4s78.5,15.8,107.2,44.4
	c28.6,28.6,44.4,66.7,44.4,107.2s-15.8,78.5-44.4,107.2c-0.2,0.2-23.7,24.1-46.9,57.2C286.7,358.8,271,397.1,271,427
	C271,435.3,264.3,442,256,442z"/>
</svg>
