<?xml version="1.0" encoding="utf-8"?>
<!-- Generator: Adobe Illustrator 23.0.2, SVG Export Plug-In . SVG Version: 6.00 Build 0)  -->
<svg version="1.1" id="Layer_1" xmlns="http://www.w3.org/2000/svg" xmlns:xlink="http://www.w3.org/1999/xlink" x="0px" y="0px"
	 viewBox="0 0 50 50" style="enable-background:new 0 0 50 50;" xml:space="preserve">
<style type="text/css">
	.st0{fill:#231F20;}
</style>
<path class="st0" d="M16.3,33.5c-3.1,0-5.6,2.5-5.6,5.6s2.5,5.6,5.6,5.6s5.6-2.5,5.6-5.6S19.4,33.5,16.3,33.5z M42.3,15.5L19.4,6.3
	l-0.9,2.2l17.1,6.9H9.4c-3.7,0-6.7,3-6.7,6.7v21.2c0,3.7,3,6.7,6.7,6.7h31.8c3.7,0,6.7-3,6.7-6.7V22.1
	C47.8,18.8,45.4,16.1,42.3,15.5z M16.3,46.9c-4.3,0-7.8-3.5-7.8-7.8s3.5-7.8,7.8-7.8s7.8,3.5,7.8,7.8C24.2,43.4,20.7,46.9,16.3,46.9
	z M42.1,25c0,1.8-1.5,3.3-3.3,3.3H17.4v-4.7c0-0.6-0.5-1-1-1c-0.6,0-1,0.5-1,1v4.7h-3.5c-1.8,0-3.3-1.5-3.3-3.3v-1.5
	c0-1.8,1.5-3.3,3.3-3.3h26.9c1.8,0,3.3,1.5,3.3,3.3V25z M15.3,4.6L18.6,6l-0.9,2.2l-3.3-1.4L15.3,4.6z"/>
</svg>
