<?xml version="1.0" encoding="utf-8"?>
<!-- Generator: Adobe Illustrator 24.0.2, SVG Export Plug-In . SVG Version: 6.00 Build 0)  -->
<svg version="1.1" id="Layer_2" xmlns="http://www.w3.org/2000/svg" xmlns:xlink="http://www.w3.org/1999/xlink" x="0px" y="0px"
	 viewBox="0 0 512 512" style="enable-background:new 0 0 512 512;" xml:space="preserve">
<path d="M86.5,380.6l-73.5-22.8c-9.5-2.9-14.8-13-11.8-22.5c2.9-9.5,13-14.8,22.5-11.8l32.1,10C46,308.9,41,282.8,41,256
	c0-115.9,94.3-210.1,210.1-210.1S461.3,140.1,461.3,256S367,466.1,251.1,466.1c-42.1,0-82.7-12.4-117.5-35.9
	c-8.2-5.6-10.4-16.8-4.8-25c5.6-8.2,16.8-10.4,25-4.8c28.8,19.4,62.5,29.7,97.4,29.7c96,0,174.1-78.1,174.1-174.1
	S347.2,81.9,251.1,81.9S77,160,77,256c0,20.7,3.6,41,10.6,60.1l10.6-34c2.9-9.5,13-14.8,22.5-11.8c9.5,2.9,14.8,13,11.8,22.5
	l-23.6,76C109,368.7,104.4,386.5,86.5,380.6z"/>
</svg>
