<?xml version="1.0" encoding="utf-8"?>
<!-- Generator: Adobe Illustrator 23.0.2, SVG Export Plug-In . SVG Version: 6.00 Build 0)  -->
<svg version="1.1" id="Layer_1" xmlns="http://www.w3.org/2000/svg" xmlns:xlink="http://www.w3.org/1999/xlink" x="0px" y="0px"
	 viewBox="0 0 50 50" style="enable-background:new 0 0 50 50;" xml:space="preserve">
<style type="text/css">
	.st0{fill:#231F20;}
</style>
<path class="st0" d="M27.7,19.5l9.6-9.6l-4.8-5.1H16l-5.2,4.9l9.8,9.8c-6.7,1.7-11.8,7.7-11.8,15c0,8.5,6.9,15.4,15.4,15.4
	S39.6,43,39.6,34.5C39.7,27.3,34.6,21.1,27.7,19.5z M24.2,19.1c-0.1,0-0.2,0-0.3,0l-2.7-8.4h6.1l-2.8,8.4
	C24.4,19.1,24.3,19.1,24.2,19.1z M28.2,10.7h5.5L25.4,19L28.2,10.7z M28,8.9l-2.1-2.1h4.2L28,8.9L28,8.9z M26.7,8.9h-4.5l2.1-2.1
	h0.3L26.7,8.9z M21,8.9h-0.4l-2.1-2.1H23L21,8.9z M20.2,10.7l2.7,8.4l-8.4-8.4L20.2,10.7z M33.7,9h-4.4l2.1-2.1h0.3L33.7,9z
	 M16.8,6.8h0.4l2.1,2.1h-4.7L16.8,6.8z M24.2,46c-6.3,0-11.5-5.2-11.5-11.5S17.8,23.1,24,23l0,0l0,0c0,0,0,0,0.1,0
	c6.3,0,11.5,5.1,11.5,11.5C35.7,40.9,30.6,46,24.2,46z"/>
</svg>
