<?xml version="1.0" encoding="utf-8"?>
<!-- Generator: Adobe Illustrator 23.0.2, SVG Export Plug-In . SVG Version: 6.00 Build 0)  -->
<svg version="1.1" id="Layer_1" xmlns="http://www.w3.org/2000/svg" xmlns:xlink="http://www.w3.org/1999/xlink" x="0px" y="0px"
	 viewBox="0 0 50 50" style="enable-background:new 0 0 50 50;" xml:space="preserve">
<path d="M9.4,20.3c0-0.2,0-0.3-0.1-0.5l14.2-7.6c0.4-0.2,0.9-0.2,1.3,0L39.1,20c0,0.1,0,0.1,0,0.2v12h3.1V21.7l0.7,0.4
	c0.9,0.5,2-0.2,2-1.2v-0.4c0-0.5-0.3-0.9-0.7-1.2L24.9,8.7c-0.4-0.2-0.9-0.2-1.3,0L4.1,19.2c-0.4,0.2-0.7,0.7-0.7,1.2v0.4
	c0,1,1.1,1.7,2,1.2l0.9-0.5v23.9c0,0.8,0.6,1.4,1.4,1.4h0.1h0.3H11v-3.1H9.4V20.3z M43.7,35.8c-0.9,0-1.5,0.7-1.5,1.7v5.2h-26V31.4
	c0-0.9-0.7-1.7-1.5-1.7c-0.9,0-1.5,0.7-1.5,1.7V50h3.1v-4.4h26V50h3.1V37.5C45.2,36.6,44.5,35.8,43.7,35.8z M24.8,36.5v4.8h15.9
	v-0.9c0-2.1-1.7-3.8-3.8-3.8L24.8,36.5L24.8,36.5z M21.4,36.2c-1.7-0.9-3.4-0.6-3.9,0.6c-0.5,1.2,0.4,3,2.1,3.9s3.4,0.6,3.9-0.6
	C24,38.9,23.1,37.1,21.4,36.2z"/>
</svg>
