<?xml version="1.0" encoding="utf-8"?>
<!-- Generator: Adobe Illustrator 23.0.2, SVG Export Plug-In . SVG Version: 6.00 Build 0)  -->
<svg version="1.1" id="Layer_1" xmlns="http://www.w3.org/2000/svg" xmlns:xlink="http://www.w3.org/1999/xlink" x="0px" y="0px"
	 viewBox="0 0 50 50" style="enable-background:new 0 0 50 50;" xml:space="preserve">
<style type="text/css">
	.st0{fill:#231F20;}
</style>
<path class="st0" d="M28,17.3h-8.2c-0.3,2.8-2.5,5-5.3,5.3v14.5c2.8,0.3,5,2.5,5.3,5.3H28c0.3-2.8,2.5-5,5.3-5.3V22.6
	C30.5,22.3,28.2,20.1,28,17.3z M35.9,9.7V13h-2.5V9.7h-1.8V13h-2.5V9.7h-1.8V13h-2.5V9.7H23V13h-2.5V9.7h-1.8V13h-2.5V9.7h-1.8V13
	h-2.5V9.7H10V50h1.8v-3.4h2.5V50h1.8v-3.4h2.5V50h1.8v-3.4H23V50h1.8v-3.4h2.5V50h1.8v-3.4h2.5V50h1.8v-3.4h2.5V50h1.8v-3.4V13V9.7
	H35.9z M34.5,38.2h-0.6c-2.6,0-4.7,2.1-4.7,4.7v0.6H18.6V43c0-2.6-2.1-4.7-4.7-4.7h-0.6V21.4h0.6c2.6,0,4.7-2.1,4.7-4.7v-0.6h10.5
	v0.6c0,2.6,2.1,4.7,4.7,4.7h0.6v16.8H34.5z"/>
</svg>
