<?xml version="1.0" encoding="utf-8"?>
<!-- Generator: Adobe Illustrator 23.0.3, SVG Export Plug-In . SVG Version: 6.00 Build 0)  -->
<svg version="1.1" id="Layer_1" xmlns="http://www.w3.org/2000/svg" xmlns:xlink="http://www.w3.org/1999/xlink" x="0px" y="0px"
	 viewBox="0 0 50 50" style="enable-background:new 0 0 50 50;" xml:space="preserve">
<style type="text/css">
	.st0{fill-rule:evenodd;clip-rule:evenodd;fill:#231F20;}
</style>
<title>zoom-in</title>
<path id="fullsize-icon" class="st0" d="M49.4,46.4l-12-12c7.4-9,6.1-22.3-2.9-29.7s-22.3-6-29.7,3S-1.3,30,7.7,37.4
	c7.8,6.4,19,6.4,26.8,0l12,12c0.8,0.8,2.1,0.8,2.9,0l0,0C50.2,48.6,50.2,47.2,49.4,46.4L49.4,46.4z M21.2,38
	c-9.3,0-16.8-7.5-16.8-16.8S11.9,4.4,21.2,4.4S38,11.9,38,21.2l0,0C38,30.5,30.4,38,21.2,38z"/>
</svg>
