<?xml version="1.0" encoding="utf-8"?>
<!-- Generator: Adobe Illustrator 23.0.4, SVG Export Plug-In . SVG Version: 6.00 Build 0)  -->
<svg version="1.1" id="Layer_1" xmlns="http://www.w3.org/2000/svg" xmlns:xlink="http://www.w3.org/1999/xlink" x="0px" y="0px"
	 viewBox="0 0 512 512" style="enable-background:new 0 0 512 512;" xml:space="preserve">
<path d="M387,362.2c0,0-61.1,45.5-109,8.4c-47.9-38.3-118.5-207.1-207.1-244.3c0,0-67.1,13.2-70.6,88.6S30.2,328.7,35,377.8
	c4.8,50.3,10.8,134.1,10.8,134.1h27.5c0,0,8.4-160.4,8.4-172.4c0-12,14.4-27.5,31.1-6c16.8,21.6,134.1,177.2,221.5,178.4
	c79,1.2,129.3-6,159.2-18c15.6-6,23.9-25.1,14.4-37.1C463.6,396.9,387,362.2,387,362.2"/>
</svg>
