<?xml version="1.0" encoding="utf-8"?>
<!-- Generator: Adobe Illustrator 24.3.0, SVG Export Plug-In . SVG Version: 6.00 Build 0)  -->
<svg version="1.1" id="Layer_1" xmlns="http://www.w3.org/2000/svg" xmlns:xlink="http://www.w3.org/1999/xlink" x="0px" y="0px"
	 viewBox="0 0 511.9 385.7" style="enable-background:new 0 0 511.9 385.7;" xml:space="preserve">
<path d="M387,235.9c0,0-61.1,45.5-109,8.4C230.1,206,159.5,37.2,70.9,0c0,0-67.1,13.2-70.6,88.6S30.2,202.4,35,251.5
	c4.8,50.3,10.8,134.1,10.8,134.1h27.5c0,0,8.4-160.4,8.4-172.4s14.4-27.5,31.1-6c16.8,21.6,134.1,177.2,221.5,178.4
	c79,1.2,129.3-6,159.2-18c15.6-6,23.9-25.1,14.4-37.1C463.6,270.6,387,235.9,387,235.9"/>
</svg>
