<?xml version="1.0" encoding="utf-8"?>
<!-- Generator: Adobe Illustrator 23.0.4, SVG Export Plug-In . SVG Version: 6.00 Build 0)  -->
<svg version="1.1" id="Layer_1" xmlns="http://www.w3.org/2000/svg" xmlns:xlink="http://www.w3.org/1999/xlink" x="0px" y="0px"
	 viewBox="0 0 512 512" style="enable-background:new 0 0 512 512;" xml:space="preserve">
<path d="M453.4,34.5H287.6L229.1,512H512L453.4,34.5z M383.8,451.2c0,7.7-5.5,13.3-13.3,13.3c-7.7,0-13.3-5.5-13.3-13.3v-54.2
	c0-7.7,5.5-13.3,13.3-13.3c7.7,0,13.3,5.5,13.3,13.3V451.2z M383.8,341.8c0,7.7-5.5,13.3-13.3,13.3c-7.7,0-13.3-5.5-13.3-13.3v-54.2
	c0-7.7,5.5-13.3,13.3-13.3c7.7,0,13.3,5.5,13.3,13.3V341.8z M383.8,232.4c0,7.7-5.5,13.3-13.3,13.3c-7.7,0-13.3-5.5-13.3-13.3v-54.2
	c0-7.7,5.5-13.3,13.3-13.3c7.7,0,13.3,5.5,13.3,13.3V232.4z M383.8,123c0,7.7-5.5,13.3-13.3,13.3c-7.7,0-13.3-5.5-13.3-13.3V68.8
	c0-7.7,5.5-13.3,13.3-13.3c7.7,0,13.3,5.5,13.3,13.3V123z M188.2,113c-2.2-6.6-9.9-8.8-15.5-4.4l-11.1,11.1c-3.3,3.3-9.9,3.3-13.3,0
	L62.2,34.5c-3.3-3.3-9.9-3.3-13.3,0L2.5,81c-3.3,3.3-3.3,9.9,0,13.3l86.2,86.2c3.3,3.3,3.3,9.9,0,13.3l-11.1,11.1
	c-5.5,5.5-2.2,13.3,4.4,15.5l130.4,34.3c6.6,2.2,13.3-4.4,11.1-11.1L188.2,113z"/>
</svg>
