<?xml version="1.0" encoding="utf-8"?>
<!-- Generator: Adobe Illustrator 23.0.4, SVG Export Plug-In . SVG Version: 6.00 Build 0)  -->
<svg version="1.1" id="Layer_1" xmlns="http://www.w3.org/2000/svg" xmlns:xlink="http://www.w3.org/1999/xlink" x="0px" y="0px"
	 viewBox="0 0 512 512" style="enable-background:new 0 0 512 512;" xml:space="preserve">
<path id="g10" d="M512,216.6V256c0,10.8-8.8,19.6-19.6,19.6c0,0-0.1,0-0.1,0v216.6c0.1,10.8-8.6,19.7-19.5,19.8c0,0-0.1,0-0.1,0
	h-19.8c-10.8,0-19.6-8.8-19.6-19.6c0,0,0-0.1,0-0.1V275.6H78.8v216.6c0,10.9-8.9,19.8-19.8,19.8H39.4c-10.8,0-19.6-8.8-19.6-19.6
	c0,0,0-0.1,0-0.1V275.6C8.9,275.7,0.1,267,0,256.1c0,0,0-0.1,0-0.1v-39.4c-0.1-6.2,2.9-12.1,8-15.8L94.2,122
	c3.4-2.5,7.6-3.9,11.8-3.8h299.9c4.2,0,8.3,1.3,11.7,3.8l84.2,77.1C507.6,203.1,511.3,209.6,512,216.6z M393.8,413.6
	c10.9-0.1,19.7-8.9,19.8-19.8v-98.4H374v98.4C374.1,404.7,382.9,413.5,393.8,413.6 M118.2,413.6c10.9-0.1,19.6-8.9,19.6-19.8v-98.4
	H98.4v98.4C98.4,404.7,107.3,413.6,118.2,413.6"/>
</svg>
