<?xml version="1.0" encoding="utf-8"?>
<!-- Generator: Adobe Illustrator 23.0.4, SVG Export Plug-In . SVG Version: 6.00 Build 0)  -->
<svg version="1.1" id="Layer_1" xmlns="http://www.w3.org/2000/svg" xmlns:xlink="http://www.w3.org/1999/xlink" x="0px" y="0px"
	 viewBox="0 0 512 512" style="enable-background:new 0 0 512 512;" xml:space="preserve">
<title>teacup</title>
<path d="M506.7,266.2c-7.2-10.2-18.4-15.4-30.7-15.4h-63.5c1-9.2,1-17.4,1-22.5s-4.1-9.2-9.2-9.2l0,0h-389c-5.1,0-9.2,4.1-9.2,9.2
	c1,42,11.3,206.8,145.4,246.7H24.5c-8.2,0-16.4,5.1-19.4,13.3L1,498.5c-2,4.1-1,10.2,4.1,12.3c1,1,3.1,1,5.1,1h398.2
	c5.1,1,9.2-3.1,10.2-8.2c0-2,0-4.1-1-5.1l-4.1-10.2c-3.1-8.2-11.3-13.3-19.4-13.3H274.3c40.9-13.3,75.8-40.9,96.2-78.8
	c86-2,122.8-62.4,138.2-98.3C513.8,287.7,512.8,276.4,506.7,266.2 M205.7,205.8c2,2,5.1,3.1,8.2,4.1c2,0,5.1-1,7.2-2
	c4.1-4.1,5.1-10.2,1-14.3l0,0c0,0-27.6-32.8-10.2-54.3c23.5-29.7,9.2-53.2-2-61.4c-5.1-2-11.3,0-13.3,5.1c-2,3.1-1,7.2,1,10.2
	c2,2,14.3,13.3-1,32.8C166.8,160.7,203.7,203.7,205.7,205.8 M260,22.5c4.1-3.1,5.1-10.2,2-14.3c-3.1-4.1-10.2-5.1-14.3-2
	c-10.2,8.2-24.6,32.8-2,62.4c17.4,22.5-10.2,54.3-10.2,54.3c-4.1,4.1-3.1,10.2,1,14.3l0,0c2,2,4.1,2,6.1,2c3.1,0,6.1-1,8.2-4.1
	c1-2,38.9-45,10.2-80.9C245.6,35.8,256.9,24.6,260,22.5"/>
</svg>
