<?xml version="1.0" encoding="utf-8"?>
<!-- Generator: Adobe Illustrator 23.0.2, SVG Export Plug-In . SVG Version: 6.00 Build 0)  -->
<svg version="1.1" id="Layer_1" xmlns="http://www.w3.org/2000/svg" xmlns:xlink="http://www.w3.org/1999/xlink" x="0px" y="0px"
	 viewBox="0 0 50 50" style="enable-background:new 0 0 50 50;" xml:space="preserve">
<style type="text/css">
	.st0{fill:#231F20;}
</style>
<path class="st0" d="M20.1,25.9c0-8-3.2-14.5-7.1-14.5s-7.1,6.5-7.1,14.5S9.1,40.4,13,40.4C16.9,40.3,20.1,33.9,20.1,25.9z M13,30.9
	c-1.4,0-2.5-2.2-2.5-5s1.1-5,2.5-5s2.5,2.2,2.5,5C15.4,28.6,14.3,30.9,13,30.9z M15.5,40.3H20v-7.8C19.2,36.2,17.5,39,15.5,40.3z
	 M20.8,26.4V50c1-0.6,3.6-0.9,4.7-1c2.1-0.2,4.2-0.2,6.2,0c2.2,0.2,3.6-0.2,5.7-0.8c1.6-0.4,4.9-1.3,6.6-0.5V26.4l0,0
	c0-0.2,0-0.4,0-0.6c0-8-3.2-14.5-7.1-14.5h-0.1l0,0H15.5c3.1,2,5.3,7.6,5.3,14.5C20.8,26.1,20.8,26.4,20.8,26.4z"/>
</svg>
