<?xml version="1.0" encoding="utf-8"?>
<!-- Generator: Adobe Illustrator 23.0.4, SVG Export Plug-In . SVG Version: 6.00 Build 0)  -->
<svg version="1.1" id="Layer_1" xmlns="http://www.w3.org/2000/svg" xmlns:xlink="http://www.w3.org/1999/xlink" x="0px" y="0px"
	 viewBox="0 0 512 512" style="enable-background:new 0 0 512 512;" xml:space="preserve">
<path d="M191.8,193.2c0-105.8-42.3-191.8-93.9-191.8S4,87.3,4,193.2S46.3,385,97.9,385C149.5,383.7,191.8,299,191.8,193.2z
	 M97.9,259.3c-18.5,0-33.1-29.1-33.1-66.1S79.4,127,97.9,127s33.1,29.1,33.1,66.1C129.7,228.9,115.1,259.3,97.9,259.3z M131,383.7
	h59.5V280.5C179.9,329.4,157.4,366.5,131,383.7z M201.1,512c13.2-7.9,47.6-11.9,62.2-13.2c27.8-2.6,55.6-2.6,82,0
	c29.1,2.6,47.6-2.6,75.4-10.6c21.2-5.3,64.8-17.2,87.3-6.6c0,0,0-287.1,0-289.7C508,86,465.7,0,414.1,0h-1.3l0,0H131
	c41,26.5,70.1,100.5,70.1,191.8C201.1,195.8,201.1,512,201.1,512z"/>
</svg>
