<?xml version="1.0" encoding="utf-8"?>
<!-- Generator: Adobe Illustrator 23.0.2, SVG Export Plug-In . SVG Version: 6.00 Build 0)  -->
<svg version="1.1" id="Layer_1" xmlns="http://www.w3.org/2000/svg" xmlns:xlink="http://www.w3.org/1999/xlink" x="0px" y="0px"
	 viewBox="0 0 50 50" style="enable-background:new 0 0 50 50;" xml:space="preserve">
<style type="text/css">
	.st0{fill:#231F20;}
</style>
<path class="st0" d="M32.5,44.7V32.2H5.9v12.5H5.5c-1.5,0-2.6,1.2-2.6,2.6c0,1.5,1.2,2.6,2.6,2.6h40.9v-5.3H32.5V44.7z M7.7,34h4.6
	l0.9,6.5l1.1-6.4h4.1l0.9,6.5l1.1-6.4h4.1l0.9,6.5l1.1-6.4H31V45H7.6L7.7,34z M9.4,29.2c0,0,12.6,1.5,17.8,0
	c6.4-1.9,4.4-12.8,4.4-12.8c-4.3,3.4-10.5,2-20,1.4S2.7,31.5,2.7,31.5C4.9,28.8,9.4,29.2,9.4,29.2z M21.8,27.1
	c0.2-0.1,0.6-0.2,0.9-0.3c0.7-0.3,1.6-0.7,2.5-1.1l0.3-0.2l0.3-0.2c0.2-0.1,0.4-0.2,0.6-0.3c0.4-0.2,0.7-0.5,1.1-0.7
	c0.7-0.5,1.1-0.8,1.1-0.8s0,0.2,0,0.4c0,0.3-0.1,0.6-0.3,1c-0.2,0.4-0.5,0.9-0.9,1.3c-0.2,0.2-0.4,0.4-0.7,0.6
	c-0.1,0.1-0.3,0.2-0.4,0.2l-0.2,0.1L26,27.4c-1.1,0.5-2.3,0.6-3.2,0.4c-0.4-0.1-0.8-0.2-1-0.3c-0.1-0.1-0.2-0.1-0.3-0.2
	c-0.1,0-0.1-0.1-0.1-0.1S21.6,27.2,21.8,27.1z M7.1,23.5c0-0.3,0.1-0.6,0.3-1c0.2-0.4,0.5-0.9,0.9-1.3C8.5,21,8.7,20.8,9,20.6
	c0.1-0.1,0.3-0.2,0.4-0.2l0.2-0.1l0.2-0.1c1.1-0.5,2.3-0.6,3.2-0.4c0.4,0.1,0.8,0.2,1,0.3c0.1,0.1,0.2,0.1,0.3,0.2
	c0.1,0,0.1,0.1,0.1,0.1s-0.1,0-0.4,0.1c-0.2,0.1-0.6,0.2-0.9,0.3c-0.7,0.3-1.6,0.7-2.5,1.1l-0.3,0.2L10,22.2
	c-0.2,0.1-0.4,0.2-0.6,0.3C9,22.7,8.7,23,8.3,23.2C7.5,23.6,7,23.9,7,23.9S7,23.7,7.1,23.5z"/>
</svg>
