<?xml version="1.0" encoding="utf-8"?>
<!-- Generator: Adobe Illustrator 23.0.2, SVG Export Plug-In . SVG Version: 6.00 Build 0)  -->
<svg version="1.1" id="Layer_1" xmlns="http://www.w3.org/2000/svg" xmlns:xlink="http://www.w3.org/1999/xlink" x="0px" y="0px"
	 viewBox="0 0 50 50" style="enable-background:new 0 0 50 50;" xml:space="preserve">
<style type="text/css">
	.st0{fill:#231F20;}
</style>
<path class="st0" d="M40.9,23.7c-0.8-0.3-2.3-0.6-3.7,0c-0.7-0.7-1.4-1.4-2.3-2.2c0.8-0.6,1.8-1.4,2.7-1.7c0.2-0.1,0.1-0.3,0-0.3
	c-0.8-0.1-2.4-0.1-4.1,0.8c-0.8-0.7-1.7-1.4-2.7-2.2c1.4-1.3,2.8-2.3,3.5-2.8c0.1-0.1,0.1-0.3-0.1-0.3c-1.1,0-3.4,0.3-5.3,1.8
	c-1-0.7-2.1-1.4-3.2-2c1.2-1.4,2.9-2.8,3.7-3.5c0.1-0.1,0.1-0.3-0.1-0.3c-1.2,0.1-3.9,0.4-5.8,2.6c-0.7-0.3-1.3-0.6-2-0.9
	c1.3-1.3,2.9-2.5,3.6-3c0.2-0.1,0.2-0.4,0-0.5c-0.4-0.4-1.4-1.2-2.7-1.4c-1.6-0.3-6.6-0.1-8.1-0.1c-0.2,0-1.3,0.5-1.2,0.7
	c0.4,1.3,2.8,4.9,2.6,4.9c-0.2,0-3-1.1-4.3-1.5c-0.3-0.1-0.5,0.2-0.4,0.4c0.2,0.6,0.7,1.6,1.6,2.7c1.6,2,4.4,4.9,7.1,5.1
	c0.3,0-0.4-3.4,0.4-5.6c0.8,0.3,1.5,0.6,2.2,1c-1.1,2.7,0.1,5.3,0.6,6.4c0.1,0.2,0.3,0.1,0.3-0.1c0.1-1.1,0.4-3.4,1.2-5.2
	c1,0.6,1.9,1.2,2.9,1.8c-1.6,2.6-0.8,5.3-0.4,6.4c0.1,0.2,0.3,0.1,0.3,0c0.2-1,0.7-3.3,1.9-5c0.8,0.6,1.6,1.2,2.3,1.9
	c-1.4,1.6-1.3,3.7-1,4.8c0,0.2,0.3,0.2,0.3,0c0.3-0.7,1.1-2.1,2.3-3.4c0.8,0.8,1.6,1.5,2.3,2.1c-0.8,1.3-0.8,2.9-0.7,3.8
	c0,0.2,0.3,0.2,0.3,0.1c0.3-0.7,0.9-1.9,1.5-2.7c1.5,1.5,2.3,2.6,2.3,2.6l1.7-1.3c-0.1-0.1-0.9-1.1-2.2-2.6c0.8-0.4,1.7-0.8,2.4-1
	C41,24,41,23.8,40.9,23.7z M17.8,10.7c0-0.6,0.5-1.1,1.1-1.1s1.1,0.5,1.1,1.1s-0.5,1.1-1.1,1.1C18.4,11.8,17.8,11.3,17.8,10.7z
	 M27.6,37.1l-12.1-8.3l-0.1,0.1l0,0c-0.4-0.3-0.9-0.4-1.4-0.4c-0.2,0-0.5,0-0.8,0.1c0.1-0.1,0.2-0.2,0.2-0.3
	c1.7-2.5,1.1-5.8-1.4-7.5c-2.5-1.7-5.8-1.1-7.5,1.4S3.4,28,5.9,29.7c1.2,0.9,2.7,1.1,4.1,0.8c-0.7,0.7-1.4,1.5-2,2.4
	c-2,3.1-3,7-1,8.4c0.1,0.1,0.3,0.2,0.5,0.2l-0.1,0.1l11.6,8c0.4,0.3,0.8,0.4,1.2,0.4c1.9,0,4.4-2.1,6.1-4.6c1.1-1.6,1.8-3.2,2.1-4.7
	C28.8,39,28.5,37.8,27.6,37.1z M15.9,32.6c-0.3,1.3-1,2.9-2,4.4c-1.7,2.5-3.9,4.2-5.5,4.2c-0.4,0-0.8-0.1-1.1-0.3
	c-0.8-0.5-1-1.7-0.7-3.2c0.3-1.3,1-2.9,2-4.4c1-1.4,2.1-2.5,3.2-3.3c0.2-0.1,0.3-0.2,0.5-0.3c0.7-0.4,1.3-0.6,1.9-0.6
	c0.4,0,0.8,0.1,1.1,0.3C16,29.9,16.2,31.1,15.9,32.6z"/>
</svg>
