<?xml version="1.0" encoding="utf-8"?>
<!-- Generator: Adobe Illustrator 23.0.2, SVG Export Plug-In . SVG Version: 6.00 Build 0)  -->
<svg version="1.1" id="Layer_1" xmlns="http://www.w3.org/2000/svg" xmlns:xlink="http://www.w3.org/1999/xlink" x="0px" y="0px"
	 viewBox="0 0 50 50" style="enable-background:new 0 0 50 50;" xml:space="preserve">
<style type="text/css">
	.st0{fill:#231F20;}
</style>
<path class="st0" d="M4.9,34.2h22.7c1,0,1.8-0.8,1.8-1.8v-8.8c0-1-0.8-1.8-1.8-1.8H4.9c-1,0-1.8,0.8-1.8,1.8v8.8
	C3.1,33.4,3.9,34.2,4.9,34.2z M35.4,21.8c-1,0-1.8,0.8-1.8,1.8v8.8c0,1,0.8,1.8,1.8,1.8h11.5V21.8H35.4z M44.9,37.6H22.2
	c-1,0-1.8,0.8-1.8,1.8v8.8c0,1,0.8,1.8,1.8,1.8h22.7c1,0,1.8-0.8,1.8-1.8v-8.8C46.7,38.4,45.9,37.6,44.9,37.6z M14.5,37.6H3.1V50
	h11.4c1,0,1.8-0.8,1.8-1.8v-8.8C16.3,38.4,15.5,37.6,14.5,37.6z M22.2,18.4h22.7c1,0,1.8-0.8,1.8-1.8V7.8c0-1-0.8-1.8-1.8-1.8H22.2
	c-1,0-1.8,0.8-1.8,1.8v8.8C20.4,17.6,21.2,18.4,22.2,18.4z M16.3,16.6V7.8c0-1-0.8-1.8-1.8-1.8H3.1v12.4h11.4
	C15.5,18.4,16.3,17.6,16.3,16.6z"/>
</svg>
