<?xml version="1.0" encoding="utf-8"?>
<!-- Generator: Adobe Illustrator 23.0.2, SVG Export Plug-In . SVG Version: 6.00 Build 0)  -->
<svg version="1.1" id="Layer_1" xmlns="http://www.w3.org/2000/svg" xmlns:xlink="http://www.w3.org/1999/xlink" x="0px" y="0px"
	 viewBox="0 0 50 50" style="enable-background:new 0 0 50 50;" xml:space="preserve">
<path d="M44.7,12.1H31.4c-0.5-0.9-1.3-1.6-2.3-2V7.4h1.1c0.4,0.9,1.3,1.5,2.3,1.5c1.4,0,2.5-1.1,2.5-2.5s-1.1-2.5-2.5-2.5
	c-1,0-1.9,0.6-2.3,1.5h-1.5c-0.3-0.4-0.8-0.6-1.3-0.6s-1,0.2-1.3,0.6h-1.7C24,4.5,23.1,3.8,22,3.8c-1.4,0-2.5,1.1-2.5,2.5
	s1.1,2.5,2.5,2.5c1,0,1.9-0.6,2.3-1.5h1.2v2.8c-0.9,0.4-1.7,1.1-2.2,1.9h-1.6c-4.9,0-8.9,4-8.9,8.9V22c0,0.4,0.3,0.7,0.7,0.7H17
	c0.4,0,0.7-0.3,0.7-0.7v-1c0-2.2,1.8-4,4-4h1.8c0.8,1.2,2.2,2,3.8,2c1.6,0,3-0.8,3.8-2h13.5c0.4,0,0.7-0.3,0.7-0.7v-3.4
	C45.4,12.5,45.1,12.1,44.7,12.1z M22.6,27.2c-0.9-0.1-1.7,0.6-1.8,1.5l-0.5,5.1C20.1,33.9,20,34,19.8,34c-1,0-1.9-1.9-2.7-2.5l0,0
	c-0.8,0.7-1.7,2.5-2.7,2.5s-1.9-1.9-2.7-2.5l0,0c-1,0.6-1.9,2.5-2.9,2.5c-0.1,0-0.3,0-0.4-0.1l-0.5-5.6c-0.1-0.9-0.9-1.6-1.8-1.5
	s-1.6,0.9-1.5,1.8L6.7,50h15.5l1.9-21C24.1,28.1,23.5,27.3,22.6,27.2z M9.7,46.7l-0.9-9.6h0.1c1,0,1.9-1.6,2.8-2.2l0,0
	c0.8,0.7,1.7,2.2,2.7,2.2s1.9-1.6,2.7-2.2l0,0c0.8,0.7,1.7,2.2,2.7,2.2c0.1,0,0.1,0,0.2,0l-0.9,9.6C19.1,46.7,9.7,46.7,9.7,46.7z
	 M17,28.1c0-1.2-0.8-2-1.4-3.5c0-0.1-0.1-0.2-0.3-0.2c-0.1,0-0.2,0.1-0.3,0.2c-0.6,1.5-1.4,2.3-1.4,3.5c0,1.3,0.7,2,1.7,2
	C16.3,30,17,29.4,17,28.1z"/>
</svg>
