<?xml version="1.0" encoding="utf-8"?>
<!-- Generator: Adobe Illustrator 23.0.2, SVG Export Plug-In . SVG Version: 6.00 Build 0)  -->
<svg version="1.1" id="Layer_1" xmlns="http://www.w3.org/2000/svg" xmlns:xlink="http://www.w3.org/1999/xlink" x="0px" y="0px"
	 viewBox="0 0 50 50" style="enable-background:new 0 0 50 50;" xml:space="preserve">
<style type="text/css">
	.st0{fill:#231F20;}
</style>
<path class="st0" d="M13.1,17.7c1.1,0,2.1-1.1,3-1.5l0,0c0.9,0.4,1.9,1.5,3,1.5s2.1-1.1,3-1.5l0,0c0.9,0.4,1.9,1.5,3,1.5
	c0.5,0,0.9-0.2,1.4-0.5l0.5-3.6c-0.6,0.4-1.2,0.8-1.8,0.8c-1.1,0-2.1-1.3-3-1.7c-0.9,0.4-1.9,1.7-3,1.7s-2.1-1.3-3-1.7
	c-0.9,0.4-1.9,1.7-3,1.7c-0.7,0-1.4-0.4-2-0.9l0.5,3.6C12.1,17.5,12.6,17.7,13.1,17.7z M45.6,48L41,39.3v-7.1l1.8,1.4v3.2
	c0,0.7,0.5,1.2,1.2,1.2l0,0c0.7,0,1.2-0.5,1.2-1.2v-4.4L41,29.1c-0.1-0.1-0.2-0.2-0.4-0.2c-0.1,0-0.1-0.1-0.2-0.1h-3.8
	c-0.1,0-0.1,0-0.2,0c-0.3,0.1-0.6,0.2-0.8,0.5l-4.8,7.4c-0.4,0.6-0.2,1.3,0.4,1.7c0.2,0.1,0.4,0.2,0.6,0.2c0.4,0,0.8-0.2,1-0.6
	l3.2-5v5.5l-5.8,9.1c-0.4,0.6-0.2,1.5,0.4,1.9c0.2,0.1,0.5,0.2,0.7,0.2c0.4,0,0.9-0.2,1.1-0.6l5.8-9l0,0l4.9,9.2
	c0.2,0.5,0.7,0.7,1.2,0.7c0.2,0,0.4-0.1,0.6-0.2C45.8,49.5,46,48.7,45.6,48z M37.6,23.5c1.2,0,2.2,1,2.2,2.2s-1,2.2-2.2,2.2
	s-2.2-1-2.2-2.2S36.4,23.5,37.6,23.5z M28.8,10l-3.4,26.4H12.7L9.1,10H6.5l3.9,28.9h17.3L31.4,10H28.8z"/>
</svg>
