<?xml version="1.0" encoding="utf-8"?>
<!-- Generator: Adobe Illustrator 24.0.1, SVG Export Plug-In . SVG Version: 6.00 Build 0)  -->
<svg version="1.1" id="Layer_1" xmlns="http://www.w3.org/2000/svg" xmlns:xlink="http://www.w3.org/1999/xlink" x="0px" y="0px"
	 viewBox="0 0 512 512" style="enable-background:new 0 0 512 512;" xml:space="preserve">
<path d="M271.9,440.2v-116c0-19.5,12.8-34.7,61.8-71.8c46.7-34.6,45.5-78.5,45.5-82.5C379.2,75.2,350.5,0,350.5,0h-189
	c0,0-28.7,75.2-28.7,169.9c0,4-1.2,47.9,45.5,82.5c49,37.1,61.8,52.3,61.8,71.8v116c0,19.7-24.7,52.6-90.5,52.6V512h212.8v-19.2
	C296.6,492.8,271.9,459.9,271.9,440.2z M212.9,101.7c0,0-27.5,55-9.6,130.4c-2.4-1.2-38.2-25.4-38.2-62.2
	c0-68.2,10.8-114.8,19.1-138.8h145.9c4.8,15.6,10.8,38.3,14.4,70.6H212.9z"/>
</svg>
