<?xml version="1.0" encoding="utf-8"?>
<!-- Generator: Adobe Illustrator 23.0.4, SVG Export Plug-In . SVG Version: 6.00 Build 0)  -->
<svg version="1.1" id="Layer_1" xmlns="http://www.w3.org/2000/svg" xmlns:xlink="http://www.w3.org/1999/xlink" x="0px" y="0px"
	 viewBox="0 0 512 512" style="enable-background:new 0 0 512 512;" xml:space="preserve">
<path d="M273.9,440.2v-116c3.6-19.1,10.8-34.7,59.8-71.8c46.7-34.7,45.5-82.5,45.5-82.5C379.2,57.4,350.5,0,350.5,0h-189
	c0,0-28.7,57.4-28.7,169.9c0,0-1.2,47.9,45.5,82.5c49,37.1,57.4,51.4,59.8,71.8v116c-2.4,6-22.7,52.6-88.5,52.6V512h210.5v-19.1
	C295.5,492.9,275.1,446.2,273.9,440.2z M165.1,169.9c0-68.2,10.8-114.8,19.1-138.8h145.9c4.8,15.6,10.8,38.3,14.4,70.6H212.9
	c0,0-27.5,55-9.6,130.4l0,0c-2.4-1.2-4.8-3.6-7.2-4.8C166.3,202.2,165.1,171.1,165.1,169.9z"/>
</svg>
