<?xml version="1.0" encoding="utf-8"?>
<!-- Generator: Adobe Illustrator 23.0.2, SVG Export Plug-In . SVG Version: 6.00 Build 0)  -->
<svg version="1.1" id="Layer_1" xmlns="http://www.w3.org/2000/svg" xmlns:xlink="http://www.w3.org/1999/xlink" x="0px" y="0px"
	 viewBox="0 0 50 50" style="enable-background:new 0 0 50 50;" xml:space="preserve">
<style type="text/css">
	.st0{fill:#231F20;}
</style>
<path class="st0" d="M5,44.1h39.4V50H5V44.1z M12.3,21.8v15.3H16l-0.1-15.3H12.3z M15.9,15.8c-0.6-2.6-1.4-2.5-1.7-5.1
	c0,0-1.4,1-2,3.5s1,4.3,1.7,5.4C14,19.5,16.4,17.9,15.9,15.8z M14.2,42.2c4.8,0,8.7-1.2,8.7-4.2H5.5C5.5,41,9.4,42.2,14.2,42.2z
	 M29.9,24.9c0.4,0.2,0.8,0.2,1.2,0.2c1.2,0,2.4-0.7,3-1.9c-0.6,1.6,0.2,3.4,1.9,4.1c0.4,0.2,0.8,0.2,1.2,0.2c1.3,0,2.5-0.8,3-2.1
	c0.5-1.2,0.2-2.6-0.7-3.5c0.2,0.1,0.4,0.2,0.6,0.3c0.4,0.2,0.8,0.2,1.2,0.2c1.3,0,2.5-0.8,3-2.1c0.7-1.7-0.2-3.6-1.8-4.2
	c-0.4-0.2-0.8-0.2-1.2-0.2c-0.6,0-1.1,0.1-1.6,0.4c0.5-0.3,0.8-0.8,1.1-1.4c0.7-1.7-0.2-3.6-1.8-4.2c-0.4-0.2-0.8-0.2-1.2-0.2
	c-1.3,0-2.5,0.8-3,2.1c-0.2,0.5-0.2,1-0.2,1.5c-0.3-0.8-1-1.4-1.8-1.8c-0.4-0.2-0.8-0.2-1.2-0.2c-1.3,0-2.5,0.8-3,2.1
	c-0.7,1.7,0.2,3.6,1.8,4.2c0.2,0.1,0.4,0.1,0.6,0.2c-1.2,0.1-2.4,0.8-2.9,2.1C27.4,22.4,28.2,24.3,29.9,24.9z M34,18.2
	c0.4-1,1.5-1.5,2.5-1.1s1.5,1.5,1.1,2.5s-1.5,1.5-2.5,1.1C34,20.4,33.6,19.2,34,18.2z M29.6,35.5c-0.2,1.7-0.3,3.6-0.2,5.5
	c0,0.6,0.5,1,1,1l0,0c0.6,0,1-0.5,1-1.1c-0.1-1.8,0-3.6,0.2-5.2c2.9,0,7.6-0.2,7.2-1.8c-0.4-1.8-3.6-2.3-7-0.3
	c0.5-3,1.2-5.6,1.8-7.2c-0.2-0.3-0.4-0.7-0.5-1.1c-0.5,0.3-1,0.5-1.5,0.6c-0.6,1.6-1.3,4-1.8,6.9c-2.8-3.6-6.5-4.9-7.9-3.4
	C20.8,30.7,26.2,33.8,29.6,35.5z"/>
</svg>
