<?xml version="1.0" encoding="utf-8"?>
<!-- Generator: Adobe Illustrator 23.0.4, SVG Export Plug-In . SVG Version: 6.00 Build 0)  -->
<svg version="1.1" id="Layer_1" xmlns="http://www.w3.org/2000/svg" xmlns:xlink="http://www.w3.org/1999/xlink" x="0px" y="0px"
	 viewBox="0 0 512 512" style="enable-background:new 0 0 512 512;" xml:space="preserve">
<style type="text/css">
	.st0{fill-rule:evenodd;clip-rule:evenodd;}
</style>
<title>zoom-in</title>
<path id="fullsize-icon" class="st0" d="M505.6,475.2L382.8,352.4c75.7-92,62.4-228.1-29.7-303.8s-228-61.3-303.7,30.8
	s-62.4,228,29.7,303.7c79.8,65.5,194.3,65.5,274.1,0l122.7,122.7c8.2,8.2,21.5,8.2,29.7,0l0,0C513.7,497.7,513.7,483.4,505.6,475.2
	L505.6,475.2z M217.1,389.3c-95.1,0-171.8-76.7-171.8-171.8S122,45.6,217.1,45.6S389,122.3,389,217.4l0,0
	C389,312.6,311.2,389.3,217.1,389.3z M307.1,209.3c0-5.1-4.1-8.2-9.2-8.2h-63.4v-63.4c0-5.1-4.1-8.2-8.2-8.2h-18.4
	c-5.1,0-8.2,4.1-8.2,8.2l0.1,63.7h-62.4c-5.1,0-8.2,4.1-8.2,8.2l-0.1,16.1c0,5.1,4.1,9.2,8.2,9.2l0,0h62.4v62.4
	c0,5.1,4.1,8.2,8.2,8.2h17.4c5.1,0,9.2-4.1,9.2-8.2v-62.4h63.4c5.1,0,9.2-4.1,9.2-8.2V209.3z"/>
</svg>
