<?xml version="1.0" encoding="utf-8"?>
<!-- Generator: Adobe Illustrator 23.0.4, SVG Export Plug-In . SVG Version: 6.00 Build 0)  -->
<svg version="1.1" id="Layer_1" xmlns="http://www.w3.org/2000/svg" xmlns:xlink="http://www.w3.org/1999/xlink" x="0px" y="0px"
	 viewBox="0 0 512 512" style="enable-background:new 0 0 512 512;" xml:space="preserve">
<path d="M116.8,379.9H52.4l75.3-110.3c2.2-3.3,3.3-6.6,3.3-9.8c0-9.8-7.6-17.5-17.5-17.5H21.8c-9.8,0-17.5,7.6-17.5,17.5
	c0,9.8,7.6,17.5,17.5,17.5h56.8L3.3,386.5C1.1,389.7,0,393,0,397.4c0,9.8,7.6,17.5,17.5,17.5h98.3c9.8,0,17.5-7.6,17.5-17.5
	C134.3,387.5,126.6,379.9,116.8,379.9z M294.8,321H214l91.7-134.3c2.2-3.3,3.3-6.6,3.3-9.8c0-9.8-7.6-17.5-17.5-17.5H183.4
	c-9.8,0-17.5,7.6-17.5,17.5c0,9.8,7.6,17.5,17.5,17.5h72.1l-92.8,134.3c-2.2,3.3-3.3,6.6-3.3,10.9c0,9.8,7.6,18.6,18.6,18.6h116.8
	c9.8,0,18.6-7.6,18.6-18.6C313.3,328.6,304.6,321,294.8,321z M491.3,283.8h-96.1l107-157.2c2.2-3.3,3.3-6.6,3.3-10.9
	c0-10.9-8.7-18.6-18.6-18.6H363.5c-10.9,0-18.6,8.7-18.6,18.6c0,10.9,8.7,18.6,18.6,18.6h86.2L341.7,290.4c-2.2,3.3-3.3,7.6-3.3,12
	c0,10.9,8.7,19.7,19.7,19.7h134.3c10.9,0,19.7-8.7,19.7-19.7C510.9,292.6,502.2,283.8,491.3,283.8z"/>
</svg>
