<?xml version="1.0" encoding="utf-8"?>
<!-- Generator: Adobe Illustrator 23.0.2, SVG Export Plug-In . SVG Version: 6.00 Build 0)  -->
<svg version="1.1" id="Layer_1" xmlns="http://www.w3.org/2000/svg" xmlns:xlink="http://www.w3.org/1999/xlink" x="0px" y="0px"
	 viewBox="0 0 50 50" style="enable-background:new 0 0 50 50;" xml:space="preserve">
<style type="text/css">
	.st0{fill:#231F20;}
</style>
<path class="st0" d="M12.3,46.8H6.4l6.9-10.1c0.2-0.3,0.3-0.6,0.3-0.9c0-0.9-0.7-1.6-1.6-1.6H3.6c-0.9,0-1.6,0.7-1.6,1.6
	c0,0.9,0.7,1.6,1.6,1.6h5.2l-6.9,10c-0.2,0.3-0.3,0.6-0.3,1c0,0.9,0.7,1.6,1.6,1.6h9c0.9,0,1.6-0.7,1.6-1.6
	C13.9,47.5,13.2,46.8,12.3,46.8z M28.6,41.4h-7.4l8.4-12.3c0.2-0.3,0.3-0.6,0.3-0.9c0-0.9-0.7-1.6-1.6-1.6h-9.9
	c-0.9,0-1.6,0.7-1.6,1.6s0.7,1.6,1.6,1.6H25l-8.5,12.3c-0.2,0.3-0.3,0.6-0.3,1c0,0.9,0.7,1.7,1.7,1.7h10.7c0.9,0,1.7-0.7,1.7-1.7
	C30.3,42.1,29.5,41.4,28.6,41.4z M46.6,38h-8.8l9.8-14.4c0.2-0.3,0.3-0.6,0.3-1c0-1-0.8-1.7-1.7-1.7H34.9c-1,0-1.7,0.8-1.7,1.7
	c0,1,0.8,1.7,1.7,1.7h7.9l-9.9,14.3c-0.2,0.3-0.3,0.7-0.3,1.1c0,1,0.8,1.8,1.8,1.8h12.3c1,0,1.8-0.8,1.8-1.8
	C48.4,38.8,47.6,38,46.6,38z"/>
</svg>
