<?xml version="1.0" encoding="utf-8"?>
<!-- Generator: Adobe Illustrator 18.1.1, SVG Export Plug-In . SVG Version: 6.00 Build 0)  -->
<!DOCTYPE svg PUBLIC "-//W3C//DTD SVG 1.1//EN" "http://www.w3.org/Graphics/SVG/1.1/DTD/svg11.dtd">
<svg version="1.1" id="Layer_1" 
	xmlns="http://www.w3.org/2000/svg" 
	xmlns:xlink="http://www.w3.org/1999/xlink" x="0px" y="0px" viewBox="0 0 16 15" enable-background="new 0 0 16 15" xml:space="preserve">
	<g>
		<g>
			<path fill="#2C4351" d="M9.28,0.3C8.89-0.09,8.26-0.1,7.86,0.28C7.86,0.29,7.85,0.3,7.85,0.3c-0.4,0.4-0.4,1.04,0,1.44l4.71,4.74H1.02C0.45,6.48,0,6.94,0,7.51c0,0.56,0.46,1.01,1.02,1.02h11.54l-4.71,4.73c-0.4,0.4-0.4,1.04,0,1.44c0.38,0.39,1,0.41,1.39,0.03c0.01-0.01,0.02-0.02,0.03-0.03l6.43-6.47c0.4-0.4,0.41-1.05,0.01-1.45L9.28,0.3z"/>
		</g>
	</g>
</svg>
