<?xml version="1.0" encoding="utf-8"?>
<!-- Generator: Adobe Illustrator 23.0.2, SVG Export Plug-In . SVG Version: 6.00 Build 0)  -->
<svg version="1.1" id="Layer_1" xmlns="http://www.w3.org/2000/svg" xmlns:xlink="http://www.w3.org/1999/xlink" x="0px" y="0px"
	 viewBox="0 0 50 50" style="enable-background:new 0 0 50 50;" xml:space="preserve">
<path d="M29,4.1c-1.2-1.2-3.2-1.2-4.4-0.1c0,0,0,0.1,0,0.1c-1.2,1.2-1.2,3.2,0,4.5l14.7,14.8H3.2c-1.8,0-3.2,1.4-3.2,3.2
	c0,1.7,1.4,3.2,3.2,3.2h36.1L24.5,44.6c-1.2,1.2-1.2,3.2,0,4.5c1.2,1.2,3.1,1.3,4.3,0.1c0,0,0.1-0.1,0.1-0.1L49,28.8
	c1.2-1.2,1.3-3.3,0-4.5L29,4.1z"/>
</svg>
