<?xml version="1.0" encoding="utf-8"?>
<!-- Generator: Adobe Illustrator 23.0.2, SVG Export Plug-In . SVG Version: 6.00 Build 0)  -->
<svg version="1.1" id="Layer_1" xmlns="http://www.w3.org/2000/svg" xmlns:xlink="http://www.w3.org/1999/xlink" x="0px" y="0px"
	 viewBox="0 0 50 50" style="enable-background:new 0 0 50 50;" xml:space="preserve">
<path d="M28.7,23.5h2.1c1.8,0,3.4,0.8,4,2.8l2.2,6.6c0.3,0,0.8-0.1,1.2-0.1c4.7,0,8.6,3.8,8.6,8.6S43,50,38.2,50s-8.7-3.8-8.7-8.6
	c0-3.5,2.1-6.4,4.6-7.6l-0.3-1.3l-7.5,8.8c-0.9,1.1-1.8,1.5-3,1.5h-3.2C19.4,46.9,16,50,11.6,50c-4.8,0-8.7-3.8-8.7-8.6
	s3.8-8.7,8.7-8.7c1,0,1.9,0.1,2.7,0.4l2.4-4.5l-0.5-1.4h-1.5c-0.7,0-1.3-0.6-1.3-1.3c0-0.7,0.6-1.3,1.3-1.3H21
	c0.7,0,1.3,0.6,1.3,1.3c0,0.7-0.6,1.3-1.3,1.3h-1.9l0.2,0.7h13l-0.2-0.6c-0.2-0.6-0.7-0.8-1.3-0.8h-2.1c-0.8,0-1.5-0.6-1.5-1.5
	C27.3,24.1,27.9,23.5,28.7,23.5 M11.8,47.4c2.8,0,5.2-1.9,5.8-4.6h-5.8c-0.8,0-1.4-0.6-1.4-1.4c0-0.2,0.1-0.5,0.2-0.8l2.7-5
	c-0.5-0.1-1.1-0.2-1.5-0.2c-3.3,0-6,2.7-6,6S8.5,47.4,11.8,47.4 M13.8,39.9h3.8c-0.3-1.4-1.2-2.5-2.1-3.3L13.8,39.9z M20.8,39.9
	L18,31.7l-1.4,2.5c2.1,1.5,3.2,3.3,3.6,5.7H20.8z M23.7,39.9c0.3,0,0.6-0.3,0.9-0.6l7.5-8.7H20.4L23.7,39.9z M35.1,36.3
	c-1.7,1.1-2.8,3.1-2.8,5.1c0,3.3,2.7,6,6,6s6-2.7,6-6s-2.7-6-6-6h-0.5l1.8,5.2c0,0.1,0.1,0.4,0.1,0.7c0,0.8-0.6,1.4-1.4,1.4
	c-0.8,0-1.2-0.4-1.5-1.1L35.1,36.3z"/>
</svg>
