<?xml version="1.0" encoding="utf-8"?>
<!-- Generator: Adobe Illustrator 23.0.2, SVG Export Plug-In . SVG Version: 6.00 Build 0)  -->
<svg version="1.1" id="Layer_1" xmlns="http://www.w3.org/2000/svg" xmlns:xlink="http://www.w3.org/1999/xlink" x="0px" y="0px"
	 viewBox="0 0 50 50" style="enable-background:new 0 0 50 50;" xml:space="preserve">
<path d="M47.6,24.8c-0.8-0.9-1.1-2.4-0.8-4.2c0.1-0.9-0.5-1.8-1.4-1.9s-1.8,0.5-1.9,1.4c-0.4,3,0.3,5,1.1,6.2L29,46.5L8.5,40.7
	c-0.3-0.1-3.2-1-3.3-5c0-0.3,0-0.6,0-0.8c0.1-0.7,0.5-1.5,1.2-1.8c0.6-0.2,1.2-0.3,1.8-0.3l18.4,3.5c1.1,0.2,2.2-0.1,2.8-0.9
	l17.4-21.5c0.4-0.5,0.5-1.1,0.3-1.8c-0.2-0.6-0.7-1.1-1.3-1.2L24.1,7.5c-1-0.2-2.1,0.2-2.7,1l-18.5,22l-0.1,0.2
	c-0.7,1.3-1,3.3-0.9,5.2C2.2,42.5,7.5,44,7.7,44l20.9,6c0.2,0,0.4,0,0.7,0c0.8,0,1.7-0.4,2.2-1.1l16.3-21.2
	C48.4,26.9,48.4,25.6,47.6,24.8z M22.5,17l1.8-2.2c0.1-0.2,0.4-0.2,0.6-0.2l8.8,1.3c0.5,0.1,0.7,0.7,0.4,1l-2,2.2
	c-0.1,0.2-0.4,0.2-0.6,0.2L22.9,18C22.4,18,22.2,17.4,22.5,17z"/>
</svg>
