<?xml version="1.0" encoding="utf-8"?>
<!-- Generator: Adobe Illustrator 18.1.1, SVG Export Plug-In . SVG Version: 6.00 Build 0)  -->
<!DOCTYPE svg PUBLIC "-//W3C//DTD SVG 1.1//EN" "http://www.w3.org/Graphics/SVG/1.1/DTD/svg11.dtd">
<svg version="1.1" id="Layer_1" 
	xmlns="http://www.w3.org/2000/svg" 
	xmlns:xlink="http://www.w3.org/1999/xlink" x="0px" y="0px" viewBox="0 0 66 66" enable-background="new 0 0 66 66" xml:space="preserve">
	<g>
		<g>
			<path fill="#2C4351" d="M33,66C14.8,66,0,51.2,0,33S14.8,0,33,0s33,14.8,33,33S51.2,66,33,66z M33,6C18.11,6,6,18.11,6,33s12.11,27,27,27s27-12.11,27-27S47.89,6,33,6z M31.99,29.72l-4.33,0.78c-0.15-0.86-0.48-1.52-0.99-1.95s-1.19-0.66-2.01-0.66c-1.09,0-1.97,0.38-2.62,1.13c-0.65,0.76-0.98,2.02-0.98,3.79c0,1.97,0.33,3.36,0.99,4.17c0.66,0.81,1.55,1.22,2.66,1.22c0.83,0,1.52-0.24,2.05-0.71c0.53-0.47,0.91-1.29,1.12-2.45l4.31,0.73c-0.45,1.98-1.31,3.47-2.58,4.48c-1.27,1.01-2.97,1.52-5.11,1.52c-2.43,0-4.36-0.77-5.8-2.3c-1.44-1.53-2.16-3.65-2.16-6.36c0-2.74,0.72-4.87,2.17-6.4c1.45-1.53,3.41-2.29,5.88-2.29c2.02,0,3.63,0.44,4.82,1.3C30.62,26.61,31.47,27.94,31.99,29.72z M49.79,29.72l-4.33,0.78c-0.15-0.86-0.48-1.52-0.99-1.95s-1.19-0.66-2.01-0.66c-1.09,0-1.97,0.38-2.62,1.13c-0.65,0.76-0.98,2.02-0.98,3.79c0,1.97,0.33,3.36,0.99,4.17c0.66,0.81,1.55,1.22,2.66,1.22c0.83,0,1.52-0.24,2.05-0.71c0.53-0.47,0.91-1.29,1.12-2.45l4.31,0.73c-0.45,1.98-1.31,3.47-2.58,4.48c-1.27,1.01-2.97,1.52-5.11,1.52c-2.43,0-4.36-0.77-5.8-2.3c-1.44-1.53-2.16-3.65-2.16-6.36c0-2.74,0.72-4.87,2.17-6.4c1.45-1.53,3.41-2.29,5.88-2.29c2.02,0,3.63,0.44,4.82,1.3C48.41,26.61,49.27,27.94,49.79,29.72z"/>
		</g>
	</g>
</svg>
