<?xml version="1.0" encoding="utf-8"?>
<!-- Generator: Adobe Illustrator 23.0.2, SVG Export Plug-In . SVG Version: 6.00 Build 0)  -->
<svg version="1.1" id="Layer_1" xmlns="http://www.w3.org/2000/svg" xmlns:xlink="http://www.w3.org/1999/xlink" x="0px" y="0px"
	 viewBox="0 0 50 50" style="enable-background:new 0 0 50 50;" xml:space="preserve">
<path d="M25,50C11.2,50,0,38.8,0,25S11.2,0,25,0s25,11.2,25,25S38.8,50,25,50z M25,4.5C13.7,4.5,4.5,13.7,4.5,25S13.7,45.5,25,45.5
	S45.5,36.3,45.5,25S36.3,4.5,25,4.5z M24.2,22.5L21,23.1c-0.1-0.7-0.4-1.2-0.8-1.5s-0.9-0.5-1.5-0.5c-0.8,0-1.5,0.3-2,0.9
	c-0.5,0.6-0.7,1.5-0.7,2.9c0,1.5,0.2,2.5,0.7,3.2c0.5,0.6,1.2,0.9,2,0.9c0.6,0,1.2-0.2,1.6-0.5c0.4-0.4,0.7-1,0.8-1.9l3.3,0.6
	c-0.3,1.5-1,2.6-2,3.4s-2.2,1.2-3.9,1.2c-1.8,0-3.3-0.6-4.4-1.7s-1.6-2.8-1.6-4.8c0-2.1,0.5-3.7,1.6-4.8s2.6-1.7,4.5-1.7
	c1.5,0,2.8,0.3,3.7,1C23.2,20.2,23.8,21.2,24.2,22.5z M37.7,22.5l-3.3,0.6c-0.1-0.7-0.4-1.2-0.8-1.5s-0.9-0.5-1.5-0.5
	c-0.8,0-1.5,0.3-2,0.9c-0.5,0.6-0.7,1.5-0.7,2.9c0,1.5,0.3,2.5,0.8,3.2c0.5,0.6,1.2,0.9,2,0.9c0.6,0,1.2-0.2,1.6-0.5
	c0.4-0.4,0.7-1,0.8-1.9l3.3,0.6c-0.3,1.5-1,2.6-2,3.4s-2.2,1.2-3.9,1.2c-1.8,0-3.3-0.6-4.4-1.7S26,27.1,26,25.1
	c0-2.1,0.5-3.7,1.6-4.8c1.1-1.2,2.6-1.7,4.5-1.7c1.5,0,2.8,0.3,3.7,1C36.7,20.2,37.3,21.2,37.7,22.5z"/>
</svg>
