<?xml version="1.0" encoding="utf-8"?>
<!-- Generator: Adobe Illustrator 18.1.1, SVG Export Plug-In . SVG Version: 6.00 Build 0)  -->
<!DOCTYPE svg PUBLIC "-//W3C//DTD SVG 1.1//EN" "http://www.w3.org/Graphics/SVG/1.1/DTD/svg11.dtd">
<svg version="1.1" id="Layer_1" 
	xmlns="http://www.w3.org/2000/svg" 
	xmlns:xlink="http://www.w3.org/1999/xlink" x="0px" y="0px" viewBox="0 0 24 24" enable-background="new 0 0 24 24" xml:space="preserve">
	<g>
		<g>
			<path fill="#2C4351" d="M7.06,11.29c-0.34-0.32-0.88-0.31-1.2,0.03c-0.31,0.33-0.31,0.84,0,1.17l3.91,3.91c0.16,0.16,0.38,0.25,0.6,0.24h0.05c0.24-0.02,0.46-0.13,0.62-0.31l9.79-11.71c0.3-0.36,0.26-0.9-0.11-1.2c-0.36-0.3-0.9-0.26-1.2,0.11l-9.2,11.01L7.06,11.29z M18.36,1.83C12.74-1.69,5.34,0.02,1.83,5.64c-3.51,5.62-1.81,13.02,3.81,16.54c5.62,3.51,13.02,1.81,16.54-3.81c2.44-3.9,2.43-8.84-0.01-12.74c-0.25-0.39-0.77-0.52-1.16-0.27s-0.52,0.77-0.27,1.16l0,0c2.59,4.06,1.99,9.38-1.44,12.77C15.27,23.3,8.74,23.3,4.72,19.27C0.7,15.25,0.7,8.72,4.73,4.7c3.39-3.39,8.68-3.99,12.75-1.45c0.39,0.25,0.91,0.13,1.16-0.27C18.88,2.59,18.76,2.07,18.36,1.83L18.36,1.83L18.36,1.83z"/>
		</g>
	</g>
</svg>
