<?xml version="1.0" encoding="utf-8"?>
<!-- Generator: Adobe Illustrator 23.0.2, SVG Export Plug-In . SVG Version: 6.00 Build 0)  -->
<svg version="1.1" id="Layer_1" xmlns="http://www.w3.org/2000/svg" xmlns:xlink="http://www.w3.org/1999/xlink" x="0px" y="0px"
	 viewBox="0 0 50 50" style="enable-background:new 0 0 50 50;" xml:space="preserve">
<path d="M14.7,23.5c-0.7-0.7-1.8-0.6-2.5,0.1c-0.6,0.7-0.6,1.7,0,2.4l8.1,8.1c0.3,0.3,0.8,0.5,1.2,0.5h0.1c0.5,0,1-0.3,1.3-0.6
	L43.4,9.6c0.6-0.7,0.5-1.9-0.2-2.5c-0.7-0.6-1.9-0.5-2.5,0.2L21.5,30.3L14.7,23.5z M38.2,3.8C26.5-3.5,11.1,0,3.8,11.7
	S0,38.9,11.7,46.2c11.7,7.3,27.1,3.8,34.5-7.9c5.1-8.1,5.1-18.4,0-26.5c-0.5-0.8-1.6-1.1-2.4-0.6s-1.1,1.6-0.6,2.4l0,0
	c5.4,8.5,4.1,19.5-3,26.6c-8.4,8.4-22,8.4-30.4,0c-8.4-8.4-8.4-22,0-30.4c7.1-7.1,18.1-8.3,26.6-3c0.8,0.5,1.9,0.3,2.4-0.6
	C39.3,5.4,39.1,4.3,38.2,3.8L38.2,3.8L38.2,3.8z"/>
</svg>
