<?xml version="1.0" encoding="utf-8"?>
<!-- Generator: Adobe Illustrator 23.0.2, SVG Export Plug-In . SVG Version: 6.00 Build 0)  -->
<svg version="1.1" id="Layer_1" xmlns="http://www.w3.org/2000/svg" xmlns:xlink="http://www.w3.org/1999/xlink" x="0px" y="0px"
	 viewBox="0 0 50 50" style="enable-background:new 0 0 50 50;" xml:space="preserve">
<path d="M37.5,29.8c0,0,0-7-10.6-7c-0.6,0-1.2,0-1.8,0.1C12.6,23.7,5.5,36.7,5.5,36.7L22.7,50c3-9.4,14.1-12.1,14.1-12.1
	s1.4-0.3,3.1-0.3c1.5,0,3.2,0.2,4.7,1C44.7,38.6,43.9,32.2,37.5,29.8z M30.6,30.1c-0.8,0-1.5-0.7-1.5-1.5s0.7-1.5,1.5-1.5
	s1.5,0.7,1.5,1.5S31.4,30.1,30.6,30.1z M24.9,21.3c0.7,0,1.3-0.1,1.9-0.1c3.9,0,6.6,0.9,8.5,2.2c0.2-0.6,0.4-1.3,0.4-1.9
	c0.1-3.1-2.1-5.8-5-5.9c-0.5,0-1,0-1.5,0.2c-0.3-2.7-2.4-4.8-5-4.9c-2.9-0.1-5.3,2.4-5.4,5.5c0,0.1,0,0.2,0,0.3c-0.1,0-0.2,0-0.3,0
	c-2.9-0.1-5.3,2.4-5.4,5.5c0,1.1,0.2,2.2,0.7,3.1C16.9,23.2,20.6,21.6,24.9,21.3z M37.2,39.4c-0.1,0-5.6,1.4-9.7,5.6
	c1.1,1.3,2.6,2.1,4.4,2.1c3.2,0,5.7-2.6,5.7-5.7C37.6,40.7,37.5,40,37.2,39.4C37.3,39.4,37.2,39.4,37.2,39.4z"/>
</svg>
