<?xml version="1.0" encoding="utf-8"?>
<!-- Generator: Adobe Illustrator 23.0.2, SVG Export Plug-In . SVG Version: 6.00 Build 0)  -->
<svg version="1.1" id="Layer_1" xmlns="http://www.w3.org/2000/svg" xmlns:xlink="http://www.w3.org/1999/xlink" x="0px" y="0px"
	 viewBox="0 0 50 50" style="enable-background:new 0 0 50 50;" xml:space="preserve">
<path d="M37.3,29.1H32c0,0-2.4,0-3.7-1.2c-0.7-0.6-1-1.5-1-2.7c0-8.4-6.7-8.4-9-8.4c-1,0-1.7,0.8-1.7,1.7c0,1,0.8,1.7,1.7,1.7
	c3.6,0,5.5,0.8,5.5,4.9c0,2.2,0.7,3.9,2.1,5.2c2.4,2.3,5.9,2.2,6.2,2.2h5.3c3.5,0,3.8,3.4,3.9,4v2.1c0,1,0.8,1.7,1.7,1.7
	s1.7-0.8,1.7-1.7v-2.2C44.5,34,42.9,29.1,37.3,29.1z M47.7,40.5c1,0,1.7-0.8,1.7-1.7v-8.6c-0.1-2.3-1.4-6.5-5.7-7.3
	c-0.2-1.3-0.7-3-2-4.5c-1.3-1.4-3.2-2.2-5.5-2.2h-6.5c-1,0-1.7,0.8-1.7,1.7s0.8,1.7,1.7,1.7h6.5c1.3,0,2.3,0.3,3,1
	c1.3,1.3,1.2,3.5,1.2,3.6l-0.1,1.9h1.9c3.5,0,3.8,3.4,3.9,4v8.5C45.9,39.7,46.7,40.5,47.7,40.5z M38.6,42.7h-37c-0.6,0-1,0.5-1,1
	v5.1c0,0.6,0.5,1,1,1h37c0.6,0,1-0.5,1-1v-5.1C39.6,43.2,39.1,42.7,38.6,42.7z M43.8,42.6h-1.9c-0.4,0-0.7,0.3-0.7,0.7v5.9
	c0,0.4,0.3,0.7,0.7,0.7h1.9c0.4,0,0.7-0.3,0.7-0.7v-5.9C44.5,43,44.2,42.6,43.8,42.6z M48.7,42.6h-1.9c-0.4,0-0.7,0.3-0.7,0.7v5.9
	c0,0.4,0.3,0.7,0.7,0.7h1.9c0.4,0,0.7-0.3,0.7-0.7v-5.9C49.5,43,49.1,42.6,48.7,42.6z"/>
</svg>
