<?xml version="1.0" encoding="utf-8"?>
<!-- Generator: Adobe Illustrator 23.0.2, SVG Export Plug-In . SVG Version: 6.00 Build 0)  -->
<svg version="1.1" id="Layer_1" xmlns="http://www.w3.org/2000/svg" xmlns:xlink="http://www.w3.org/1999/xlink" x="0px" y="0px"
	 viewBox="0 0 50 50" style="enable-background:new 0 0 50 50;" xml:space="preserve">
<style type="text/css">
	.st0{fill:#231F20;}
</style>
<path class="st0" d="M30.2,4h-11L11,12v12.9l7.3,7.1v3.5H31V32l8.1-8V12.9L30.2,4z M24.5,27.9c-5.2,0-9.5-4.2-9.5-9.5
	c0-5.2,4.2-9.5,9.5-9.5c5.2,0,9.5,4.2,9.5,9.5S29.8,27.9,24.5,27.9z M22.3,37c-0.6-0.2-1.2,0.2-1.4,0.7l-1.6,5.4
	c-1.4,0-2.8,1-3.2,2.4c-0.6,1.8,0.4,3.8,2.2,4.3c1.8,0.6,3.8-0.4,4.3-2.2c0.5-1.5-0.1-3-1.3-3.8l1.6-5.4
	C23.2,37.8,22.9,37.2,22.3,37z M24.5,10.5c-0.7,0-1.3,0.6-1.3,1.3v5.3h-3.3c-0.7,0-1.3,0.6-1.3,1.3c0,0.7,0.6,1.3,1.3,1.3h4.6
	c0.7,0,1.3-0.6,1.3-1.3v-6.6C25.8,11.1,25.3,10.5,24.5,10.5z"/>
</svg>
