<?xml version="1.0" encoding="utf-8"?>
<!-- Generator: Adobe Illustrator 23.0.2, SVG Export Plug-In . SVG Version: 6.00 Build 0)  -->
<svg version="1.1" id="Layer_1" xmlns="http://www.w3.org/2000/svg" xmlns:xlink="http://www.w3.org/1999/xlink" x="0px" y="0px"
	 viewBox="0 0 50 50" style="enable-background:new 0 0 50 50;" xml:space="preserve">
<path d="M7.9,45.2c-1.1,1.1-1.1,2.8,0,3.9c1.1,1.1,2.8,1.1,3.9,0l10.6-10.5l-3.9-4L7.9,45.2z M23.5,33.7
	C23.5,33.7,23.5,33.8,23.5,33.7C23.5,33.8,23.5,33.8,23.5,33.7l0.1,0.1c0.8,0.8,2,1.2,3.5,1.2c3.6,0,8.7-2.5,12.2-6
	c2.2-2.2,3.4-4.5,3.6-6.7c0.1-2.1-0.6-4-2.2-5.6c-1.5-1.5-3.3-2.3-5.2-2.3c-2.4,0-4.8,1.2-7.1,3.5c-2.3,2.2-4.2,5.3-5.3,8.2
	c-1.2,3.3-1.1,5.9,0.3,7.4C23.4,33.7,23.4,33.7,23.5,33.7z M39.3,18.1L39.3,18.1L39.3,18.1c0.2,0.2,0.1,0.8-0.3,1.7
	c-0.7,1.3-2.1,3-4.1,5c-3.9,3.8-8.2,7-9.9,7.5c0.6-1.6,3.7-5.9,7.7-9.8c4.1-4.1,5.9-4.4,6.4-4.4C39.2,18,39.3,18,39.3,18.1z
	 M41,22.3c-0.1,1.8-1.2,3.6-3.1,5.5c-3.1,3.1-7.7,5.4-10.8,5.4c2.8-1.6,6.6-4.8,9.1-7.2c2.1-2.1,3.6-3.9,4.4-5.4
	c0.1-0.1,0.1-0.2,0.1-0.3C41,20.9,41.1,21.6,41,22.3z M29.6,19.3c2-2,4-3,5.9-3c0.6,0,1.2,0.1,1.7,0.3c-1.6,0.7-3.5,2.2-5.8,4.5
	c-2.2,2.2-4.5,4.8-6.1,7.1c-0.5,0.7-0.9,1.4-1.3,1.9c0-0.9,0.3-2,0.7-3.3C25.7,24.2,27.5,21.4,29.6,19.3z M43,40.8
	c0-2-3.6-2.8-7.1-2.8c-3,0-6,0.6-6.9,2L9.3,20.4l-1.5,1.5l0,0l-0.3,0.3c-0.5,0.5-0.5,1.4,0,1.9l6.3,6.3c0.5,0.5,1.4,0.5,1.9,0
	l0.3-0.3l12.4,12.4c0.8,3.2,3.6,5.5,7,5.5c3.7,0,6.8-2.8,7.2-6.5C42.9,41.4,43,41.1,43,40.8z M35.8,39.7c3.3,0,5.1,0.8,5.4,1.2
	c-0.3,0.4-2.1,1.2-5.4,1.2c-3.3,0-5.1-0.8-5.4-1.2C30.7,40.5,32.5,39.7,35.8,39.7z"/>
</svg>
