<?xml version="1.0" encoding="utf-8"?>
<!-- Generator: Adobe Illustrator 23.0.2, SVG Export Plug-In . SVG Version: 6.00 Build 0)  -->
<svg version="1.1" id="Layer_1" xmlns="http://www.w3.org/2000/svg" xmlns:xlink="http://www.w3.org/1999/xlink" x="0px" y="0px"
	 viewBox="0 0 50 50" style="enable-background:new 0 0 50 50;" xml:space="preserve">
<path d="M34.6,38.7c0-4.3-6.2-7.4-12.6-7.8c3.6-2.5,6.1-6.9,6.1-11.7C28.2,11.8,22.4,6,15.1,6C8.3,6,2.3,12.5,2.3,19.9
	c0,5.8,3.9,11,9.2,12.6c-3.2,1.6-4.5,4-4.6,6.3c0,0.2,0,3.9,0,3.9l0,0c0.1,1.2,0.6,2.4,1.6,3.4c2.3,2.4,6.8,3.8,12.1,3.8
	c8.4,0,14-3.1,14-7.7C34.6,42.2,34.6,38.8,34.6,38.7C34.6,38.8,34.6,38.8,34.6,38.7C34.6,38.8,34.6,38.8,34.6,38.7L34.6,38.7
	L34.6,38.7z M19.2,33.9l0.5,4.1L10,38.4C10.5,35.8,14,34.1,19.2,33.9z M10.6,40.7c-0.3-0.3-0.5-0.6-0.6-0.9l9.8-0.4l0.5,4.2
	C16.1,43.6,12.3,42.5,10.6,40.7z M15.2,30.9c-5.8,0-10.7-5-10.7-11c0-6.2,4.9-11.7,10.6-11.7c6.1,0,10.8,4.8,10.8,11
	C25.9,25.4,20.8,30.9,15.2,30.9z M20.7,33.9c4.7,0.1,8.9,1.8,10.4,3.6l-9.9,0.4L20.7,33.9z M21.9,43.6l-0.5-4.3l10.3-0.4
	C31.5,41.4,27.4,43.4,21.9,43.6z M22.3,24c1.2-1.8,2.5-6.7-0.1-10c-3.2-4-7.6-3.8-7.6-3.8C24.5,14.6,22.3,24,22.3,24z M47.5,41.8
	c-0.5-1.5-2.4-3.1-3-3.7l-5-25.3v-0.1c0-0.1,0.8-2.5,1-3.8c0.2-0.8-0.1-1.8-0.8-2.6c-1.1-1.4-3-1.9-4.9-1.5C31.3,5.7,31,7.2,31,9.2
	c0,1.7,2.4,4,3.1,4.7l5.4,24.8l-0.1,0.1c-0.3,0.7-1.9,4.2-0.9,6c0.7,1.3,2.1,2.1,3.8,2.1l0,0c0.6,0,1.2-0.1,1.9-0.3
	c1.3-0.5,2.4-1.3,2.9-2.4C47.8,43.4,47.8,42.6,47.5,41.8z M38.9,8.5c-0.2,0.9-0.6,2.4-0.9,3.2l-2.9,0.6c-1.1-1.1-2.3-2.5-2.3-3.1
	c0-1.4,0-2.1,2.5-2.7c0.3-0.1,0.6-0.1,0.9-0.1c1.2,0,1.8,0.6,2.1,1C38.9,7.9,38.9,8.3,38.9,8.5z M45.8,43.5c-0.3,0.6-1,1.2-1.9,1.5
	c-0.4,0.2-0.9,0.2-1.3,0.2c-1,0-1.8-0.4-2.2-1.2c-0.4-0.7,0.2-2.7,0.7-4l2.4-0.4c0.7,0.6,2.1,1.9,2.4,2.8C46,42.7,46,43.1,45.8,43.5
	z"/>
</svg>
