<?xml version="1.0" encoding="utf-8"?>
<!-- Generator: Adobe Illustrator 23.0.2, SVG Export Plug-In . SVG Version: 6.00 Build 0)  -->
<svg version="1.1" id="Layer_1" xmlns="http://www.w3.org/2000/svg" xmlns:xlink="http://www.w3.org/1999/xlink" x="0px" y="0px"
	 viewBox="0 0 50 50" style="enable-background:new 0 0 50 50;" xml:space="preserve">
<path d="M43.3,19.6H7l-1.6,2.1h39.7L43.3,19.6z M31.4,23.2l-0.5,2.3h-10l-0.5-2.3H5.1l7.3,20.4h25.9l7.3-20.4
	C45.6,23.2,31.4,23.2,31.4,23.2z M10.9,26c-0.5,0-0.9-0.4-0.9-0.9s0.4-0.9,0.9-0.9s0.9,0.4,0.9,0.9C11.8,25.6,11.4,26,10.9,26z
	 M14.5,26c-0.5,0-0.9-0.4-0.9-0.9s0.4-0.9,0.9-0.9s0.9,0.4,0.9,0.9S15,26,14.5,26z M12.7,12.6c0.1-0.9,1.1-1.2,1.1-1.2h22.6
	c1.1,0,1.2,1,1.2,1v4.9h3.1V8.8l-4.6-4.7H14.8L9.9,8.7l-0.1,8.6h2.9C12.7,17.3,12.7,12.6,12.7,12.6z M37.5,45.5H13
	c-0.3,0-0.5,0.2-0.5,0.5v3.5c0,0.3,0.2,0.5,0.5,0.5h24.4c0.3,0,0.5-0.2,0.5-0.5V46C38,45.7,37.7,45.5,37.5,45.5z"/>
</svg>
