<?xml version="1.0" encoding="utf-8"?>
<!-- Generator: Adobe Illustrator 23.0.2, SVG Export Plug-In . SVG Version: 6.00 Build 0)  -->
<svg version="1.1" id="Layer_1" xmlns="http://www.w3.org/2000/svg" xmlns:xlink="http://www.w3.org/1999/xlink" x="0px" y="0px"
	 viewBox="0 0 50 50" style="enable-background:new 0 0 50 50;" xml:space="preserve">
<path d="M47.8,47.3l-2.7-1.7l-0.9-7.2l0,0l-0.4-3.5c0.9-2.4,1.4-5.2,1.4-8.3c0-9-4.4-16.1-10.1-16.1c-1.3,0-2.6,0.4-3.7,1.1
	c-1.1-0.7-2.4-1.1-3.7-1.1c-5.2,0-9.3,6-10,13.9c-0.6,0-1.2,0.2-1.7,0.5c-0.4,0.2-0.8,0.5-1.1,0.8c-0.5-0.4-1-0.8-1.7-1
	c-1.3-0.4-2.5-0.4-3.7,0.2c-2.1,1.1-3,3.7-3.2,4.2c0,0.1,0,0.2-0.1,0.2l-0.9,5.2H3.2c-0.8,0-1.4,0.5-1.6,1.2s0,1.5,0.7,1.9l1.8,1.2
	c0.6,0.4,1.3,0.5,2,0.2s1.1-0.9,1.2-1.6l0.1-0.7h0.1l3,2.1c0.6,0.4,1.3,0.5,2,0.2s1.1-0.9,1.2-1.6l0.1-0.8l0,0l2.3,1.6l0.9,7.6
	c0.1,0.6,0.4,1.2,0.9,1.5l3.4,2.2c0.4,0.3,0.9,0.4,1.4,0.4H47c0.7,0,1.2-0.4,1.4-1.1C48.6,48.3,48.4,47.6,47.8,47.3z M12.8,29
	c0,0.1-0.1,0.2-0.1,0.3l-0.9,5.2h-4l0.8-4.8c0.2-0.8,0.9-2.3,2-2.8c0.5-0.3,1.2-0.3,1.9-0.1c0.4,0.1,0.7,0.4,1,0.6
	C13.1,28.2,12.9,28.8,12.8,29z M15,34.7c-0.2-0.2-0.5-0.2-0.7-0.2l0.7-4.4c0.3,1.1,0.5,2.1,0.6,2.8l0.3,2.4L15,34.7z M35.1,12.3
	c4.5,0,8.2,6.4,8.2,14.3c0,6.1-2.2,11.3-5.3,13.4l-0.8-7.3c0,0,0-0.2,0-0.4c0.4-1.8,0.6-3.7,0.6-5.7c0-3.5-0.7-6.7-1.8-9.3
	c1.4,1.1,3.2,4.4,3.2,9.3c0,0.3,0.2,0.5,0.5,0.5s0.5-0.2,0.5-0.5c0-5.7-2.5-10.2-4.7-10.6c-0.7-1.3-1.5-2.4-2.4-3.2
	C33.7,12.4,34.4,12.3,35.1,12.3z M27.7,12.3c4.5,0,8.2,6.4,8.2,14.3c0,5.5-1.8,10.3-4.5,12.7l-0.7-6.6c0-0.3-0.5-6.6-4.6-8
	c-1.3-0.4-2.5-0.4-3.7,0.2c-0.4,0.2-0.8,0.5-1.1,0.8c-0.5-0.4-1-0.8-1.7-1h-0.1C20.1,17.7,23.6,12.3,27.7,12.3z M35.8,40.8
	c-0.2,0-0.4,0.1-0.7,0.1c-0.7,0-1.4-0.2-2.1-0.5c0.9-0.9,1.7-2,2.4-3.2L35.8,40.8z M22.5,37.6c-0.7-1-1.3-2.2-1.8-3.5l0.7-4
	c0.3,1.1,0.5,2.1,0.6,2.8L22.5,37.6z M20,27.5c-0.2,0.3-0.3,0.6-0.4,0.8c0-0.4,0-0.8-0.1-1.1C19.7,27.2,19.8,27.3,20,27.5z
	 M18.2,35.6l-0.3-3c0-0.2-0.2-2.9-1.5-5.2c0.2-0.2,0.5-0.4,0.7-0.6c0.2-0.1,0.4-0.2,0.6-0.2c0,2.4,0.3,4.6,0.9,6.6L18.2,35.6z
	 M22.7,47.7h-0.1l-3.3-2.1l-0.7-6.3c0.1,0,0.2-0.1,0.4-0.1c0.7-0.3,1.1-0.9,1.2-1.6v-0.2c0.8,1.4,1.7,2.5,2.7,3.4l0.6,5.2
	c0.1,0.6,0.4,1.2,0.9,1.5l0.4,0.3h-2.1V47.7z M24.3,32.6c0-0.2-0.2-2.9-1.5-5.2c0.2-0.2,0.5-0.4,0.7-0.6c0.5-0.3,1.2-0.3,1.9-0.1
	c2.2,0.8,3,4.6,3.1,6l0.9,7.7c-0.5,0.2-1,0.3-1.6,0.3c-0.9,0-1.8-0.3-2.6-0.7L24.3,32.6z M29.1,47.7l-3.4-2.2l-0.4-3.3
	c0.8,0.3,1.5,0.4,2.4,0.4c0.6,0,1.2-0.1,1.8-0.3l0.4,3.5c0.1,0.6,0.4,1.2,0.9,1.5l0.4,0.3L29.1,47.7L29.1,47.7z M35.6,47.7l-3.4-2.2
	l-0.4-3.7c1,0.6,2.2,0.9,3.3,0.9c0.3,0,0.6,0,0.9-0.1l0.4,3.3c0.1,0.6,0.4,1.2,0.9,1.5l0.4,0.3H35.6z M42,47.7l-3.4-2.2l-0.4-3.6
	c1.4-0.7,2.6-1.9,3.7-3.4v0.1l0,0l0.9,7.3c0.1,0.6,0.4,1.2,0.9,1.5l0.4,0.3C44.1,47.7,42,47.7,42,47.7z M27.7,16.9
	c1.4,0,4.1,3.7,4.1,9.7c0,0.3,0.2,0.5,0.5,0.5c0.3,0,0.5-0.2,0.5-0.5c0-6-2.7-10.6-5-10.6c-0.3,0-0.5,0.2-0.5,0.5
	C27.3,16.7,27.5,16.9,27.7,16.9z"/>
</svg>
