<?xml version="1.0" encoding="utf-8"?>
<!-- Generator: Adobe Illustrator 23.0.2, SVG Export Plug-In . SVG Version: 6.00 Build 0)  -->
<svg version="1.1" id="Layer_1" xmlns="http://www.w3.org/2000/svg" xmlns:xlink="http://www.w3.org/1999/xlink" x="0px" y="0px"
	 viewBox="0 0 50 50" style="enable-background:new 0 0 50 50;" xml:space="preserve">
<path d="M22.9,19.2c0,0-1.5-3.9-4.8,2.2l-0.2,0.4c-3.3,6,1.1,4.7,1.1,4.7s-9.9,8.8-1.8,13.2l0.3,0.2c8.1,4.5,9.9-8.2,9.9-8.2
	s1.4,3.8,4.7-2.2l0.2-0.4c3.3-6-0.5-5.2-0.5-5.2s9.5-8.3,1.4-12.7L33,11.1C24.8,6.6,22.9,19.2,22.9,19.2z M31,23
	c-1,1-2.8,3.9-2.8,3.9L28,27.3c0,0-1.5,3-1.8,4.4s-1,7.8-6.7,4.7L19,36.2C13.3,33,18.3,29,19.4,28c1-1,2.8-3.9,2.8-3.9l0.3-0.5
	c0,0,1.5-3,1.8-4.4s1-7.8,6.7-4.7l0.5,0.2C37.1,17.9,32.1,22,31,23z M25.1,24.1c0.2-0.4,0.3-0.7,0.4-1.1s0.2-0.7,0.3-1.1
	c0.1-0.3,0.2-0.7,0.2-1c0.1-0.6,0.1-1.1,0.1-1.5s0-0.6,0-0.6S26,19,25.8,19.3c-0.1,0.2-0.2,0.4-0.3,0.6c-0.1,0.2-0.2,0.5-0.4,0.7
	c-0.1,0.3-0.3,0.6-0.4,0.9s-0.3,0.6-0.5,0.9s-0.3,0.7-0.5,1s-0.4,0.7-0.6,1s-0.4,0.7-0.6,1s-0.4,0.7-0.6,1l-1,1.7
	c-0.3,0.5-0.6,1-0.7,1.3c-0.2,0.3-0.3,0.5-0.3,0.5s0.8-0.4,1.7-1.2c0.5-0.4,1-0.9,1.5-1.5s1-1.3,1.4-2C24.8,24.8,25,24.4,25.1,24.1z
	 M28.5,22.3c-0.3,0.2-0.5,0.4-0.7,0.7c-0.3,0.3-0.5,0.5-0.8,0.8c-0.2,0.3-0.5,0.6-0.7,1c-0.2,0.3-0.4,0.7-0.6,1.1
	c-0.4,0.7-0.7,1.5-1,2.2c-0.2,0.7-0.4,1.4-0.5,2.1c-0.2,1.2-0.1,2.1-0.1,2.1s0.1-0.2,0.3-0.5c0.2-0.3,0.4-0.8,0.7-1.3
	c0.3-0.5,0.6-1.1,0.9-1.8c0.2-0.3,0.3-0.7,0.5-1s0.3-0.7,0.5-1s0.4-0.7,0.5-1c0.2-0.3,0.4-0.7,0.5-1c0.2-0.3,0.3-0.6,0.5-0.9
	s0.3-0.6,0.5-0.8c0.2-0.2,0.3-0.5,0.4-0.7s0.3-0.4,0.3-0.5c0.2-0.3,0.3-0.5,0.3-0.5s-0.2,0.1-0.5,0.3C29.4,21.6,29,21.9,28.5,22.3z
	 M34.4,46.8H14L8,12.6H4.7L11.2,50h25.9l6.5-37.4h-3.3L34.4,46.8z"/>
</svg>
