<?xml version="1.0" encoding="utf-8"?>
<!-- Generator: Adobe Illustrator 23.0.2, SVG Export Plug-In . SVG Version: 6.00 Build 0)  -->
<svg version="1.1" id="Layer_1" xmlns="http://www.w3.org/2000/svg" xmlns:xlink="http://www.w3.org/1999/xlink" x="0px" y="0px"
	 viewBox="0 0 50 50" style="enable-background:new 0 0 50 50;" xml:space="preserve">
<style type="text/css">
	.st0{fill:#231F20;}
</style>
<path class="st0" d="M39.1,46v-3.7H10.9V46H8.2v4h33.6v-4H39.1z M36.3,4H13.7v37h22.7V4H36.3z M16,16.3c0-1.9,0.6-3.7,1.6-5.1
	l5.1,5.1H16z M24.3,16l-5.9-5.9c1.5-1.6,3.6-2.6,5.9-2.8V16z M25.7,7.3c2.3,0.2,4.4,1.2,5.9,2.8L25.7,16V7.3z M32.5,11.2
	c1,1.5,1.6,3.2,1.6,5.1h-6.7L32.5,11.2z M32.9,26.8c-0.8,0-1.5-0.7-1.5-1.5v-1.8c0-0.8,0.7-1.5,1.5-1.5s1.5,0.7,1.5,1.5v1.8
	C34.4,26.1,33.8,26.8,32.9,26.8z"/>
</svg>
