<?xml version="1.0" encoding="utf-8"?>
<!-- Generator: Adobe Illustrator 23.0.2, SVG Export Plug-In . SVG Version: 6.00 Build 0)  -->
<svg version="1.1" id="Layer_1" xmlns="http://www.w3.org/2000/svg" xmlns:xlink="http://www.w3.org/1999/xlink" x="0px" y="0px"
	 viewBox="0 0 50 50" style="enable-background:new 0 0 50 50;" xml:space="preserve">
<style type="text/css">
	.st0{fill:#231F20;}
</style>
<path class="st0" d="M11.2,15.2c0-2,1.6-3.7,3.7-3.7h10.9c-1.4-4.4-5.5-7.7-10.4-7.7c-6,0-10.8,4.8-10.8,10.8v24.5
	c0,6,4.8,10.8,10.8,10.8s10.8-4.8,10.8-10.8V18.8H14.8C12.8,18.8,11.2,17.2,11.2,15.2z M22.6,34.9c0,4-3.2,7.2-7.2,7.2
	s-7.2-3.2-7.2-7.2s3.2-7.2,7.2-7.2C19.3,27.7,22.6,30.9,22.6,34.9z M41.8,12h-27c-1.7,0-3.2,1.4-3.2,3.2c0,1.7,1.4,3.2,3.2,3.2h27
	c1.7,0,3.2-1.4,3.2-3.2S43.6,12,41.8,12z M15.3,39.6c0.6,0,1.2-0.5,1.2-1.2v-7c0-0.6-0.5-1.2-1.2-1.2c-0.6,0-1.2,0.5-1.2,1.2v7
	C14.1,39.1,14.6,39.6,15.3,39.6z"/>
</svg>
