<svg id="Layer_1" data-name="Layer 1" xmlns="http://www.w3.org/2000/svg" viewBox="0 0 20 19"><defs><style>.cls-1{fill:#374551;fill-rule:evenodd;}</style></defs><title>download</title><path id="download-icon" class="cls-1" d="M19.42,9.27a.58.58,0,0,0-.57.58h0v5.34a2.59,2.59,0,0,1-2.57,2.63H3.71a2.6,2.6,0,0,1-2.57-2.63V9.76A.56.56,0,0,0,.6,9.17a.57.57,0,0,0-.6.55v5.47A3.77,3.77,0,0,0,3.71,19H16.28A3.77,3.77,0,0,0,20,15.19V9.85A.57.57,0,0,0,19.42,9.27ZM9.59,14.33a.56.56,0,0,0,.82,0l3.64-3.73a.6.6,0,0,0,0-.83.58.58,0,0,0-.8,0v0l-2.66,2.74V.58A.58.58,0,0,0,10,0a.57.57,0,0,0-.57.57V12.51L6.76,9.77a.56.56,0,0,0-.79,0l0,0a.59.59,0,0,0,0,.83Z"/></svg>