<svg id="Layer_1" data-name="Layer 1" xmlns="http://www.w3.org/2000/svg" viewBox="0 0 50 50"><defs><style>.cls-1{fill-rule:evenodd;}</style></defs><title>dsTimes</title><path class="cls-1" d="M28.19,25.1,49.32,3.89A2.22,2.22,0,0,0,49.38.75L49.32.7A2.17,2.17,0,0,0,46.25.6l-.1.1L25,21.92,3.87.7A2.26,2.26,0,0,0,.68,3.9L21.81,25.11.68,46.32a2.21,2.21,0,0,0-.05,3.14l.05.06A2.72,2.72,0,0,0,2.5,50c.44,0,1.37,0,1.37-.45L25,28.3,46.15,49.52A2.7,2.7,0,0,0,48,50c.46,0,1.36,0,1.36-.45a2.23,2.23,0,0,0,0-3.15l0,0Z"/></svg>