<?xml version="1.0" encoding="utf-8"?>
<!-- Generator: Adobe Illustrator 23.0.2, SVG Export Plug-In . SVG Version: 6.00 Build 0)  -->
<svg version="1.1" id="Layer_1" xmlns="http://www.w3.org/2000/svg" xmlns:xlink="http://www.w3.org/1999/xlink" x="0px" y="0px"
	 viewBox="0 0 50 50" style="enable-background:new 0 0 50 50;" xml:space="preserve">
<path d="M13.5,27.9c-0.6,0.2-1,0.8-0.8,1.4c0.1,0.5,0.6,0.9,1.1,0.9c0.1,0,0.2,0,0.3,0c1.8-0.5,5.3-2.4,5.4-6.3c0-0.5,0-0.9-0.1-1.3
	c1.1-0.5,2.6-1.9,2.3-4.4c-0.3-2.3-2.7-2.4-3.4-2.4l0.1-0.1c1.8-2.6,4.3-3.5,6.7-2.6s2.5,3.4,2.4,4.8c-0.2,1.9-1,2.7-2.5,3.7
	c-0.5,0.3-0.7,1.1-0.4,1.6c0.3,0.5,1.1,0.7,1.6,0.4c1.6-1,3.2-2.3,3.6-5.4c0.4-3.4-1.1-6.1-3.8-7.2c-3.5-1.3-7-0.1-9.5,3.4
	c-1.8,2.6-0.9,4.7-0.1,6.5c0.4,1,0.9,2,0.9,3.1C17.1,26.9,13.6,27.8,13.5,27.9z M23.7,2.4c-7.4,0-10.7,4.3-10.8,4.5
	c-0.4,0.5-0.3,1.2,0.2,1.6s1.2,0.3,1.6-0.2c0.1-0.1,2.8-3.6,9-3.6c6.4,0,11.8,5.2,11.8,11.4c0,4.3-1.4,7.7-4.2,10l-0.2,0.1
	c-1.3,1.1-4,3.3-5.7,8.1c-0.1,0.2-0.1,0.3-0.2,0.5c0.9,0.3,1.6,0.7,2.1,1.1c0.1-0.3,0.2-0.5,0.3-0.8c1.4-4.1,3.7-6,4.9-7l0.2-0.1
	c3.4-2.8,5.1-6.8,5.1-11.8C37.8,8.7,31.4,2.4,23.7,2.4z M21.9,35.3c-1.1,0.1-1.9,1-1.9,2.1c0.1,1.1,1,1.9,2.1,1.9
	c1.9-0.1,3.4,1.3,3.5,3.2c0.1,1.8-1.3,3.4-3.2,3.5c-0.9,0-1.7-0.3-2.4-0.9c-0.5-0.4-0.8-0.9-0.9-1.5c0.1,0,0.3,0,0.4,0
	c2.2,0,3.8-0.8,5-2.1c-0.6-0.8-1.5-1.1-2-1.3c-0.8,0.7-1.7,1-2.9,1c-4.8,0-4.9-4.8-4.9-5c0-0.6-0.5-1.2-1.2-1.2
	c-0.6,0-1.2,0.5-1.2,1.2c0,1.9,0.8,4.4,2.8,6C15,42.4,15,42.7,15,43c0.1,2,0.9,3.8,2.4,5.1c1.4,1.2,3.1,1.9,4.9,1.9
	c0.1,0,0.2,0,0.4,0c4-0.2,7.2-3.6,7-7.7C29.4,38.3,25.9,35.1,21.9,35.3z"/>
</svg>
