<?xml version="1.0" encoding="utf-8"?>
<!-- Generator: Adobe Illustrator 23.0.3, SVG Export Plug-In . SVG Version: 6.00 Build 0)  -->
<svg version="1.1" id="Layer_1" xmlns="http://www.w3.org/2000/svg" xmlns:xlink="http://www.w3.org/1999/xlink" x="0px" y="0px"
	 viewBox="0 0 50 50" style="enable-background:new 0 0 50 50;" xml:space="preserve">
<style type="text/css">
	.st0{fill:#231F20;}
</style>
<path class="st0" d="M42.7,26.6h-0.4c-0.8,0-1.4,0.6-1.4,1.4v18.7H9.7V28c0-0.8-0.6-1.4-1.4-1.4H7.9c-0.8,0-1.4,0.6-1.4,1.4v20.5
	c0,0.8,0.6,1.4,1.4,1.4h0.4c0.1,0,0.1,0,0.2,0c0.1,0,0.1,0,0.2,0H42c0.1,0,0.1,0,0.2,0c0.1,0,0.1,0,0.2,0h0.4c0.8,0,1.4-0.6,1.4-1.4
	V28C44.2,27.2,43.5,26.6,42.7,26.6z M45.2,13.7c-0.3,0-0.5-0.1-0.8-0.2L25.4,3.7L6.3,13.6c-0.9,0.4-1.9,0.1-2.4-0.8
	c-0.4-0.9-0.1-1.9,0.8-2.4L24.5,0.2c0.5-0.3,1.1-0.3,1.6,0L46,10.4c0.9,0.4,1.2,1.5,0.8,2.4C46.5,13.4,45.9,13.7,45.2,13.7z
	 M37.8,17.4c-1.1,0.6-4.7,1.1-5.8,0.8c0.1,0.2,0.1,0.4,0.1,0.6c0,1-0.8,1.8-1.8,1.8s-1.8-0.8-1.8-1.8c0-0.2,0-0.4,0.1-0.6
	c-1.1,0.3-4.7-0.2-5.8-0.8c-1.2-0.7-1.6-2.3-0.9-3.5c0.7-1.2,2.3-1.6,3.5-0.9c1.1,0.6,3.3,3.6,3.5,4.7c0.3-0.4,0.8-0.6,1.3-0.6
	c0.5,0,1,0.2,1.3,0.6c0.2-1.1,2.4-4.1,3.5-4.7c1.2-0.7,2.8-0.3,3.5,0.9C39.4,15.1,39,16.7,37.8,17.4z M18.7,37.8
	c-0.3,0-0.5-0.2-0.5-0.5c0-0.2,0-0.4,0-0.5c0-0.3,0.2-0.5,0.5-0.5c0.3,0,0.5,0.3,0.5,0.5c0,0.2,0,0.3,0,0.5
	C19.2,37.6,19,37.8,18.7,37.8z M19,35.4c0,0-0.1,0-0.1,0c-0.3-0.1-0.4-0.4-0.3-0.6c0.1-0.3,0.2-0.7,0.3-1c0.1-0.3,0.4-0.4,0.7-0.3
	c0.3,0.1,0.4,0.4,0.3,0.7c-0.1,0.3-0.2,0.6-0.3,0.9C19.4,35.2,19.2,35.4,19,35.4z M20.3,32.8c-0.1,0-0.2,0-0.3-0.1
	c-0.2-0.2-0.3-0.5-0.1-0.7c0.2-0.3,0.4-0.5,0.6-0.8c0.2-0.2,0.5-0.2,0.7,0c0.2,0.2,0.2,0.5,0,0.7c-0.2,0.2-0.4,0.5-0.6,0.7
	C20.6,32.7,20.4,32.8,20.3,32.8z M31.1,31.9c-0.2,0-0.5-0.2-0.5-0.4c0-0.3,0.1-0.5,0.4-0.6c0.3,0,0.6-0.1,0.9-0.2
	c0.3-0.1,0.5,0,0.6,0.3c0.1,0.3,0,0.5-0.3,0.6C31.9,31.8,31.6,31.9,31.1,31.9C31.2,31.9,31.2,31.9,31.1,31.9z M29.2,31.9
	c0,0-0.1,0-0.1,0c-0.3-0.1-0.7-0.2-1-0.3c-0.3-0.1-0.4-0.4-0.3-0.7c0.1-0.3,0.4-0.4,0.7-0.3c0.3,0.1,0.6,0.2,0.8,0.3
	c0.3,0.1,0.4,0.3,0.4,0.6C29.6,31.7,29.4,31.9,29.2,31.9z M33.8,30.8c-0.1,0-0.3-0.1-0.4-0.2c-0.2-0.2-0.1-0.5,0.1-0.7
	c0.2-0.2,0.4-0.4,0.6-0.6c0.2-0.2,0.5-0.2,0.7-0.1c0.2,0.2,0.2,0.5,0.1,0.7c-0.2,0.3-0.5,0.5-0.8,0.7C34,30.7,33.9,30.8,33.8,30.8z
	 M22.3,30.7c-0.2,0-0.3-0.1-0.4-0.2c-0.2-0.2-0.1-0.5,0.1-0.7c0.3-0.2,0.6-0.4,0.9-0.6c0.2-0.1,0.5,0,0.7,0.2c0.1,0.2,0,0.5-0.2,0.7
	c-0.3,0.1-0.5,0.3-0.8,0.5C22.5,30.7,22.4,30.7,22.3,30.7z M26.7,30.6c-0.1,0-0.2,0-0.3-0.1c-0.3-0.2-0.5-0.5-0.7-0.8
	c-0.1-0.1-0.1-0.2-0.1-0.3c-0.1,0-0.3,0.1-0.4,0.1c-0.3,0.1-0.5-0.1-0.6-0.3c-0.1-0.3,0.1-0.5,0.3-0.6c0.3-0.1,0.7-0.2,1-0.2
	c0.3-0.1,0.5,0.1,0.6,0.4c0,0.1,0,0.2,0,0.3c0,0,0.1,0.1,0.1,0.1c0.2,0.2,0.4,0.5,0.6,0.7c0.2,0.2,0.2,0.5,0,0.7
	C26.9,30.5,26.8,30.6,26.7,30.6z M27.8,29c-0.2,0-0.5-0.2-0.5-0.4c0-0.3,0.1-0.5,0.4-0.6c0.3,0,0.5-0.1,0.7-0.3
	c0.2-0.1,0.5-0.1,0.7,0.2c0.1,0.2,0.1,0.5-0.2,0.7C28.6,28.8,28.3,29,27.8,29C27.9,29,27.8,29,27.8,29z M35.4,28.4
	c-0.1,0-0.1,0-0.2,0c-0.3-0.1-0.4-0.4-0.3-0.6c0.1-0.3,0.2-0.6,0.2-0.9c0-0.3,0.3-0.5,0.6-0.4c0.3,0,0.5,0.3,0.4,0.6
	c-0.1,0.4-0.1,0.7-0.3,1C35.8,28.3,35.6,28.4,35.4,28.4z M25.1,28.1c-0.2,0-0.4-0.1-0.5-0.4c-0.1-0.3-0.2-0.7-0.2-1
	c0-0.3,0.2-0.5,0.4-0.5c0.3,0,0.5,0.2,0.5,0.4c0,0.3,0.1,0.6,0.2,0.9c0.1,0.3-0.1,0.5-0.3,0.6C25.2,28.1,25.2,28.1,25.1,28.1z
	 M29.8,27.1c0,0-0.1,0-0.1,0c-0.3-0.1-0.4-0.3-0.4-0.6c0-0.1,0-0.3,0-0.4c0-0.1,0-0.2,0-0.4c-0.1-0.3,0.1-0.5,0.4-0.6
	c0.3-0.1,0.5,0.1,0.6,0.4c0,0.2,0,0.4,0,0.5c0,0.2,0,0.4-0.1,0.6C30.2,27,30,27.1,29.8,27.1z M35.6,25.5c-0.2,0-0.4-0.2-0.5-0.4
	c-0.1-0.3-0.1-0.6-0.3-0.8c-0.1-0.3,0-0.5,0.3-0.7c0.3-0.1,0.5,0,0.7,0.3c0.1,0.3,0.2,0.7,0.3,1c0.1,0.3-0.1,0.5-0.4,0.6
	C35.7,25.5,35.6,25.5,35.6,25.5z M25.3,25.3c-0.1,0-0.2,0-0.3-0.1c-0.2-0.2-0.3-0.5-0.1-0.7c0.2-0.3,0.5-0.6,0.8-0.8
	c0.2-0.2,0.5-0.1,0.7,0.1c0.2,0.2,0.1,0.5-0.1,0.7c-0.2,0.1-0.4,0.3-0.5,0.5C25.7,25.2,25.5,25.3,25.3,25.3z M28.8,24.6
	c-0.1,0-0.2,0-0.3-0.1c-0.2-0.1-0.5-0.2-0.7-0.3c-0.3-0.1-0.4-0.3-0.4-0.6c0.1-0.3,0.3-0.4,0.6-0.4c0.4,0.1,0.7,0.2,1.1,0.4
	c0.2,0.2,0.3,0.5,0.1,0.7C29.1,24.5,28.9,24.6,28.8,24.6z M34.2,22.9c-0.1,0-0.3-0.1-0.4-0.2c-0.1-0.1-0.2-0.2-0.3-0.3
	c-0.2-0.2-0.2-0.5,0-0.7c0.2-0.2,0.5-0.2,0.7,0c0.1,0.1,0.3,0.2,0.4,0.4c0.2,0.2,0.2,0.5,0,0.7C34.5,22.9,34.4,22.9,34.2,22.9z"/>
</svg>
