<?xml version="1.0" encoding="utf-8"?>
<!-- Generator: Adobe Illustrator 23.0.3, SVG Export Plug-In . SVG Version: 6.00 Build 0)  -->
<svg version="1.1" id="Layer_1" xmlns="http://www.w3.org/2000/svg" xmlns:xlink="http://www.w3.org/1999/xlink" x="0px" y="0px"
	 viewBox="0 0 50 50" style="enable-background:new 0 0 50 50;" xml:space="preserve">
<style type="text/css">
	.st0{fill-rule:evenodd;clip-rule:evenodd;fill:#231F20;}
</style>
<path id="family" class="st0" d="M48.6,50V33.4c0-6.3-5.1-11.4-11.4-11.4h-0.4c-3.1,0-6,1.2-8.2,3.5c-0.1,0-0.2,0.1-0.3,0.2
	c0-0.1,0-0.1,0-0.1c0-5.4-3.1-8.5-8.6-8.5h0c-2.5,0-4.4,0.7-5.9,1.9H7.8c-4.3,0-7.8,3.5-7.8,7.8V50 M29.3,50H26v-5.6
	c0-0.5,0.1-1,0.4-1.5c0.3-0.7,0.9-1.2,1.5-1.6c0.5-0.3,1-0.4,1.5-0.4c0,0,0.1,0,0.1,0h4.9c1.6,0,3.5,1.6,3.5,3.5V50L29.3,50L29.3,50
	z M13,50V38.2c0-2.2,1.8-4,4-4h5.4c0.3,0,0.6,0.1,0.9,0.2c0.3,0.1,0.6,0.2,0.9,0.4c0.2,1.1,0.6,2.1,1.2,2.9c0.3,0.4,0.6,0.8,0.9,1.1
	c-0.3,0.2-0.6,0.4-0.9,0.7c-1,0.8-1.7,1.9-2.1,3.1c-0.2,0.6-0.3,1.2-0.3,1.9V50H13L13,50z M23.9,29.6c-0.2,0.2-0.4,0.3-0.6,0.5
	c-1.1,0.7-2.3,1-3.6,0.9h0c-3.7,0-5.6-1.8-5.6-5.6c0-3.5,1.7-5.3,5.2-5.4c0.1,0,0.2,0,0.3,0h0c3.7,0,5.6,1.8,5.6,5.5
	C25.2,27.3,24.7,28.7,23.9,29.6 M36.9,32.8c0,1.6-0.4,2.9-1.2,3.7c-0.8,0.8-2.1,1.2-3.7,1.2h0c-0.9,0-1.9-0.2-2.7-0.6
	c-1.4-0.7-2.1-2-2.2-4c0-0.1,0-0.2,0-0.3c0-1.6,0.4-2.8,1.2-3.6c0.8-0.8,2.1-1.2,3.7-1.2h0c1.7,0,3,0.4,3.8,1.2
	C36.5,30,36.9,31.2,36.9,32.8 M36.9,20.1c5.7,0,8.5-3.2,8.5-8.5s-2.9-8.4-8.5-8.4c-5.7,0-8.5,3.1-8.5,8.4
	C28.4,17,31.3,20.1,36.9,20.1 M11.6,16.9c5.7,0,8.5-3.2,8.5-8.5S17.3,0,11.6,0C6,0,3.1,3.1,3.1,8.4S5.9,16.9,11.6,16.9"/>
</svg>
