<svg xmlns="http://www.w3.org/2000/svg" width="106.69" height="109.874" viewBox="0 0 106.69 109.874">
  <defs>
    <style>
      .cls-1 {
        fill: #2C4351;
        fill-rule: evenodd;
      }
    </style>
  </defs>
  <path id="family" class="cls-1" d="M1511.54,1066.29v-36.44a25.146,25.146,0,0,0-25.14-25.14h-0.82a25.072,25.072,0,0,0-17.97,7.6c-0.27.09-.49,0.24-0.76,0.35,0.01-.11.03-0.22,0.03-0.32,0.02-11.87-6.85-18.68-18.84-18.709h-0.06c-5.43,0-9.74,1.461-12.91,4.1h-13.05a17.2,17.2,0,0,0-17.18,17.172v51.39m64.48,0h-7.42v-12.28a7.5,7.5,0,0,1,.77-3.24,7.715,7.715,0,0,1,3.33-3.45,7.363,7.363,0,0,1,3.32-.96c0.1-.01.19-0.07,0.29-0.07h10.76c3.46,0,7.71,3.56,7.71,7.72v12.28h-18.76Zm-35.99,0v-26a8.772,8.772,0,0,1,8.77-8.76h11.8a7.336,7.336,0,0,1,2.03.35,9.149,9.149,0,0,1,1.95.88,16.858,16.858,0,0,0,2.57,6.46,13.723,13.723,0,0,0,2.03,2.39,15.41,15.41,0,0,0-2.03,1.43,14.316,14.316,0,0,0-4.52,6.82,14.656,14.656,0,0,0-.68,4.15v12.28h-21.92Zm23.93-44.87a7.6,7.6,0,0,1-1.33,1.05,13.752,13.752,0,0,1-7.9,2.06h-0.05c-8.23-.02-12.23-4.03-12.21-12.26,0.02-7.8,3.84-11.64,11.49-11.89,0.26-.01.44-0.1,0.71-0.1h0.06c8.23,0.02,12.21,3.96,12.2,12.04-0.01,4.03-1.01,7.09-2.97,9.1m28.59,7.07c-0.01,3.6-.89,6.33-2.63,8.11-1.77,1.82-4.53,2.74-8.2,2.74h-0.05a12.9,12.9,0,0,1-5.91-1.36c-3.03-1.52-4.66-4.39-4.83-8.79-0.01-.27-0.1-0.46-0.1-0.74,0.01-3.56.89-6.24,2.6-7.98,1.76-1.77,4.53-2.66,8.23-2.66h0.06c3.72,0.01,6.5.91,8.26,2.7,1.71,1.73,2.58,4.43,2.57,7.98m0.18-27.84c12.46-.03,18.67-7.046,18.65-18.731s-6.27-18.418-18.72-18.4c-12.47.029-18.68,6.79-18.66,18.468s6.27,18.68,18.73,18.66m-55.68-7.109c12.46,0.022,18.71-6.97,18.73-18.655s-6.19-18.44-18.66-18.469c-12.45-.021-18.7,6.718-18.72,18.4s6.19,18.705,18.65,18.727" transform="translate(-1404.84 -956.406)"/>
</svg>
