<?xml version="1.0" encoding="utf-8"?>
<!-- Generator: Adobe Illustrator 23.0.2, SVG Export Plug-In . SVG Version: 6.00 Build 0)  -->
<svg version="1.1" id="Layer_1" xmlns="http://www.w3.org/2000/svg" xmlns:xlink="http://www.w3.org/1999/xlink" x="0px" y="0px"
	 viewBox="0 0 50 50" style="enable-background:new 0 0 50 50;" xml:space="preserve">
<path d="M27.9,19.5c-0.7-0.6-1.6-0.7-2.5-0.7c-0.8,0-1.9,0.2-2.4,0.8c-0.6,0.7-0.3,1.6,0.3,2.1c0.7,0.7,1.7,0.8,2.6,0.8s2,0,2.5-0.8
	C28.9,21,28.5,20,27.9,19.5z M39.7,24.2L39.7,24.2H34c1-1.4,1.6-3.1,1.7-4.9c2.3-0.7,3.9-2.8,3.9-5.3c0-3.1-2.5-5.6-5.6-5.6
	c-1.3,0-2.5,0.4-3.5,1.2c-1.5-0.8-3.2-1.3-5-1.3S22,8.8,20.6,9.6c-0.9-0.7-2.1-1.2-3.4-1.2c-3.1,0-5.6,2.5-5.6,5.6
	c0,2.5,1.6,4.6,3.8,5.3c0.1,1.8,0.8,3.5,1.7,4.9h-6.9c-2.2,0-4,1.8-4,4s1.8,4,4,4l0,0H15c-0.2,0.8-0.4,1.6-0.4,2.4
	c0.4-0.1,0.8-0.1,1.2-0.1c1.3,0,2.5,0.3,3.5,0.9c2.4,1.4,4.7,4.3,5.6,7.4c1-3.1,3.3-6,5.7-7.4c1-0.6,2.2-0.9,3.5-0.9
	c0.4,0,0.8,0,1.2,0.1c-0.1-0.8-0.2-1.7-0.4-2.4h4.7c2.2,0,4-1.8,4-4C43.7,26,41.9,24.2,39.7,24.2z M16.4,16.7c0,0-3.8-1-2.4-3.9
	c1.2-2.6,4-2.3,5.2-1.4C19.2,11.4,16.9,13.6,16.4,16.7z M25.3,26.9c-3.1,0-5.4-1.9-5.4-5s2.5-5.6,5.6-5.6s5.6,2.5,5.6,5.6
	S28.4,26.9,25.3,26.9z M37.4,12.2c1.3,2.3-2.4,4.2-2.4,4.2c-0.5-2.5-2.7-4.9-2.7-4.9C33.4,10.6,36.1,9.8,37.4,12.2z M18.2,37.5
	c-0.7-0.4-1.5-0.6-2.4-0.6c-1.5,0-3.4,0.6-4.4,2.4c-1.3,2.4-1.1,5.4,0.3,7l0.1,0.1c1.6,2.3,3.9,3.6,6.2,3.6c0.3,0,0.7,0,1-0.1
	c2.3-0.4,3.6-1.5,3.9-3.3C23.7,43.4,21,39,18.2,37.5z M34.2,36.9c-0.9,0-1.7,0.2-2.3,0.6c-2.7,1.6-5.4,5.9-4.9,9.1
	c0.3,1.8,1.6,2.9,3.9,3.3c0.3,0.1,0.7,0.1,1,0.1c2.3,0,4.6-1.3,6.2-3.6l0.1-0.1c1.4-1.5,1.6-4.5,0.3-7
	C37.7,37.5,35.8,36.9,34.2,36.9z"/>
</svg>
