<?xml version="1.0" encoding="utf-8"?>
<!-- Generator: Adobe Illustrator 23.0.2, SVG Export Plug-In . SVG Version: 6.00 Build 0)  -->
<svg version="1.1" id="Layer_1" xmlns="http://www.w3.org/2000/svg" xmlns:xlink="http://www.w3.org/1999/xlink" x="0px" y="0px"
	 viewBox="0 0 50 50" style="enable-background:new 0 0 50 50;" xml:space="preserve">
<style type="text/css">
	.st0{fill:#231F20;}
</style>
<path class="st0" d="M47,13.4l-8.5-8.5c-1.7-1.7-4.4-1.6-5.9,0.2L23,16.3c-1.4,1.6-1.3,4.1,0.2,5.6l2.3,2.3L20,29.5l-0.7-0.7
	c-0.6-0.6-1.6-0.6-2.2,0l-14,14c-1.6,1.6-1.6,4.3,0,5.9c1.6,1.6,4.3,1.6,5.9,0l14-14c0.6-0.6,0.6-1.6,0-2.2l-0.7-0.7l5.4-5.4
	l2.3,2.3c1.5,1.5,4,1.6,5.6,0.2l11.2-9.6C48.6,17.8,48.7,15.1,47,13.4z M7.6,46.5c-0.6,0.6-1.6,0.6-2.2,0s-0.6-1.6,0-2.2
	c0.6-0.6,1.6-0.6,2.2,0C8.2,44.9,8.2,45.9,7.6,46.5z M38.6,10.5c0.4,0.4,0.4,0.9,0,1.3L28.9,22c-0.2,0.2-0.4,0.3-0.7,0.3
	c-0.2,0-0.5-0.1-0.6-0.3c-0.4-0.4-0.4-0.9,0-1.3l9.7-10.2C37.6,10.1,38.2,10.1,38.6,10.5z M25.1,18.2l9.2-10.7
	c0.3-0.4,0.9-0.4,1.3-0.1c0.4,0.4,0.4,1,0.1,1.4l-9.2,10.7c-0.2,0.2-0.4,0.3-0.7,0.3c-0.2,0-0.4-0.1-0.6-0.2
	C24.8,19.2,24.7,18.6,25.1,18.2z M30.7,24.7c-0.2,0-0.5-0.1-0.7-0.3c-0.4-0.4-0.3-1,0-1.3l10.2-9.7c0.4-0.4,1-0.3,1.3,0
	c0.4,0.4,0.3,1,0,1.3l-10.2,9.7C31.2,24.6,30.9,24.7,30.7,24.7z M44.4,17.8L33.8,27c-0.2,0.2-0.4,0.2-0.6,0.2
	c-0.3,0-0.5-0.1-0.7-0.3c-0.3-0.4-0.3-1,0.1-1.3l10.7-9.2c0.4-0.3,1-0.3,1.3,0.1C44.9,16.8,44.8,17.4,44.4,17.8z M3.3,13.1l8.1,7.6
	c0.2,0.2,0.5,0.3,0.8,0.3s0.6-0.1,0.8-0.3l8.1-7.5c1-1,1.5-2.4,1.5-4.2c0-3.5-2-5.4-5.3-5.4c-2.6,0-4.4,1.1-5.1,3.3
	c-0.6-2.2-2.4-3.3-5-3.3C3.9,3.6,1.8,5.5,1.8,9C1.8,10.6,2.2,12.1,3.3,13.1z"/>
</svg>
