<?xml version="1.0" encoding="utf-8"?>
<!-- Generator: Adobe Illustrator 23.0.2, SVG Export Plug-In . SVG Version: 6.00 Build 0)  -->
<svg version="1.1" id="Layer_1" xmlns="http://www.w3.org/2000/svg" xmlns:xlink="http://www.w3.org/1999/xlink" x="0px" y="0px"
	 viewBox="0 0 50 50" style="enable-background:new 0 0 50 50;" xml:space="preserve">
<style type="text/css">
	.st0{fill:#231F20;}
</style>
<path class="st0" d="M46.2,35.9v-0.3c1.2-2.2,1.4-5.7,1.5-7.5c0-0.6-0.5-1.1-1-0.9c-1.9,0.7-4.9,3.2-6.2,6.8
	c-2.4-2.6-7.9-7.5-15.5-8.7c0.1-0.7,0.2-1.4,0.3-1.9c0.1-0.8-0.4-1.5-1.1-1.6h-4.4c-0.7,0-1.3,0.3-1.7,0.9c-0.7,1-1.3,2.4-1.6,2.9
	C7.2,28,2.3,35.8,2.3,35.8l0,0c0,0,5.4,8.5,15.3,10.4c0.7,4.3,4.2,3.8,4.2,3.8c0.5,0,0.8-0.5,0.7-0.9c-0.4-1.1-0.4-2-0.3-2.5
	c4-0.1,7.5-1.3,10.4-2.8c0.6,0.4,1.7,0.9,2.5,0.3c0.7-0.6,0.3-1.3,0-1.7c2.5-1.6,4.3-3.4,5.5-4.6c1.1,3.7,4,5.9,6.3,6.8
	c0.5,0.2,0.9-0.3,0.9-0.9C47.7,41.7,47.4,38.1,46.2,35.9z M10.3,38.1c-1.7,0-3.1-1.4-3.1-3.1c0-1.7,1.4-3.1,3.1-3.1s3.1,1.4,3.1,3.1
	S12,38.1,10.3,38.1z M10.3,33.8c0.7,0,1.2,0.5,1.2,1.2s-0.5,1.2-1.2,1.2S9.1,35.7,9.1,35S9.6,33.8,10.3,33.8z"/>
</svg>
