<svg id="svg2" xmlns="http://www.w3.org/2000/svg" viewBox="0 0 33.33 33.33"><defs><style>.cls-1{fill:#231f20;}</style></defs><title>floor</title><path id="g10" class="cls-1" d="M32,9.9,17.09,1.63a1.15,1.15,0,0,0-1,0L1.24,9.9a1.08,1.08,0,0,0-.53.92v.31a1,1,0,0,0,1.53.92l.54-.31v20.6a1,1,0,0,0,1.07,1h.3a1,1,0,0,0,1.08-1.07V10.36l10.87-6a1.15,1.15,0,0,1,1,0l11,6.05v21.9a1,1,0,0,0,1.08,1.07h.3a1,1,0,0,0,1.07-1.07V11.66L31,12a1,1,0,0,0,1.53-.92v-.3A1.16,1.16,0,0,0,32,9.9m-8.5,16.62H9.67a2.68,2.68,0,1,0,0,5.36H23.45a2.72,2.72,0,0,0,2.68-2.68,2.66,2.66,0,0,0-2.68-2.68"/></svg>