<?xml version="1.0" encoding="utf-8"?>
<!-- Generator: Adobe Illustrator 23.0.2, SVG Export Plug-In . SVG Version: 6.00 Build 0)  -->
<svg version="1.1" id="Layer_1" xmlns="http://www.w3.org/2000/svg" xmlns:xlink="http://www.w3.org/1999/xlink" x="0px" y="0px"
	 viewBox="0 0 50 50" style="enable-background:new 0 0 50 50;" xml:space="preserve">
<style type="text/css">
	.st0{fill:#231F20;}
</style>
<path class="st0" d="M32.4,25.9L32.4,25.9h-2l1-1.9c0.3-0.5,0.1-1.2-0.4-1.5s-1.2-0.1-1.5,0.4l-1.7,3h-2.3l-1.4-2.4l1.2-2.1h3.4
	c0.6,0,1.1-0.5,1.1-1.1s-0.5-1.1-1.1-1.1h-2.2l1-1.8c0.3-0.5,0.1-1.2-0.4-1.5c-0.5-0.3-1.2-0.1-1.5,0.4l-1,1.7l-1.1-1.9
	c-0.3-0.5-1-0.7-1.5-0.4c-0.5,0.3-0.7,1-0.4,1.5l1.8,3l-1.2,2.2h-2.7l-1.2-2.2l1.8-3c0.3-0.5,0.1-1.2-0.4-1.5
	c-0.5-0.3-1.2-0.1-1.5,0.4L16.8,18l-1-1.7c-0.3-0.5-1-0.7-1.5-0.4c-0.5,0.3-0.7,1-0.4,1.5l1,1.8h-2.1c-0.6,0-1.1,0.5-1.1,1.1
	s0.5,1.1,1.1,1.1h3.4l1.2,2.1L16,26h-2.4l-1.7-3c-0.3-0.5-1-0.7-1.5-0.4c-0.5,0.3-0.7,1-0.4,1.5l1,1.9H9l0,0c-0.6,0-1.1,0.5-1.1,1.1
	s0.5,1.1,1.1,1.1h1.9l-1.1,1.9c-0.3,0.5-0.1,1.2,0.4,1.5c0.2,0.1,0.4,0.2,0.6,0.2c0.4,0,0.8-0.2,1-0.6l1.7-3h2.4l1.5,2.4l-1.2,2.1
	h-3.4c-0.6,0-1.1,0.5-1.1,1.1s0.5,1.1,1.1,1.1H15l-1,1.8c-0.3,0.5-0.1,1.2,0.4,1.5c0.2,0.1,0.4,0.1,0.5,0.1c0.4,0,0.8-0.2,1-0.6
	l1-1.7l1.1,1.9c0.2,0.4,0.6,0.6,1,0.6c0.2,0,0.4-0.1,0.6-0.2c0.5-0.3,0.7-1,0.4-1.5l-1.8-3l1.2-2.1h2.8l1.2,2.1l-1.8,3
	c-0.3,0.5-0.1,1.2,0.4,1.5c0.2,0.1,0.4,0.2,0.6,0.2c0.4,0,0.8-0.2,1-0.6l1.1-1.9l1,1.7c0.2,0.4,0.6,0.6,1,0.6c0.2,0,0.4,0,0.5-0.1
	c0.5-0.3,0.7-1,0.4-1.5l-1-1.8h2.2c0.6,0,1.1-0.5,1.1-1.1s-0.5-1.1-1.1-1.1h-3.4L24,30.5l1.3-2.3h2.6l1.7,3c0.2,0.4,0.6,0.6,1,0.6
	c0.2,0,0.4,0,0.6-0.2c0.5-0.3,0.7-1,0.4-1.5l-1.1-1.9h1.9c0.6,0,1.1-0.5,1.1-1.1C33.5,26.4,33,25.9,32.4,25.9z M19.4,29.5L19.4,29.5
	l-1.5-2.4V27l0,0l1.4-2.3h2.8l1.3,2.1l-1.5,2.6L19.4,29.5L19.4,29.5z M44.6,9.5h-1.8V8.6c0-1.7-1.4-3.1-3.1-3.1h-5.1V47
	c0,0.1,0,0.2,0,0.3v1.8c0,0.5,0.4,0.9,0.9,0.9h2.3c0.5,0,0.9-0.4,0.9-0.9v-1.2h0.9c1.7,0,3.1-1.4,3.1-3.1V21.2h1.8
	c1.4,0,2.6-1.2,2.6-2.6v-6.5C47.2,10.6,46,9.5,44.6,9.5z M44.5,18.5h-1.7v-6.4h1.7V18.5z M6.3,41.8V13.1c0-0.9,0.9-1.7,2-1.7h23.4
	V7.9H8.3c-3,0-5.4,2.3-5.4,5.2v28.7c0,2.7,2.1,4.9,4.9,5.1V47v2c0,0.6,0.5,1,1,1h2.4c0.6,0,1-0.5,1-1v-1.9V47h19.5v-3.4H8.3
	C7.2,43.6,6.3,42.8,6.3,41.8z"/>
</svg>
