<svg id="svg2" xmlns="http://www.w3.org/2000/svg" viewBox="0 0 33.33 33.33"><defs><style>.cls-1{fill:#231f20;}</style></defs><title>fruit-tree</title><path id="g10" class="cls-1" d="M33,1.84s-8.56,1.52-20.58,8.52a10.43,10.43,0,0,0,.87-3.7,6.75,6.75,0,0,0,0-1c0-.13,0-.26,0-.38l0-.22h0A6.71,6.71,0,0,0,9,0S7.44,5.23,12.35,7.66A8.07,8.07,0,0,1,9.61,12,107.05,107.05,0,0,0,.44,18.49v6a91.62,91.62,0,0,1,9.91-9.23,9.29,9.29,0,0,1,5.42-1.79,7.62,7.62,0,0,1,7,4.13,6.5,6.5,0,0,0-3.94-1.2c-3.8-.06-5,4.18-5,7.56s3.12,9.35,6.43,9.35c2.54,0,2.92-.87,2.92-.87h.05s.38.87,2.92.87c3.32,0,6.43-6,6.43-9.35s-1.17-7.62-5-7.56a6.5,6.5,0,0,0-3.83,1.12,10.44,10.44,0,0,0-1.18-1.95c.93-.13,6.26-1.17,6.5-8a7.5,7.5,0,0,0-6.64,7.87A8,8,0,0,0,16,12.31a11.43,11.43,0,0,0-2,.17A63.66,63.66,0,0,1,33,2.6Z"/></svg>