<svg id="Layer_1" data-name="Layer 1" xmlns="http://www.w3.org/2000/svg" viewBox="0 0 34 20"><defs><style>.cls-1{fill:#231f20;}</style></defs><title>glasses</title><path id="g10" class="cls-1" d="M9.38,18.14a4.71,4.71,0,1,1,4.7-4.7,4.71,4.71,0,0,1-4.7,4.7m15.24,0a4.71,4.71,0,1,1,4.7-4.7,4.71,4.71,0,0,1-4.7,4.7M34,13.26,32,4a6.78,6.78,0,0,0-4.32-4A.92.92,0,0,0,26.5.59a.92.92,0,0,0,.64,1.14,3.73,3.73,0,0,1,.79.32,5,5,0,0,1,2.24,2.43l1.06,4.9.68,3.13h-.82a6.53,6.53,0,0,0-12.67-1.13,3,3,0,0,0-2.84,0A6.53,6.53,0,0,0,2.91,12.51H2.08l.68-3.12,1-4.8A5,5,0,0,1,6.07,2a4.33,4.33,0,0,1,.79-.31A.94.94,0,0,0,7.51.59.93.93,0,0,0,6.36-.06,6.76,6.76,0,0,0,2,4.09L0,13.26a.92.92,0,0,0,.71,1.1l.2,0,.21,0v0H2.91a6.54,6.54,0,0,0,13-.68H16a1,1,0,0,1,1-.81.94.94,0,0,1,1,.81h.06a6.54,6.54,0,0,0,13,.68h1.77v0l.21,0,.2,0a.92.92,0,0,0,.71-1.1"/></svg>