<?xml version="1.0" encoding="utf-8"?>
<!-- Generator: Adobe Illustrator 23.0.2, SVG Export Plug-In . SVG Version: 6.00 Build 0)  -->
<svg version="1.1" id="Layer_1" xmlns="http://www.w3.org/2000/svg" xmlns:xlink="http://www.w3.org/1999/xlink" x="0px" y="0px"
	 viewBox="0 0 50 50" style="enable-background:new 0 0 50 50;" xml:space="preserve">
<style type="text/css">
	.st0{fill:#231F20;}
</style>
<path class="st0" d="M36.3,18.8c0,0,2.8-3.6,2-6.3s-3-5.1-3-5.1s-3.1,4-1.6,6.8C34.9,16.6,35.5,17.1,36.3,18.8z M41.9,14.4
	c-2.7,0.9-4.1,5.2-4.1,5.2c1.7-0.3,2.5-0.1,5.3-0.5c3.2-0.4,4.7-5.2,4.7-5.2S44.6,13.5,41.9,14.4z M44.3,10.5c1-1.8,0.2-4.9,0-5.3
	c0,0-3.1,0.8-4.3,3s0.1,5.1,0.1,5.1S43.4,12.3,44.3,10.5z M32.9,25.1c0,0,3-3.9,1.9-6.5c-1-2.5-3-4.9-3-4.9s-3.1,4-1.3,7.4
	C32.2,24.5,32.7,24.5,32.9,25.1z M29.6,31.4c0,0,3-3.8,1.9-6.3c-1-2.5-3.1-4.9-3.1-4.9s-2.8,3.8-1.5,6.5
	C28.2,29.5,29.1,30.4,29.6,31.4z M38.8,20.8c-2.7,0.6-4.3,5.2-4.3,5.2c0.7-0.2,0.9,0.2,4.7-0.2c3.8-0.5,5.3-5.3,5.3-5.3
	S41.5,20.2,38.8,20.8z M35.2,27.3c-2.7,0.6-4.1,5.2-4.1,5.2c1.1-0.1,2.4,0.1,5.4-0.4s4.5-5,4.5-5S37.9,26.7,35.2,27.3z M31.9,33.5
	c-1,0.2-1.8,0.9-2.4,1.8c-0.1-0.4-0.3-0.7-0.7-0.8c-0.2-0.1-0.5-0.2-0.7-0.1c0.3-1,0.5-2.1,0.1-3c-1-2.5-3.1-4.9-3.1-4.9
	s-2.8,3.8-1.5,6.5c1,2.2,1.8,3.3,2.4,4.1c-1.8,3-5.5,8.6-9.6,10.5c-0.6,0.3-0.9,1.1-0.6,1.7C16,49.7,16.5,50,17,50
	c0.2,0,0.4,0,0.5-0.1C22.1,47.8,26,42,28,38.7c1.1-0.1,2.4,0.1,5.1-0.4c3-0.5,4.5-5,4.5-5S34.6,32.9,31.9,33.5z M11.6,20.7
	c0,0,1.7-4.2,0.2-6.6C10.4,11.7,7.5,10,7.5,10s-1.9,4.6,0.3,7C9.7,19,10.5,19.3,11.6,20.7z M15.9,15c-2.3,1.6-2.5,6.1-2.5,6.1
	c1.6-0.8,2.4-0.8,5-1.9c2.9-1.2,3.1-6.2,3.1-6.2S18.2,13.4,15.9,15z M17.1,10.6c0.4-2-1.2-4.7-1.4-5.1c0,0-2.8,1.6-3.3,4.1
	s1.5,4.9,1.5,4.9S16.7,12.6,17.1,10.6z M10.1,27.8c0,0,1.8-4.6,0.1-6.8S6,17.1,6,17.1s-1.9,4.7,0.7,7.4C9.3,27.4,9.8,27.2,10.1,27.8
	z M11.9,28.2c0.6-0.4,0.9,0,4.4-1.5s3.7-6.5,3.7-6.5s-3,0.5-5.4,1.8C12.1,23.3,11.9,28.2,11.9,28.2z M18.4,27.4c0,0-3.1,0.5-5.5,1.8
	c-1,0.5-1.6,1.5-1.9,2.6c-0.2-0.3-0.5-0.5-0.9-0.6c-0.2,0-0.4,0-0.7,0.1c0.1-1.2,0-2.4-0.7-3.2c-1.7-2.2-4.3-3.9-4.3-3.9
	s-1.7,4.4,0.3,6.7c1.6,1.9,2.7,2.7,3.4,3.4c-0.7,3.1-2.5,9.1-5.8,12.9C2,47.7,2,48.6,2.6,49c0.2,0.2,0.5,0.3,0.8,0.3
	c0.4,0,0.7-0.2,1-0.5c3.5-4.2,5.4-10.3,6.2-13.7c1-0.3,2.3-0.6,4.8-1.7C18.1,32.1,18.4,27.4,18.4,27.4z"/>
</svg>
