<?xml version="1.0" encoding="utf-8"?>
<!-- Generator: Adobe Illustrator 23.0.2, SVG Export Plug-In . SVG Version: 6.00 Build 0)  -->
<svg version="1.1" id="Layer_1" xmlns="http://www.w3.org/2000/svg" xmlns:xlink="http://www.w3.org/1999/xlink" x="0px" y="0px"
	 viewBox="0 0 50 50" style="enable-background:new 0 0 50 50;" xml:space="preserve">
<style type="text/css">
	.st0{fill:#231F20;}
</style>
<path class="st0" d="M45.1,13.8l0.3-0.3c0.3-0.3,0.3-0.6,0-0.9l-0.5-0.5c0.3-0.8,0.2-1.5-0.4-2.1c-0.6-0.6-1.3-0.8-2.1-0.4l-0.5-0.5
	c-0.3-0.3-0.7-0.3-0.9,0l-0.3,0.3l-0.2-0.2c-0.3-0.3-0.7-0.3-1,0s-0.3,0.7,0,1l0.2,0.2l-0.9,0.9l-0.2-0.2c-0.3-0.3-0.7-0.3-1,0
	s-0.3,0.7,0,1l0.2,0.2l-0.9,0.9L36.6,13c-0.3-0.3-0.7-0.3-1,0s-0.3,0.7,0,1l0.2,0.2c-0.3,0.3-0.2,0.7,0,0.9l0.3,0.3l-9.7,9.7
	c-3.4-2.4-6.8-2.3-9.8,0.7c-1,1-1.7,2.2-2.1,3.2c-2.5-0.4-5,0.4-7.3,2.7C3.1,36,3.8,41.1,8.6,45.9s10,5.5,14.2,1.3
	c2.3-2.3,3.1-4.8,2.7-7.3c1-0.4,2.2-1.1,3.2-2.1c3-3,3.1-6.5,0.7-9.8l9.7-9.7l0.3,0.3c0.3,0.3,0.7,0.3,0.9,0l0.2,0.2
	c0.3,0.3,0.7,0.3,1,0s0.2-0.7,0-1l-0.2-0.2l0.9-0.9l0.2,0.2c0.3,0.3,0.7,0.3,1,0s0.3-0.8,0-1l-0.2-0.2l0.9-0.9l0.2,0.2
	c0.3,0.3,0.7,0.3,1,0s0.2-0.7,0-1L45.1,13.8z M16.4,43.3L15.8,44c-0.2,0.2-0.5,0.2-0.8,0l-4.5-4.5c-0.2-0.2-0.3-0.6-0.1-0.8l0.7-0.7
	c0.3-0.3,0.6-0.2,0.8,0l4.5,4.5C16.7,42.8,16.7,43.1,16.4,43.3z M20.5,36.8c-1.5,0-2.8-1.2-2.8-2.8c0-1.5,1.2-2.8,2.8-2.8
	c1.5,0,2.8,1.2,2.8,2.8C23.3,35.5,22,36.8,20.5,36.8z"/>
</svg>
