<?xml version="1.0" encoding="utf-8"?>
<!-- Generator: Adobe Illustrator 23.0.2, SVG Export Plug-In . SVG Version: 6.00 Build 0)  -->
<svg version="1.1" id="Layer_1" xmlns="http://www.w3.org/2000/svg" xmlns:xlink="http://www.w3.org/1999/xlink" x="0px" y="0px"
	 viewBox="0 0 50 50" style="enable-background:new 0 0 50 50;" xml:space="preserve">
<style type="text/css">
	.st0{fill:#231F20;}
</style>
<path class="st0" d="M44.7,20.8l-3.6-3.6l0,0l-3.4-3.4c-0.8-0.8-2.2-0.8-3,0L5,43.3c-1.5,1.5-1.5,4,0,5.5l0,0c1.5,1.5,4,1.5,5.5,0
	L21,37.2l3.6,3.6c0.4,0.4,1.1,0.4,1.5,0s0.4-1.1,0-1.5l-2.5-2.5l-1.2-1.2c0,0-0.1,0-0.1-0.1l0,0l-0.9-0.9c-0.4-0.4-0.4-1.1,0-1.5
	l0.1-0.1c0.4-0.4,1.1-0.4,1.5,0l0.9,0.9l0,0c0,0,0,0,0,0.1l0.3,0.3l3.3,3.3c0.4,0.4,1.1,0.4,1.5,0s0.4-1.1,0-1.5l-1.8-1.8l-2.9-2.9
	c-0.4-0.4-0.4-1.1,0-1.5l0.1-0.1c0.4-0.4,1.1-0.4,1.5,0l4.6,4.6c0.4,0.4,1.1,0.4,1.5,0c0.4-0.4,0.4-1.1,0-1.5l-2.7-2.7l-1.9-1.9
	c-0.4-0.4-0.4-1.1,0-1.5l0.1-0.1c0.4-0.4,1.1-0.4,1.5,0l4.1,4.1l0.6,0.6c0.4,0.4,1.1,0.4,1.5,0s0.4-1.1,0-1.5l-2.7-2.7l-2-2
	c-0.4-0.4-0.4-1.1,0-1.5l0.1-0.1c0.4-0.4,1.1-0.4,1.5,0l4.6,4.6c0.4,0.4,1.1,0.4,1.5,0s0.4-1.1,0-1.5L35.5,24l-1.9-1.9
	c-0.4-0.4-0.4-1.1,0-1.5l0.1-0.1c0.4-0.4,1.1-0.4,1.5,0l4.6,4.6c0.4,0.4,1.1,0.4,1.5,0s0.4-1.1,0-1.5l-2.9-2.9L36.7,19
	c-0.4-0.4-0.4-1.1,0-1.5l0.1-0.1c0.4-0.4,1.1-0.4,1.5,0l1,1l0,0l3.6,3.6c0.4,0.4,1.1,0.4,1.5,0c0.1-0.1,0.1-0.1,0.1-0.2
	c0.1,0,0.1-0.1,0.2-0.1C45.1,21.9,45.1,21.2,44.7,20.8z M8.1,47.5c-0.9,0-1.6-0.7-1.6-1.6c0-0.9,0.7-1.6,1.6-1.6s1.6,0.7,1.6,1.6
	C9.7,46.8,9,47.5,8.1,47.5z"/>
</svg>
