<svg id="Layer_1" data-name="Layer 1" xmlns="http://www.w3.org/2000/svg" viewBox="0 0 24 24"><defs><style>.cls-1{fill:#231f20;}</style></defs><title>Untitled-2</title><path id="g10" class="cls-1" d="M12,23C7.86,23,5,20.5,5,16.9v-6A1.06,1.06,0,0,1,6,9.85a1.06,1.06,0,0,1,1,1.08V13.8l0,.11v.35a.49.49,0,0,0,1,0V5.07A1,1,0,0,1,9,4a1,1,0,0,1,1,1.07v7.44a.49.49,0,1,0,1,0V2.05a1,1,0,1,1,2,0V12.43a.49.49,0,1,0,1,0V3.5a1,1,0,1,1,2,.07v9a.49.49,0,1,0,1,0V6.47a1,1,0,1,1,2,0V16.9C19,20.5,16.13,23,12,23M4,12V16.9C4,21.08,7.28,24,12,24s8-2.92,8-7.1V6.5a2,2,0,0,0-2-2,2,2,0,0,0-1,.29V3.57a2,2,0,0,0-2-2.06,1.92,1.92,0,0,0-1,.31,2,2,0,0,0-4,.24V3.31A1.94,1.94,0,0,0,9,3,2,2,0,0,0,7,5.07V9.18a2,2,0,0,0-1-.31,2,2,0,0,0-2,2.06v1Z"/></svg>