<?xml version="1.0" encoding="utf-8"?>
<!-- Generator: Adobe Illustrator 23.0.3, SVG Export Plug-In . SVG Version: 6.00 Build 0)  -->
<svg version="1.1" id="Layer_1" xmlns="http://www.w3.org/2000/svg" xmlns:xlink="http://www.w3.org/1999/xlink" x="0px" y="0px"
	 viewBox="0 0 50 50" style="enable-background:new 0 0 50 50;" xml:space="preserve">
<style type="text/css">
	.st0{fill:#231F20;}
</style>
<title>Untitled-2</title>
<path id="g10" class="st0" d="M25,47.9c-8.6,0-14.5-5.2-14.5-12.7V22.8c0-1.2,0.9-2.1,2.1-2.2c1.2,0.1,2.1,1.1,2.1,2.2v6V29v0.7
	c0,0.6,0.5,1,1,1s1-0.5,1-1V10.7c-0.1-1.1,0.8-2.1,1.9-2.2c0.1,0,0.1,0,0.2,0c1.1,0,2.1,0.9,2.1,2.1c0,0.1,0,0.1,0,0.2v15.5
	c0,0.6,0.5,1,1,1s1-0.5,1-1V4.4c0-1.1,0.9-2.1,2.1-2.1c1.1,0,2.1,0.9,2.1,2.1V26c0,0.6,0.5,1,1,1s1-0.5,1-1V7.4c0-1.1,1-2,2.2-2
	c1.1,0,2,1,2,2.2v18.7c0,0.6,0.5,1,1,1c0.6,0,1-0.5,1-1V13.6c0-1.1,0.9-2.1,2.1-2.1c1.1,0,2.1,0.9,2.1,2.1v21.7
	C39.5,42.7,33.6,47.9,25,47.9 M8.4,25.1v10.2C8.4,43.9,15.2,50,25,50s16.6-6.1,16.6-14.8V13.6c0-2.3-1.9-4.2-4.2-4.2
	c-0.7,0-1.5,0.2-2.1,0.6V7.6c0.1-2.3-1.7-4.2-4-4.3c0,0-0.1,0-0.1,0c-0.7,0-1.5,0.2-2.1,0.6C29,1.6,27-0.1,24.8,0s-4,2.1-3.9,4.4V7
	c-0.6-0.4-1.3-0.6-2.1-0.6c-2.3,0-4.2,1.9-4.2,4.2c0,0,0,0.1,0,0.1v8.5c-0.6-0.4-1.3-0.6-2.1-0.6c-2.3,0-4.2,1.9-4.2,4.2
	c0,0,0,0.1,0,0.1v2.1V25.1z"/>
</svg>
