<?xml version="1.0" encoding="utf-8"?>
<!-- Generator: Adobe Illustrator 23.0.3, SVG Export Plug-In . SVG Version: 6.00 Build 0)  -->
<svg version="1.1" id="Layer_1" xmlns="http://www.w3.org/2000/svg" xmlns:xlink="http://www.w3.org/1999/xlink" x="0px" y="0px"
	 viewBox="0 0 50 50" style="enable-background:new 0 0 50 50;" xml:space="preserve">
<style type="text/css">
	.st0{fill:#231F20;}
</style>
<title>Untitled-2</title>
<path id="g10" class="st0" d="M25,47.9c-8.6,0-14.5-5.2-14.5-12.7V13.6c0-1.1,0.9-2.1,2.1-2.1s2.1,0.9,2.1,2.1v12.7c0,0.6,0.5,1,1,1
	s1-0.5,1-1V7.6c0-1.1,0.9-2.1,2-2.1c1.1,0,2.1,0.9,2.1,2V26c0,0.6,0.5,1,1,1c0.6,0,1-0.5,1-1V4.4c0-1.1,0.9-2.1,2.1-2.1
	s2.1,0.9,2.1,2.1v21.7c0,0.6,0.5,1,1,1c0.6,0,1-0.5,1-1V10.7c0,0,0-0.1,0-0.1c0-1.1,0.9-2.1,2.1-2.1c0,0,0.1,0,0.1,0
	c1.1,0.1,2,1.1,1.9,2.2v19.1c0,0.6,0.5,1,1,1c0.6,0,1-0.5,1-1V29v-0.2v-6c0-1.2,0.9-2.2,2.1-2.2c1.2,0.1,2.1,1,2.1,2.2v12.5
	C39.5,42.7,33.6,47.9,25,47.9 M41.6,24.9v-2.1c0,0,0-0.1,0-0.1c0-2.3-1.9-4.2-4.2-4.2c-0.7,0-1.5,0.2-2.1,0.6v-8.5c0,0,0-0.1,0-0.1
	c0-2.3-1.9-4.2-4.2-4.2c-0.7,0-1.5,0.2-2.1,0.6V4.4c0.1-2.3-1.6-4.3-3.9-4.4S21,1.6,20.8,3.9c-0.6-0.4-1.3-0.6-2.1-0.6
	c0,0-0.1,0-0.1,0c-2.3,0.1-4.1,2-4,4.3v2.5c-0.6-0.4-1.4-0.6-2.1-0.6c-2.3,0-4.2,1.9-4.2,4.2v21.6C8.4,43.9,15.2,50,25,50
	s16.6-6.1,16.6-14.8V25.1V24.9z"/>
</svg>
