<?xml version="1.0" encoding="utf-8"?>
<!-- Generator: Adobe Illustrator 18.1.1, SVG Export Plug-In . SVG Version: 6.00 Build 0)  -->
<!DOCTYPE svg PUBLIC "-//W3C//DTD SVG 1.1//EN" "http://www.w3.org/Graphics/SVG/1.1/DTD/svg11.dtd">
<svg version="1.1" id="Layer_1" 
	xmlns="http://www.w3.org/2000/svg" 
	xmlns:xlink="http://www.w3.org/1999/xlink" x="0px" y="0px" viewBox="0 0 81 79.45" enable-background="new 0 0 81 79.45" xml:space="preserve">
	<g>
		<g>
			<path fill="#2C4351" d="M79.57,33.35l-36.3-32.4c-1.5-1.26-3.68-1.26-5.18,0L1.43,33.35c-1.69,1.43-1.91,3.96-0.48,5.66c0.64,0.76,1.49,1.22,2.4,1.37c1.12,0.19,7.42,0.06,7.42,0.06v36.11c0,1.61,1.3,2.91,2.91,2.91h0.8c0.1,0,0.3,0,0.4,0c0.1,0,0.3,0,0.4,0h50.79c0.1,0,0.3,0,0.4,0c0.1,0,0.3,0,0.4,0h0.8c1.61,0,2.91-1.3,2.91-2.91V40.43c0,0,5.47,0,6.39,0c1.14,0,2.28-0.49,3.07-1.43C81.48,37.31,81.27,34.78,79.57,33.35z"/>
		</g>
	</g>
</svg>
