<?xml version="1.0" encoding="utf-8"?>
<!-- Generator: Adobe Illustrator 23.0.2, SVG Export Plug-In . SVG Version: 6.00 Build 0)  -->
<svg version="1.1" id="Layer_1" xmlns="http://www.w3.org/2000/svg" xmlns:xlink="http://www.w3.org/1999/xlink" x="0px" y="0px"
	 viewBox="0 0 50 50" style="enable-background:new 0 0 50 50;" xml:space="preserve">
<style type="text/css">
	.st0{fill:#231F20;}
</style>
<path class="st0" d="M39.9,17l-4.2-1.4v-5.4h-4.6V14L11.5,7.4C10.1,7,8.6,8,8.6,9.5c0,0.9,0.6,1.7,1.5,2L38.5,21
	c1.4,0.5,2.8-0.6,2.8-2C41.4,18.1,40.8,17.3,39.9,17z M9.9,50h5.6V37.6h6.6V50h18.1V25L9.9,15.2V50z M28.5,37.5h5.7v5.4h-5.7V37.5z
	 M19.6,23.2h2.8v7.3h-2.8V23.2z M14.8,23.2h2.8v7.3h-2.8V23.2z"/>
</svg>
