<?xml version="1.0" encoding="utf-8"?>
<!-- Generator: Adobe Illustrator 18.1.1, SVG Export Plug-In . SVG Version: 6.00 Build 0)  -->
<!DOCTYPE svg PUBLIC "-//W3C//DTD SVG 1.1//EN" "http://www.w3.org/Graphics/SVG/1.1/DTD/svg11.dtd">
<svg version="1.1" id="Layer_1" 
	xmlns="http://www.w3.org/2000/svg" 
	xmlns:xlink="http://www.w3.org/1999/xlink" x="0px" y="0px" viewBox="0 0 36 36" enable-background="new 0 0 36 36" xml:space="preserve">
	<path fill="#2C4351" d="M18,0C8.06,0,0,8.06,0,18s8.06,18,18,18s18-8.06,18-18S27.94,0,18,0z M17.24,26.5c-0.63,0.04-1.26-0.13-1.78-0.5c-0.41-0.38-0.63-0.92-0.59-1.47c0.07-0.69,0.23-1.36,0.49-2.01l1.53-4.38c0.08-0.21,0.14-0.43,0.17-0.66c0.01-0.03,0.01-0.06,0-0.09c-0.02-0.14-0.15-0.23-0.29-0.21c-0.43,0-0.94,0.55-1.52,1.65h-1.22c1.09-2.36,2.63-3.54,4.62-3.54c0.59-0.04,1.18,0.15,1.64,0.51c0.4,0.36,0.61,0.88,0.58,1.41c-0.06,0.72-0.24,1.43-0.52,2.09l-1.47,4.01c-0.15,0.34-0.26,0.7-0.32,1.07c0,0.08,0.03,0.16,0.08,0.22c0.07,0.05,0.15,0.08,0.24,0.08c0.34-0.08,0.64-0.28,0.84-0.57h0c0.31-0.32,0.57-0.69,0.78-1.09h1.29C20.7,25.35,19.19,26.5,17.24,26.5z M22.08,11.87c-0.75,0.77-1.99,0.79-2.76,0.03c-0.77-0.75-0.79-1.99-0.03-2.76c0.75-0.77,1.99-0.79,2.76-0.03c0.38,0.36,0.6,0.87,0.59,1.4C22.64,11.02,22.44,11.51,22.08,11.87z"/>
</svg>
