<?xml version="1.0" encoding="utf-8"?>
<!-- Generator: Adobe Illustrator 23.0.2, SVG Export Plug-In . SVG Version: 6.00 Build 0)  -->
<svg version="1.1" id="Layer_1" xmlns="http://www.w3.org/2000/svg" xmlns:xlink="http://www.w3.org/1999/xlink" x="0px" y="0px"
	 viewBox="0 0 50 50" style="enable-background:new 0 0 50 50;" xml:space="preserve">
<style type="text/css">
	.st0{fill:#231F20;}
</style>
<path class="st0" d="M30,24l-3.6-3.5L26,21c0,0-11.4,12.6-13.8,15.4c-2,2.3-7.4,9-9.1,13.2C3,49.8,3.2,50.1,3.5,50
	c2.5-0.8,13.1-3.2,30-20c0.2-0.2-2.7-3-3.1-3.8C30.1,25.6,29.8,24.7,30,24z M46.7,9c-1-1.5-4.5-3.6-5.8-2.6
	c-1.1,0.8-10.5,10.2-13.5,13.2L31,23c1.5-0.8,5.3-2.4,7.4-5.2c2.4-3.2,3.7-4.4,4.8-4.9c1.1-0.4,2.3-0.2,2.3-0.2S47.7,10.5,46.7,9z
	 M32.2,20.3c-0.5,0.5-1.2,0.5-1.6,0c-0.5-0.5-0.5-1.2,0-1.6c0.5-0.5,1.2-0.5,1.6,0C32.7,19.1,32.7,19.9,32.2,20.3z M37.3,15.5
	c-0.5,0.5-1.2,0.5-1.6,0c-0.5-0.5-0.5-1.2,0-1.6c0.5-0.5,1.2-0.5,1.6,0C37.8,14.3,37.8,15.1,37.3,15.5z M42.4,10.7
	c-0.5,0.5-1.2,0.5-1.6,0c-0.5-0.5-0.5-1.2,0-1.6c0.4-0.5,1.2-0.5,1.6,0C42.9,9.5,42.9,10.3,42.4,10.7z"/>
</svg>
