<?xml version="1.0" encoding="utf-8"?>
<!-- Generator: Adobe Illustrator 23.0.2, SVG Export Plug-In . SVG Version: 6.00 Build 0)  -->
<svg version="1.1" id="Layer_1" xmlns="http://www.w3.org/2000/svg" xmlns:xlink="http://www.w3.org/1999/xlink" x="0px" y="0px"
	 viewBox="0 0 50 50" style="enable-background:new 0 0 50 50;" xml:space="preserve">
<style type="text/css">
	.st0{fill:#231F20;}
</style>
<path class="st0" d="M12.7,36.7c-1-0.6-2.3-0.3-3,0.7l-5.9,9.3c-0.6,1-0.3,2.3,0.7,3C4.9,49.9,5.3,50,5.7,50c0.7,0,1.4-0.4,1.8-1
	l5.9-9.3C14,38.7,13.8,37.4,12.7,36.7z M21,36.4c-1.2-0.3-2.3,0.5-2.6,1.7l-2,9.3c-0.2,1.2,0.5,2.3,1.7,2.6c0.2,0,0.3,0,0.4,0
	c1,0,1.9-0.7,2.1-1.7l2-9.3C22.9,37.8,22.1,36.7,21,36.4z M31.6,38.1c-0.2-1.2-1.4-1.9-2.6-1.7s-1.9,1.4-1.7,2.6l2,9.3
	c0.2,1,1.1,1.7,2.1,1.7c0.1,0,0.3,0,0.4,0c1.2-0.2,1.9-1.4,1.7-2.6L31.6,38.1z M46.1,46.7l-5.9-9.3c-0.6-1-2-1.3-3-0.7s-1.3,2-0.7,3
	l5.9,9.3c0.4,0.6,1.1,1,1.8,1c0.4,0,0.8-0.1,1.2-0.3C46.5,49,46.8,47.7,46.1,46.7z M40.7,33.2c0-7.7-5.6-13-14.2-13.6V3.2
	c0-0.8-0.7-1.5-1.5-1.5s-1.5,0.7-1.5,1.5v16.4c-8.6,0.6-14.2,5.9-14.2,13.6v0.3h31.4V33.2z"/>
</svg>
