<?xml version="1.0" encoding="utf-8"?>
<!-- Generator: Adobe Illustrator 23.0.2, SVG Export Plug-In . SVG Version: 6.00 Build 0)  -->
<svg version="1.1" id="Layer_1" xmlns="http://www.w3.org/2000/svg" xmlns:xlink="http://www.w3.org/1999/xlink" x="0px" y="0px"
	 viewBox="0 0 50 50" style="enable-background:new 0 0 50 50;" xml:space="preserve">
<path d="M46.2,45.7c0,2.3-1.9,4.3-4.3,4.3H8.1c-2.4,0-4.3-1.9-4.3-4.3v-0.9c0-0.6,0.5-1.2,1.2-1.2h16c0.1,0.5,0.6,0.9,1.3,0.9h5.4
	c0.6,0,1.2-0.5,1.3-0.9h16c0.6,0,1.2,0.5,1.2,1.2V45.7z M38.6,16.2c2.4,0,4.3,1.9,4.3,4.3v17.1c0,2.3-1.9,4.2-4.3,4.2H11.4
	c-2.4,0-4.2-1.9-4.2-4.2V20.5c0-2.4,1.8-4.3,4.2-4.3H38.6z M11.6,20.2c-0.3,0-0.5,0.2-0.5,0.4v16.8c0,0.3,0.2,0.4,0.5,0.4h26.8
	c0.3,0,0.4-0.2,0.4-0.4V20.7c0-0.3-0.2-0.4-0.4-0.4H11.6V20.2z M24.1,18.2c0,0.6,0.3,1,0.9,1s0.9-0.4,0.9-1c0-0.7-0.3-1-0.9-1
	S24.1,17.5,24.1,18.2"/>
</svg>
