<?xml version="1.0" encoding="utf-8"?>
<!-- Generator: Adobe Illustrator 23.0.2, SVG Export Plug-In . SVG Version: 6.00 Build 0)  -->
<svg version="1.1" id="Layer_1" xmlns="http://www.w3.org/2000/svg" xmlns:xlink="http://www.w3.org/1999/xlink" x="0px" y="0px"
	 viewBox="0 0 50 50" style="enable-background:new 0 0 50 50;" xml:space="preserve">
<style type="text/css">
	.st0{fill:#231F20;}
</style>
<path class="st0" d="M44.4,44l-6.3-10.5l-1,0.5l-4.5-7.4l-6.4,3.8l4.5,7.4l-0.9,0.6l6.5,10.8c0.5,0.8,1.5,1.1,2.4,0.6l5-3
	C44.7,46.2,45,44.9,44.4,44z M27.4,19.4c0,0-1-1.7-2.6,0.5s-0.4,5.7-0.4,5.7l1.8,2.9l4.8-2.9L27.4,19.4z M31.3,9.7h0.2
	c0,0-3.6-6.9-8.2-7.3c-4.5-0.4-5.5,1.9-5.5,1.9s-1-2.3-5.5-1.9C7.6,2.9,4,9.7,4,9.7h0.2c0.4,0.7,4.3,7.8,12.4,7.8h2.3
	C26.9,17.5,30.9,10.4,31.3,9.7z M8.8,9.8c0,0,7.6-2.4,18.5,0C27.2,9.8,19,11,8.8,9.8z"/>
</svg>
