<?xml version="1.0" encoding="utf-8"?>
<!-- Generator: Adobe Illustrator 23.0.2, SVG Export Plug-In . SVG Version: 6.00 Build 0)  -->
<svg version="1.1" id="Layer_1" xmlns="http://www.w3.org/2000/svg" xmlns:xlink="http://www.w3.org/1999/xlink" x="0px" y="0px"
	 viewBox="0 0 50 50" style="enable-background:new 0 0 50 50;" xml:space="preserve">
<style type="text/css">
	.st0{fill:#231F20;}
</style>
<path class="st0" d="M33.8,21.8c-6.9,0-12.6,5.6-12.6,12.6c0,0.1,0,0.2,0,0.2h2.6c0.1,0,0.2,0,0.3,0c0-0.1,0-0.2,0-0.3
	c0-5.1,3.9-9.2,8.9-9.6v19.2c-0.4,0-0.7-0.1-1.1-0.1c-0.1,1-0.4,1.9-0.9,2.8c0.9,0.2,1.8,0.3,2.7,0.3c6.9,0,12.6-5.6,12.6-12.6
	C46.3,27.4,40.7,21.8,33.8,21.8z M34.5,43.9V24.7c5,0.4,8.9,4.5,8.9,9.6S39.5,43.6,34.5,43.9z M23.8,35.6H11.1c-4,0-7.2,3.2-7.2,7.2
	S7.1,50,11.1,50h12.7c4,0,7.2-3.2,7.2-7.2S27.8,35.6,23.8,35.6z M26.7,40.8c-0.1,0.2-0.4,0.3-0.6,0.3s-0.3-0.1-0.5-0.2
	C24.5,40,23.1,40,23,40h-5.6v7.1h-6.3c-2.4,0-4.3-1.9-4.3-4.3s1.9-4.3,4.3-4.3h5.8l0,0H23c0.1,0,2-0.1,3.6,1.2
	C26.9,40,26.9,40.5,26.7,40.8z"/>
</svg>
