<?xml version="1.0" encoding="utf-8"?>
<!-- Generator: Adobe Illustrator 23.0.2, SVG Export Plug-In . SVG Version: 6.00 Build 0)  -->
<svg version="1.1" id="Layer_1" xmlns="http://www.w3.org/2000/svg" xmlns:xlink="http://www.w3.org/1999/xlink" x="0px" y="0px"
	 viewBox="0 0 50 50" style="enable-background:new 0 0 50 50;" xml:space="preserve">
<style type="text/css">
	.st0{fill:#231F20;}
</style>
<path class="st0" d="M33.7,8.1h-2.5V3c0-0.8-0.7-1.5-1.5-1.5S28.2,2.2,28.2,3v5.1H16.3c-1.4,0-2.5,1.1-2.5,2.5v36.9
	c0,1.4,1.1,2.5,2.5,2.5h17.3c1.4,0,2.5-1.1,2.5-2.5V10.6C36.2,9.2,35.1,8.1,33.7,8.1z M21.5,45.3c0,0.9-0.7,1.6-1.6,1.6h-1.1
	c-0.9,0-1.6-0.7-1.6-1.6V44c0-0.9,0.7-1.6,1.6-1.6h1.1c0.9,0,1.6,0.7,1.6,1.6V45.3z M21.5,39.8c0,0.9-0.7,1.6-1.6,1.6h-1.1
	c-0.9,0-1.6-0.7-1.6-1.6v-1.3c0-0.9,0.7-1.6,1.6-1.6h1.1c0.9,0,1.6,0.7,1.6,1.6V39.8z M21.5,34.3c0,0.9-0.7,1.6-1.6,1.6h-1.1
	c-0.9,0-1.6-0.7-1.6-1.6V33c0-0.9,0.7-1.6,1.6-1.6h1.1c0.9,0,1.6,0.7,1.6,1.6V34.3z M27.2,45.3c0,0.9-0.7,1.6-1.6,1.6h-1.1
	c-0.9,0-1.6-0.7-1.6-1.6V44c0-0.9,0.7-1.6,1.6-1.6h1.1c0.9,0,1.6,0.7,1.6,1.6V45.3z M27.2,39.8c0,0.9-0.7,1.6-1.6,1.6h-1.1
	c-0.9,0-1.6-0.7-1.6-1.6v-1.3c0-0.9,0.7-1.6,1.6-1.6h1.1c0.9,0,1.6,0.7,1.6,1.6V39.8z M27.2,34.3c0,0.9-0.7,1.6-1.6,1.6h-1.1
	c-0.9,0-1.6-0.7-1.6-1.6V33c0-0.9,0.7-1.6,1.6-1.6h1.1c0.9,0,1.6,0.7,1.6,1.6V34.3z M32.8,45.3c0,0.9-0.7,1.6-1.6,1.6H30
	c-0.9,0-1.6-0.7-1.6-1.6V44c0-0.9,0.7-1.6,1.6-1.6h1.1c0.9,0,1.6,0.7,1.6,1.6L32.8,45.3L32.8,45.3z M32.8,39.8
	c0,0.9-0.7,1.6-1.6,1.6H30c-0.9,0-1.6-0.7-1.6-1.6v-1.3c0-0.9,0.7-1.6,1.6-1.6h1.1c0.9,0,1.6,0.7,1.6,1.6L32.8,39.8L32.8,39.8z
	 M32.8,34.3c0,0.9-0.7,1.6-1.6,1.6H30c-0.9,0-1.6-0.7-1.6-1.6V33c0-0.9,0.7-1.6,1.6-1.6h1.1c0.9,0,1.6,0.7,1.6,1.6L32.8,34.3
	L32.8,34.3z M32.9,26.8c0,0.7-0.6,1.3-1.3,1.3H18.4c-0.7,0-1.3-0.6-1.3-1.3v-14c0-0.7,0.6-1.3,1.3-1.3h13.1c0.7,0,1.3,0.6,1.3,1.3
	v14H32.9z"/>
</svg>
