<?xml version="1.0" encoding="utf-8"?>
<!-- Generator: Adobe Illustrator 23.0.2, SVG Export Plug-In . SVG Version: 6.00 Build 0)  -->
<svg version="1.1" id="Layer_1" xmlns="http://www.w3.org/2000/svg" xmlns:xlink="http://www.w3.org/1999/xlink" x="0px" y="0px"
	 viewBox="0 0 50 50" style="enable-background:new 0 0 50 50;" xml:space="preserve">
<style type="text/css">
	.st0{fill:#231F20;}
</style>
<path class="st0" d="M46.3,44.3c0,3.8-2.1,5.7-5.6,5.7s-5.6-1.9-5.6-5.7c0-1.7,0.5-3.2,1.5-4.1l-1.9-3.5v2.2c0,3.2-2.7,5.6-5.8,5.6
	h-9.3c0,3.6-2.2,5.5-5.5,5.5c-3.5,0-5.6-1.9-5.6-5.5H5.7c-1.1,0-2-0.8-2-2c0-1.1,0.9-2,2-2c0.9-3.8,3.2-6.7,7.5-6.7h8.2
	c1.3,0,2.3,1,2.3,2.3c0,0.8,0,1.4-0.5,2.2L22,40.5h6.8c1.1,0,1.9-0.5,1.9-1.6v-6.1c0-0.7,0.3-1.4,0.9-1.7l-0.8-1.4
	c-0.1-0.2-0.1-0.4-0.1-0.6c0-0.6,0.5-1.3,1.3-1.3c0.5,0,0.9,0.2,1.1,0.7l5.7,10.6c0.6-0.1,1.1-0.2,1.9-0.2
	C44.2,38.7,46.3,40.6,46.3,44.3 M11.3,33c-1.2,0-2.1-1-2.1-2.1V30c0-1.2,0.9-2.1,2.1-2.1h11.5c1.2,0,2.1,0.9,2.1,2.1v0.9
	c0,1.1-0.9,2.1-2.1,2.1H11.3z M11.7,44.5c0,1.3,0.8,2.1,2.3,2.1c1.3,0,2.1-0.7,2.2-2.1H11.7z M37,27.7c0,0.4-0.3,0.8-0.8,0.8
	c-0.1,0-0.3,0-0.5-0.1l-3.4-1.5h-2.6c-0.3,0-0.5-0.2-0.5-0.5v-1.5c0-0.3,0.2-0.5,0.5-0.5h2.6l3.4-1.5c0.2-0.1,0.3-0.1,0.5-0.1
	c0.4,0,0.8,0.3,0.8,0.8V27.7z M38.4,44.3c0,1.5,0.9,2.3,2.3,2.3c1.3,0,2.2-0.7,2.2-2.3c0-1.5-0.9-2.3-2.2-2.3
	C39.3,42.1,38.4,42.8,38.4,44.3"/>
</svg>
