<?xml version="1.0" encoding="utf-8"?>
<!-- Generator: Adobe Illustrator 23.0.2, SVG Export Plug-In . SVG Version: 6.00 Build 0)  -->
<svg version="1.1" id="Layer_1" xmlns="http://www.w3.org/2000/svg" xmlns:xlink="http://www.w3.org/1999/xlink" x="0px" y="0px"
	 viewBox="0 0 50 50" style="enable-background:new 0 0 50 50;" xml:space="preserve">
<style type="text/css">
	.st0{fill:#231F20;}
</style>
<path class="st0" d="M45,17.1v-5.6c0-3.1-2.5-5.6-5.6-5.6H10.6C7.5,5.9,5,8.4,5,11.4V17h40V17.1z M37.8,9.4c1.3,0,2.4,1.1,2.4,2.4
	s-1.1,2.4-2.4,2.4c-1.3,0-2.4-1.1-2.4-2.4C35.4,10.5,36.5,9.4,37.8,9.4z M29.3,9.4c1.3,0,2.4,1.1,2.4,2.4s-1.1,2.4-2.4,2.4
	s-2.4-1.1-2.4-2.4C26.8,10.5,27.9,9.4,29.3,9.4z M20.7,9.4c1.3,0,2.4,1.1,2.4,2.4s-1.1,2.4-2.4,2.4s-2.4-1.1-2.4-2.4
	C18.3,10.5,19.4,9.4,20.7,9.4z M12.2,9.4c1.3,0,2.4,1.1,2.4,2.4s-1.1,2.4-2.4,2.4s-2.4-1.1-2.4-2.4C9.7,10.5,10.8,9.4,12.2,9.4z
	 M5,18.8v25.6c0,3.1,2.5,5.6,5.6,5.6h28.8c3.1,0,5.6-2.5,5.6-5.6V18.8H5z M37.9,40.4c0,1.9-1.5,3.4-3.4,3.4h-19
	c-1.9,0-3.4-1.5-3.4-3.4v-8c0-1.9,1.5-3.4,3.4-3.4h19c1.9,0,3.4,1.5,3.4,3.4V40.4z M37.4,24.7H12.6c-0.7,0-1.3-0.6-1.3-1.3
	c0-0.7,0.6-1.3,1.3-1.3h24.7c0.7,0,1.3,0.6,1.3,1.3C38.6,24.2,38.1,24.7,37.4,24.7z"/>
</svg>
