<?xml version="1.0" encoding="utf-8"?>
<!-- Generator: Adobe Illustrator 23.0.2, SVG Export Plug-In . SVG Version: 6.00 Build 0)  -->
<svg version="1.1" id="Layer_1" xmlns="http://www.w3.org/2000/svg" xmlns:xlink="http://www.w3.org/1999/xlink" x="0px" y="0px"
	 viewBox="0 0 50 50" style="enable-background:new 0 0 50 50;" xml:space="preserve">
<style type="text/css">
	.st0{fill:#231F20;}
</style>
<path class="st0" d="M10.5,42.3c-0.3-0.3-0.9-0.3-1.3,0C9,42.5,9,42.6,8.9,42.9l-1.8,4.8C7.1,47.8,7,47.9,7,48l-0.8,0.8
	c-0.3,0.3-0.3,0.7,0,1s0.7,0.3,1,0l0.9-0.9c0.1,0,0.2,0,0.2-0.1l4.8-1.8c0.3-0.1,0.4-0.2,0.6-0.3c0.3-0.3,0.3-0.9,0-1.3L10.5,42.3z
	 M27,22.4l10.8-10.8c0.5-0.5,0.5-1.2,0-1.7s-1.2-0.5-1.7,0L25.3,20.7c-0.5,0.5-0.5,1.2,0,1.7C25.8,22.9,26.6,22.9,27,22.4z M11.5,40
	c-0.4,0.4-0.4,1,0,1.4l3.1,3.1c0.4,0.4,1,0.4,1.4,0l15.1-15.1l-4.5-4.5L11.5,40z M43.9,12.1c-1.2-1.2-3.2-1.2-4.5,0l-10.9,11
	l4.5,4.5l11-11C45.1,15.4,45.1,13.4,43.9,12.1z"/>
</svg>
