<?xml version="1.0" encoding="utf-8"?>
<!-- Generator: Adobe Illustrator 23.0.2, SVG Export Plug-In . SVG Version: 6.00 Build 0)  -->
<svg version="1.1" id="Layer_1" xmlns="http://www.w3.org/2000/svg" xmlns:xlink="http://www.w3.org/1999/xlink" x="0px" y="0px"
	 viewBox="0 0 50 50" style="enable-background:new 0 0 50 50;" xml:space="preserve">
<path d="M14.8,19.7v5.7c0,0.2,0.1,0.5,0.2,0.7c-0.1,0.5-0.1,1.1-0.1,1.7c0,6.3,3.4,10.1,10.1,10.1S35.1,34,35.1,27.7
	c0-0.6,0-1.2-0.1-1.7c0.1-0.2,0.2-0.4,0.2-0.7v-5.7c0.7-0.2,1.4-0.6,2-1.2l0,0c0.1-0.1,0.2-0.2,0.3-0.3l0,0c1.1-1.1,1.8-2.6,1.8-4.3
	c0-3.4-2.7-6.1-6.1-6.1c-0.5,0-1,0.1-1.5,0.2C31.2,5,28.6,3.2,25,3.2S18.8,5.1,18.3,8c-0.5-0.1-1-0.2-1.5-0.2
	c-3.4,0-6.1,2.7-6.1,6.1C10.7,16.6,12.4,18.9,14.8,19.7z M16.8,10.9c0.8,0,1.6,0.3,2.2,1c0.5,0.5,1.3,0.6,1.9,0.3
	c0.6-0.4,0.9-1.2,0.7-1.8c-0.1-0.4-0.2-0.8-0.2-1.2c0-2.6,2.8-2.8,3.6-2.8s3.6,0.2,3.6,2.8c0,0.4-0.1,0.8-0.2,1.2
	c-0.2,0.7,0,1.5,0.7,1.8c0.6,0.4,1.4,0.3,1.9-0.3c0.6-0.6,1.3-1,2.2-1c1.7,0,3,1.3,3,3c0,1.6-1.2,2.8-2.7,3c-0.1,0-0.1,0-0.2,0
	c-0.5,0-1.1-0.1-1.5-0.4c-0.7-0.4-1.7-0.2-2.1,0.6c-0.4,0.8-0.2,1.7,0.6,2.1c0.6,0.3,1.2,0.6,1.9,0.7v5.5H18V20
	c0.8-0.1,1.5-0.3,2.2-0.7c0.8-0.4,1-1.4,0.6-2.1c-0.4-0.8-1.4-1-2.1-0.6c-1.2,0.6-2.6,0.4-3.6-0.5c-0.2-0.2-0.5-0.4-0.8-0.4
	c-0.3-0.5-0.5-1.1-0.5-1.7C13.8,12.2,15.1,10.9,16.8,10.9z M32,39.9H18c-4.3,0-7.7,3.5-7.7,7.7V50h29.5v-2.3
	C39.8,43.4,36.3,39.9,32,39.9z"/>
</svg>
