<?xml version="1.0" encoding="utf-8"?>
<!-- Generator: Adobe Illustrator 23.0.2, SVG Export Plug-In . SVG Version: 6.00 Build 0)  -->
<svg version="1.1" id="Layer_1" xmlns="http://www.w3.org/2000/svg" xmlns:xlink="http://www.w3.org/1999/xlink" x="0px" y="0px"
	 viewBox="0 0 50 50" style="enable-background:new 0 0 50 50;" xml:space="preserve">
<style type="text/css">
	.st0{fill:#231F20;}
</style>
<path class="st0" d="M43.7,14.4H30.1l-3.2-4.8c0.3-0.4,0.5-0.9,0.5-1.5c0-1.3-1.1-2.4-2.4-2.4s-2.4,1.1-2.4,2.4
	c0,0.6,0.2,1.1,0.5,1.5l-3.2,4.8H6.3c-2.1,0-3.8,1.7-3.8,3.8v28c0,2.1,1.7,3.8,3.8,3.8h37.4c2.1,0,3.8-1.7,3.8-3.8v-28
	C47.5,16.1,45.8,14.4,43.7,14.4z M23.8,10.2c0.3,0.2,0.7,0.3,1.2,0.3c0.4,0,0.8-0.1,1.2-0.3l2.8,4.2h-8L23.8,10.2z M44.1,44.8
	c0,1-0.8,1.9-1.9,1.9H7.8c-1,0-1.9-0.8-1.9-1.9V19.6c0-1,0.8-1.9,1.9-1.9h34.4c1,0,1.9,0.8,1.9,1.9C44.1,19.6,44.1,44.8,44.1,44.8z
	 M15.5,24.3c1.8,0,3.2,1.4,3.2,3.2s-1.4,3.2-3.2,3.2s-3.2-1.4-3.2-3.2S13.7,24.3,15.5,24.3z M28.6,31.7l-3.1-4l-6.3,10.8
	c-0.8-0.7-2-1.4-3.9-1.4c-4.1,0-6,4-6,4h8.4l0,0l0,0l22.8,0.2l-8.1-17.2L28.6,31.7z"/>
</svg>
