<?xml version="1.0" encoding="utf-8"?>
<!-- Generator: Adobe Illustrator 23.0.2, SVG Export Plug-In . SVG Version: 6.00 Build 0)  -->
<svg version="1.1" id="Layer_1" xmlns="http://www.w3.org/2000/svg" xmlns:xlink="http://www.w3.org/1999/xlink" x="0px" y="0px"
	 viewBox="0 0 50 50" style="enable-background:new 0 0 50 50;" xml:space="preserve">
<style type="text/css">
	.st0{fill:#231F20;}
</style>
<path class="st0" d="M43.4,23.5C41.3,14.2,32.9,7.3,23,7.3c-11.5,0-20.9,9.4-20.9,20.9S11.5,49.1,23,49.1c1.2,0,2.3-0.1,3.4-0.3
	c1.8,0.8,3.9,1.2,6,1.2c8.6,0,15.5-7,15.5-15.5C47.9,30.2,46.2,26.3,43.4,23.5z M5.8,28.2C5.8,18.7,13.5,11,23,11
	c6.6,0,12.3,3.7,15.2,9.1c-1.8-0.7-3.8-1.1-5.8-1.1c-8.6,0-15.5,7-15.5,15.5c0,4.2,1.7,8.1,4.4,10.9C12.6,44.5,5.8,37.1,5.8,28.2z
	 M32.4,46.3c-6.5,0-11.9-5.3-11.9-11.9c0-6.5,5.3-11.9,11.9-11.9c6.5,0,11.9,5.3,11.9,11.9C44.2,41,38.9,46.3,32.4,46.3z M23.7,15.6
	c0-0.5-0.4-0.9-0.9-0.9c-7.5,0-13.5,6.1-13.5,13.5c0,0.5,0.4,0.9,0.9,0.9s0.9-0.4,0.9-0.9c0-6.5,5.3-11.8,11.8-11.8
	C23.3,16.5,23.7,16.1,23.7,15.6z M32.3,25.6c-4.9,0-8.9,4-8.9,8.9c0,0.5,0.4,0.9,0.9,0.9s0.9-0.4,0.9-0.9c0-3.9,3.2-7.1,7.1-7.1
	c0.5,0,0.9-0.4,0.9-0.9S32.8,25.6,32.3,25.6z M40.3,35.6c-0.5-0.1-1,0.2-1.1,0.6c-0.6,2.4-2.5,4.4-4.9,5c-0.5,0.1-0.7,0.6-0.6,1.1
	c0.1,0.4,0.5,0.6,0.8,0.6c0.1,0,0.2,0,0.2,0c3-0.8,5.4-3.2,6.2-6.3C41,36.2,40.7,35.7,40.3,35.6z"/>
</svg>
