<?xml version="1.0" encoding="utf-8"?>
<!-- Generator: Adobe Illustrator 23.0.3, SVG Export Plug-In . SVG Version: 6.00 Build 0)  -->
<svg version="1.1" id="svg2" xmlns="http://www.w3.org/2000/svg" xmlns:xlink="http://www.w3.org/1999/xlink" x="0px" y="0px"
	 viewBox="0 0 50 50" style="enable-background:new 0 0 50 50;" xml:space="preserve">
<style type="text/css">
	.st0{fill:#231F20;}
</style>
<title>plot</title>
<path id="g10" class="st0" d="M37.4,28.1c0.9,1,1.5,2.2,1.9,3.5c-0.1,1.1-0.1,2.1,0,3.2c-3.1,0.4-5.9,2.2-7.4,4.9H48
	c-1.6-2.8-4.4-4.6-7.6-4.9c-0.3-3.3,0.4-6.6,1.9-9.6c1.3,0.4,4.9,1.1,5.7-3.7c-2-1.1-4.6-0.4-5.7,1.7c-0.2,0.3-0.3,0.6-0.4,0.9
	c-1.2,1.6-2.1,3.5-2.5,5.4c-0.4-0.8-0.9-1.4-1.5-2c-0.4-0.7-2.8-4.2-7-1.1C30.9,26.4,33.3,30.9,37.4,28.1 M2.5,39.6h9.3
	c1.4,0,2.4-1.1,2.4-2.5c0-0.1,0-0.3,0-0.4L13.1,30h5.2v7.2c0,1.3,1.1,2.4,2.4,2.4c0,0,0,0,0,0l0,0c1.4,0,2.4-1.1,2.4-2.4v-9.6
	c0-0.6-0.3-1.3-0.7-1.7c-0.4-0.5-1.1-0.7-1.7-0.7h-5.1l1.9-5.2l1.7,2.8l0.5,0.8l7.7,0.1l0,0c0.9-0.1,1.6-0.9,1.5-1.9
	c-0.1-0.8-0.7-1.4-1.5-1.5l-5.7-0.1l-3.3-5.6c-0.8-1.8-2.9-2.7-4.7-1.9c-0.9,0.4-1.6,1.2-2,2.1L7.8,25.6c-0.2,0.8-0.2,1.6,0,2.3V28
	l1.1,6.7H2.5c-1.3,0.1-2.3,1.3-2.2,2.6C0.4,38.6,1.3,39.5,2.5,39.6 M20.2,13c1.9,0.3,3.6-1.1,3.9-2.9c0-0.3,0-0.5,0-0.8
	c0.2-1.9-1.2-3.5-3-3.7c-0.3,0-0.5,0-0.8,0c-1.9-0.3-3.6,1-3.9,2.9c0,0.3-0.1,0.6,0,0.9c-0.2,1.9,1.3,3.6,3.2,3.7
	C19.7,13,19.9,13,20.2,13 M0,50h50v-5.9H0V50z"/>
</svg>
