<svg id="svg2" xmlns="http://www.w3.org/2000/svg" viewBox="0 0 27 25"><defs><style>.cls-1{fill:#231f20;}</style></defs><title>plot</title><path id="g10" class="cls-1" d="M20.18,13.17a5,5,0,0,1,1,1.91,10.83,10.83,0,0,0,0,1.72,5.3,5.3,0,0,0-4,2.63h8.75a5.28,5.28,0,0,0-4.09-2.64,9.86,9.86,0,0,1,1-5.18c.72.24,2.66.62,3.09-2A2.26,2.26,0,0,0,22.67,11a7.2,7.2,0,0,0-1.35,2.94,4.47,4.47,0,0,0-.83-1.1c-.22-.37-1.53-2.28-3.8-.57,0,0,1.31,2.4,3.49.9M1.35,19.38h5a1.32,1.32,0,0,0,1.3-1.53l-.6-3.64,2.82,0v3.88a1.31,1.31,0,0,0,1.31,1.32h0a1.32,1.32,0,0,0,1.32-1.32v-5.2a1.29,1.29,0,0,0-.39-.93,1.19,1.19,0,0,0-.93-.39H8.45l1-2.82.9,1.51.27.44,4.18.08h0a.92.92,0,0,0,0-1.83L11.7,8.88l-1.77-3A1.94,1.94,0,0,0,6.32,6L4.22,11.8a2,2,0,0,0,0,1.25v.06l.6,3.64H1.35a1.32,1.32,0,0,0,0,2.63M10.89,5A1.86,1.86,0,0,0,13,3a1.83,1.83,0,0,0-2.06-2A1.84,1.84,0,0,0,8.83,3,1.86,1.86,0,0,0,10.89,5M0,25H27V21.84H0Z"/></svg>