<?xml version="1.0" encoding="utf-8"?>
<!-- Generator: Adobe Illustrator 23.0.2, SVG Export Plug-In . SVG Version: 6.00 Build 0)  -->
<svg version="1.1" id="Layer_1" xmlns="http://www.w3.org/2000/svg" xmlns:xlink="http://www.w3.org/1999/xlink" x="0px" y="0px"
	 viewBox="0 0 50 50" style="enable-background:new 0 0 50 50;" xml:space="preserve">
<style type="text/css">
	.st0{fill:#231F20;}
</style>
<path class="st0" d="M40.8,5.1H9.2c-3.6,0-6.6,2.9-6.6,6.6v31.7C2.6,47,5.5,50,9.2,50h31.7c3.6,0,6.6-2.9,6.6-6.6V11.7
	C47.4,8,44.5,5.1,40.8,5.1z M34.4,39.6c-0.4,0.5-1.1,0.8-1.7,0.8H17.4c-0.7,0-1.3-0.3-1.7-0.8C5.4,28,13,18.2,15.6,15.5
	c0.4-0.5,1.1-0.7,1.7-0.7h15.4c0.7,0,1.3,0.3,1.7,0.8C44.6,26.9,37,36.8,34.4,39.6z M17.6,22.9h3.3v9.3h-3.3V22.9z M29.1,22.9h3.3
	v9.3h-3.3V22.9z"/>
</svg>
