<svg id="svg2" xmlns="http://www.w3.org/2000/svg" viewBox="0 0 33.33 33.33"><defs><style>.cls-1{fill:#2c4351;}</style></defs><title>radish</title><g id="g10"><g id="g12"><g id="g14"><g id="g20"><path id="path22" class="cls-1" d="M26.57,14.68a10.7,10.7,0,0,1-6.92,1L28.5,8.24s-6.34,4.1-9,5.7a12.42,12.42,0,0,0,1.26-4.16,10.09,10.09,0,0,1,2.79-2,11.63,11.63,0,0,1,7.71-1.2c-.32,1.72-1.45,6.2-4.72,8.13M14.39,28a6.07,6.07,0,0,1-1.14.74,7.47,7.47,0,0,1-1.71.64,5.94,5.94,0,0,1-3.42-.22l-1.25-.29a19.77,19.77,0,0,0-2.16-.46l-.47,0H3.87a8,8,0,0,0-.23-2.55A8.93,8.93,0,0,1,3.55,23s.07-.62.08-.6a6,6,0,0,1,.67-1.74A8.87,8.87,0,0,1,5,19.52s1.25,4.78,5.22,7.19A9.13,9.13,0,0,0,14.39,28M19.14,8.38c0,.22,0,.44,0,.66a11,11,0,0,1-1.67,5.14L17.09,12,16.06,6l.08,8.19a7,7,0,0,1-2.77-5.3,7.31,7.31,0,0,1,2.49-5.9,7.64,7.64,0,0,1,3.28,5.44M32.56,5.17c-.16-.07-4.14-1.66-9.72,1.06a12,12,0,0,0-2.09,1.31c-.62-4.07-4.32-6.26-4.49-6.36L15.83.93l-.43.26a8.74,8.74,0,0,0-3.72,7.69,8.78,8.78,0,0,0,3.81,6.9l-.28.46,0,0-.12.1a8.8,8.8,0,0,0-5.41-1.85,8.9,8.9,0,0,0-7,3.47h0A7.86,7.86,0,0,0,1,21.38a1.77,1.77,0,0,0,0,.2,17.56,17.56,0,0,0,.08,5A4.58,4.58,0,0,1,.55,30.1,1.36,1.36,0,0,0,.6,32a1.33,1.33,0,0,0,1,.39,1.36,1.36,0,0,0,1-.38,2.8,2.8,0,0,1,1.85-.84c.41.05,1,.2,1.65.35a8.82,8.82,0,0,0,3.7.82,9.16,9.16,0,0,0,1.83-.19,7.44,7.44,0,0,0,2.29-.79l.52-.35a8.52,8.52,0,0,0,4.28-7.59,8.93,8.93,0,0,0-1.55-5l1.49-1.17a17.39,17.39,0,0,0,3.18.31,11.12,11.12,0,0,0,5.67-1.41c4.79-2.84,5.62-9.8,5.65-10.09l.07-.63Z"/></g></g></g></g></svg>