<?xml version="1.0" encoding="utf-8"?>
<!-- Generator: Adobe Illustrator 23.0.2, SVG Export Plug-In . SVG Version: 6.00 Build 0)  -->
<svg version="1.1" id="Layer_1" xmlns="http://www.w3.org/2000/svg" xmlns:xlink="http://www.w3.org/1999/xlink" x="0px" y="0px"
	 viewBox="0 0 50 50" style="enable-background:new 0 0 50 50;" xml:space="preserve">
<style type="text/css">
	.st0{fill:#231F20;}
</style>
<path class="st0" d="M35.9,37.5c0,0-5.1,3.8-9.1,0.7c-4-3.2-9.9-17.3-17.3-20.4c0,0-5.6,1.1-5.9,7.4s2.5,9.5,2.9,13.6
	C6.9,43,7.4,50,7.4,50h2.3c0,0,0.7-13.4,0.7-14.4s1.2-2.3,2.6-0.5S24.2,49.9,31.5,50c6.6,0.1,10.8-0.5,13.3-1.5
	c1.3-0.5,2-2.1,1.2-3.1C42.3,40.4,35.9,37.5,35.9,37.5"/>
</svg>
