<svg id="svg2" xmlns="http://www.w3.org/2000/svg" viewBox="0 0 33.33 33.33"><defs><style>.cls-1{fill:#231f20;}</style></defs><title>soap</title><path id="g10" class="cls-1" d="M30.59,23.49a8,8,0,0,1-4.33,3.7h0a40.15,40.15,0,0,1-9.82,1.22A40.15,40.15,0,0,1,6.61,27.2a7.44,7.44,0,0,1-4.1-3.73c-.1.76.16,1.62.16,2.64v0a6.75,6.75,0,0,0,4.42,6,38.52,38.52,0,0,0,19.08,0,6.82,6.82,0,0,0,4.5-6v0a19.35,19.35,0,0,0-.08-2.62M16.85,12.64a4.56,4.56,0,0,1,.3-.58,4.76,4.76,0,0,0,.58.61,1.45,1.45,0,0,0,.18.17,4.52,4.52,0,0,0,.95.55l.09,0a3.76,3.76,0,0,0,.1.66Q17.81,14,16.56,14a5.05,5.05,0,0,1,.08-.68,4.42,4.42,0,0,1,.21-.68m10-2.76A3.9,3.9,0,0,1,28,14.7a4.15,4.15,0,0,1-.35.57.75.75,0,0,0-.07.12c-.12.14-.26.27-.39.4a3.89,3.89,0,0,1-1.84,1,3.94,3.94,0,0,1-2,0,4.12,4.12,0,0,1-1.32-.67,3.86,3.86,0,0,1-1.28-1.81,4.43,4.43,0,0,1-.13-.49,4.72,4.72,0,0,0,.92-.11,4.37,4.37,0,0,0,1.21-.5,4.31,4.31,0,0,0,1.13-.93l.12-.13a4.19,4.19,0,0,0,.75-1.47,4.14,4.14,0,0,0,.15-1.53,3.89,3.89,0,0,1,2,.79M22.27,7.27a3,3,0,0,1,.43.44,2.61,2.61,0,0,1,.42.72,2.83,2.83,0,0,1,.17.65.75.75,0,0,1,0,.15.62.62,0,0,1,0,.13A2.65,2.65,0,0,1,22.8,11a.41.41,0,0,1-.07.11,2.69,2.69,0,0,1-2.08,1,2.8,2.8,0,0,1-.81-.09,3,3,0,0,1-.76-.37l-.16-.1a2.79,2.79,0,0,1-.61-.68,2.73,2.73,0,0,1-.43-1.66,2.77,2.77,0,0,1,.57-1.48,2.73,2.73,0,0,1,3.82-.46M7,25.89a38.79,38.79,0,0,0,18.94,0,6.66,6.66,0,0,0,4.16-4.62,3.14,3.14,0,0,0,.08-.73,5.88,5.88,0,0,0-1.74-3.71,3.42,3.42,0,0,0,.42-.43l.05-.07a5.36,5.36,0,0,0,.38-.59,5.5,5.5,0,0,0-4.81-8.29,4.33,4.33,0,0,0-7.3-.72h0a4.33,4.33,0,0,0-.79,3.67,3.83,3.83,0,0,0-.28.29,5.51,5.51,0,0,0-1,2c-.06.23-.08.46-.12.69a5.19,5.19,0,0,0-.05.68,38.4,38.4,0,0,0-8,1.14,6.43,6.43,0,0,0-4.23,5.34,3.69,3.69,0,0,0,.07.65A6.65,6.65,0,0,0,7,25.89M9.89,6.05a1.42,1.42,0,1,1-1.8.88A1.41,1.41,0,0,1,9.43,6a1.47,1.47,0,0,1,.46.07M8.43,10.28a2.88,2.88,0,0,0,1,.17,3.07,3.07,0,0,0,2.89-2,3.06,3.06,0,0,0-1.89-3.89,3.05,3.05,0,1,0-2,5.77M14.1,1.69a.84.84,0,0,1,.5.44.87.87,0,0,1,0,.67h0a.87.87,0,0,1-.44.5.91.91,0,0,1-.67,0A.89.89,0,0,1,13,2.23a.88.88,0,0,1,.83-.59.69.69,0,0,1,.28.05M13,4.88a2.32,2.32,0,0,0,.82.14,2.42,2.42,0,0,0,1.09-.25,2.46,2.46,0,0,0,1.28-1.44,2.51,2.51,0,0,0-.11-1.92A2.54,2.54,0,0,0,14.64.14,2.51,2.51,0,0,0,13,4.88"/></svg>