<?xml version="1.0" encoding="utf-8"?>
<!-- Generator: Adobe Illustrator 23.0.2, SVG Export Plug-In . SVG Version: 6.00 Build 0)  -->
<svg version="1.1" id="Layer_1" xmlns="http://www.w3.org/2000/svg" xmlns:xlink="http://www.w3.org/1999/xlink" x="0px" y="0px"
	 viewBox="0 0 50 50" style="enable-background:new 0 0 50 50;" xml:space="preserve">
<style type="text/css">
	.st0{fill:#231F20;}
</style>
<path class="st0" d="M37.3,17l1.2,2.8l4-7l-7.7-1.4L36,14c-10.9,3.5-21.8-7.6-32.7-1.1v2.7C14.6,9,26,21.7,37.3,17z M26.2,29.2v3.2
	c3.7,0.9,7.5,1.3,11.2-0.3l1.2,2.8l4-7L35,26.6l1.1,2.6C32.8,30.2,29.5,30,26.2,29.2z M4.2,29.4c-0.4-0.1-0.8,0.2-0.9,0.6
	c-0.1,0.4,0.2,0.8,0.6,0.9l1.9,0.4l-2,1.2c-0.4,0.2-0.5,0.7-0.3,1.1C3.7,33.9,3.9,34,4.2,34c0.1,0,0.3,0,0.4-0.1l2-1.2l-0.4,1.9
	C6,35,6.3,35.4,6.7,35.5c0.1,0,0.1,0,0.2,0c0.4,0,0.7-0.2,0.8-0.6l0.8-3.4l3.6-2.2v4.2L9.6,36c-0.3,0.3-0.3,0.8,0,1.1s0.8,0.3,1.1,0
	l1.4-1.4V38c0,0.4,0.4,0.8,0.8,0.8s0.8-0.4,0.8-0.8v-2.3l1.4,1.4c0.2,0.2,0.4,0.2,0.6,0.2c0.2,0,0.4-0.1,0.6-0.2
	c0.3-0.3,0.3-0.8,0-1.1l-2.5-2.5v-4.3l3.7,2.2l0.9,3.4c0.1,0.4,0.4,0.6,0.8,0.6c0.1,0,0.1,0,0.2,0c0.4-0.1,0.7-0.5,0.6-1l-0.5-1.9
	l2,1.2c0.1,0.1,0.3,0.1,0.4,0.1c0.3,0,0.5-0.1,0.7-0.4c0.2-0.4,0.1-0.9-0.3-1.1l-2-1.2l1.9-0.5c0.4-0.1,0.7-0.5,0.6-1
	c-0.1-0.4-0.5-0.7-1-0.6l-3.6,1l-3.8-2.2l3.7-2.3l3.4,0.8c0.1,0,0.1,0,0.2,0c0.4,0,0.7-0.2,0.8-0.6c0.1-0.4-0.2-0.8-0.6-0.9L20,24.3
	l2-1.2c0.4-0.2,0.5-0.7,0.3-1.1s-0.7-0.5-1.1-0.3l-2,1.2l0.4-1.9c0.1-0.4-0.2-0.8-0.6-0.9s-0.8,0.2-0.9,0.6l-0.8,3.4l-3.6,2.2v-4.2
	l2.5-2.5c0.3-0.3,0.3-0.8,0-1.1c-0.3-0.3-0.8-0.3-1.1,0l-1.4,1.4v-2.3c0-0.4-0.4-0.8-0.8-0.8s-0.8,0.4-0.8,0.8v2.3l-1.4-1.4
	c-0.3-0.3-0.8-0.3-1.1,0s-0.3,0.8,0,1.1l2.5,2.5v4.3l-3.7-2.2l-0.9-3.4c-0.1-0.4-0.5-0.7-1-0.6c-0.4,0.1-0.7,0.5-0.6,1l0.5,1.9
	l-2-1.2c-0.4-0.2-0.9-0.1-1.1,0.3c-0.2,0.4-0.1,0.9,0.3,1.1l2,1.2L3.7,25c-0.4,0.1-0.7,0.5-0.6,1c0.1,0.4,0.4,0.6,0.8,0.6
	c0.1,0,0.1,0,0.2,0l3.4-0.9l3.8,2.2l-3.7,2.3L4.2,29.4z M36,44.2c-10.9,3.5-21.8-7.6-32.7-1v2.7c11.3-6.6,22.7,6,34,1.3l1.2,2.8l4-7
	l-7.7-1.4L36,44.2z"/>
</svg>
