<?xml version="1.0" encoding="utf-8"?>
<!-- Generator: Adobe Illustrator 23.0.2, SVG Export Plug-In . SVG Version: 6.00 Build 0)  -->
<svg version="1.1" id="Layer_1" xmlns="http://www.w3.org/2000/svg" xmlns:xlink="http://www.w3.org/1999/xlink" x="0px" y="0px"
	 viewBox="0 0 50 50" style="enable-background:new 0 0 50 50;" xml:space="preserve">
<style type="text/css">
	.st0{fill:#231F20;}
</style>
<path class="st0" d="M40.6,11l1.2,3L46,6.6l-8-1.4l1.2,2.6c-11.4,3.6-23-8-34.4-1.2v2.8C16.8,2.6,28.6,15.8,40.6,11z M39.2,39.6
	c-11.4,3.6-22.8-8-34.4-1v2.8c12-7,23.8,6.2,35.8,1.4l1.2,2.8l4.2-7.4l-8-1.4L39.2,39.6z M17.8,32.4c10.8-6.4,2.6-17.2,2.6-17.2
	c0,1.8-1.6,3.8-1.6,3.8c0-1-0.4-2-0.8-2.8c-0.6-1-1.2-1.8-1.6-2.4c-0.6-0.6-1.2-1.2-1.8-1.8c-0.8-0.6-1.2-1-1.4-1.2
	c-0.4,0-0.6-0.2-0.8-0.4c0,4-1.4,7.6-3.8,10.6c0-1.2-0.4-2.4-1.2-3.6c0,0.8-0.4,2-1,3.6c-0.6,1.6-1,2.6-1.2,3.2
	c-0.4,1.6-0.2,3.2,0.6,4.4c0.8,1.2,2.2,2.6,4.4,3.8c-0.4-0.8-0.6-1.6-0.6-2.4s0-1.4,0.2-2c0.2-0.6,0.6-1,1-1.6
	c0.8-1.2,1.2-2.4,1.4-3.4l0.2,0.4c0.2,0.4,0.2,0.8,0.2,1.4s0,1.4,0,2.4c0.8-0.8,1.2-2,1.6-3.6c0.4-1.6,0.4-2.8,0.2-3.4
	c2,1.2,3.4,3,4,5.4C19,28.2,18.8,30.4,17.8,32.4L17.8,32.4z M39.2,23.8c-3.8,1.2-7.4,0.8-11.2-0.2V27c4.2,1.2,8.4,1.6,12.6,0l1.2,3
	l4.2-7.4l-8-1.4L39.2,23.8z"/>
</svg>
