<svg id="svg2" xmlns="http://www.w3.org/2000/svg" viewBox="0 0 33.33 33.33"><defs><style>.cls-1{fill:#231f20;}</style></defs><title>stove</title><path id="g10" class="cls-1" d="M6.66,1.45A1.45,1.45,0,0,0,8.11,2.91H14A1.46,1.46,0,1,0,14,0H8.11A1.45,1.45,0,0,0,6.66,1.45m13.2,1.46h5.93a1.46,1.46,0,1,0,0-2.91H19.86a1.46,1.46,0,0,0,0,2.91m5,7.7a1.56,1.56,0,1,1,1.56-1.56,1.55,1.55,0,0,1-1.56,1.56m-5.44,0a1.56,1.56,0,1,1,1.55-1.56,1.56,1.56,0,0,1-1.55,1.56m-5.44,0A1.56,1.56,0,1,1,15.5,9.05,1.56,1.56,0,0,1,14,10.61m-5.45,0a1.56,1.56,0,1,1,1.56-1.56A1.55,1.55,0,0,1,8.5,10.61M29.41,8.78a3.57,3.57,0,0,0-3.57-3.56H7.49A3.56,3.56,0,0,0,3.93,8.78v3.57H29.41ZM8.79,15.64H24.54a.81.81,0,1,1,0,1.61H8.79a.81.81,0,1,1,0-1.61M24.86,27.19a2.13,2.13,0,0,1-2.13,2.14H10.6a2.13,2.13,0,0,1-2.13-2.14v-5.1A2.13,2.13,0,0,1,10.6,20H22.73a2.13,2.13,0,0,1,2.13,2.13ZM7.49,33.33H25.84a3.56,3.56,0,0,0,3.57-3.56V13.49H3.93V29.77a3.56,3.56,0,0,0,3.56,3.56"/></svg>