<?xml version="1.0" encoding="utf-8"?>
<!-- Generator: Adobe Illustrator 23.0.2, SVG Export Plug-In . SVG Version: 6.00 Build 0)  -->
<svg version="1.1" id="Layer_1" xmlns="http://www.w3.org/2000/svg" xmlns:xlink="http://www.w3.org/1999/xlink" x="0px" y="0px"
	 viewBox="0 0 50 50" style="enable-background:new 0 0 50 50;" xml:space="preserve">
<style type="text/css">
	.st0{fill:#231F20;}
</style>
<path class="st0" d="M42.8,6.8h-15L22.5,50h25.6L42.8,6.8z M36.5,44.5c0,0.7-0.5,1.2-1.2,1.2s-1.2-0.5-1.2-1.2v-4.9
	c0-0.7,0.5-1.2,1.2-1.2s1.2,0.5,1.2,1.2V44.5z M36.5,34.6c0,0.7-0.5,1.2-1.2,1.2s-1.2-0.5-1.2-1.2v-4.9c0-0.7,0.5-1.2,1.2-1.2
	s1.2,0.5,1.2,1.2V34.6z M36.5,24.7c0,0.7-0.5,1.2-1.2,1.2s-1.2-0.5-1.2-1.2v-4.9c0-0.7,0.5-1.2,1.2-1.2s1.2,0.5,1.2,1.2V24.7z
	 M36.5,14.8c0,0.7-0.5,1.2-1.2,1.2s-1.2-0.5-1.2-1.2V9.9c0-0.7,0.5-1.2,1.2-1.2s1.2,0.5,1.2,1.2V14.8z M18.8,13.9
	c-0.2-0.6-0.9-0.8-1.4-0.4l-1,1c-0.3,0.3-0.9,0.3-1.2,0L7.4,6.8c-0.3-0.3-0.9-0.3-1.2,0L2,11c-0.3,0.3-0.3,0.9,0,1.2L9.8,20
	c0.3,0.3,0.3,0.9,0,1.2l-1,1c-0.5,0.5-0.2,1.2,0.4,1.4L21,26.7c0.6,0.2,1.2-0.4,1-1L18.8,13.9z"/>
</svg>
