<svg id="Layer_1" data-name="Layer 1" xmlns="http://www.w3.org/2000/svg" viewBox="0 0 36 28"><defs><style>.cls-1{fill:#231f20;}</style></defs><title>table</title><path id="g10" class="cls-1" d="M36,7.23V10a1.38,1.38,0,0,1-1.39,1.38V26.61A1.38,1.38,0,0,1,33.23,28H31.84a1.38,1.38,0,0,1-1.38-1.39V11.38H5.54V26.61A1.39,1.39,0,0,1,4.15,28H2.77a1.38,1.38,0,0,1-1.38-1.39V11.38A1.38,1.38,0,0,1,0,10V7.23A1.34,1.34,0,0,1,.56,6.12L6.62.58A1.37,1.37,0,0,1,7.45.31H28.54a1.37,1.37,0,0,1,.82.27L35.28,6A1.69,1.69,0,0,1,36,7.23ZM27.69,21.08a1.4,1.4,0,0,0,1.39-1.39V12.77H26.3v6.92a1.4,1.4,0,0,0,1.39,1.39m-19.38,0a1.39,1.39,0,0,0,1.38-1.39V12.77H6.92v6.92a1.39,1.39,0,0,0,1.39,1.39"/></svg>