<?xml version="1.0" encoding="utf-8"?>
<!-- Generator: Adobe Illustrator 23.0.2, SVG Export Plug-In . SVG Version: 6.00 Build 0)  -->
<svg version="1.1" id="Layer_1" xmlns="http://www.w3.org/2000/svg" xmlns:xlink="http://www.w3.org/1999/xlink" x="0px" y="0px"
	 viewBox="0 0 50 50" style="enable-background:new 0 0 50 50;" xml:space="preserve">
<style type="text/css">
	.st0{fill:#231F20;}
</style>
<path class="st0" d="M28,25.2c0,0-0.4-0.3-1-0.3c-0.4,0-0.7,0.1-1.1,0.3c-0.4,0.2-0.6,0.5-0.6,0.8c-0.1,0.6,0.4,1.1,0.5,1.1
	c0.1,0.1,0.5,0.4,1.1,0.4l0,0c0.4,0,0.8-0.1,1.2-0.4c0.3-0.2,0.4-0.5,0.4-0.8C28.5,25.8,28.1,25.3,28,25.2z M45.2,15.6
	c2.2-2.2,2.2-5.9,0-8.1s-5.8-2.2-8.1,0c-1.7,1.7-2.1,4.2-1.2,6.3l-2.8,2.8l-3.9-3.8c0,0,1.3-1.3-0.4-2.6C27.1,8.9,26,9.6,25.4,10
	c-0.7,0.4-1.5,2.6,0,3.8s2.4,0.5,2.4,0.5l3.9,3.7l-3.8,3.8c-2.6-2.9-6.4-6-10.4-6.6l1.3,4.6l-3.7,2.9c0,0,4.4,1.5,7.5,4.3l-7,7
	c0,0-3.2,2.3-6.3-0.8S7.1,25.3,7.7,24c0,0,1.3,0.8,1.8,2.1c0,0,3.4-5.6,2.2-9c0,0-5.8,1.9-8.5,5.1c0,0,2.1,0.1,2.8,0.5
	c0,0-3.4,5.8-2.3,9.6c1.1,3.8,4.9,11.4,2.7,14.2c0,0,4.4-1,8.6,1.1s11.4,2.4,15.6-0.5c0,0,0.6,1.8,0.3,2.8c0,0,4.4-5.2,4.6-8.6
	c0,0-4.9-0.3-9,1.5c0,0,1.6,1.5,2,2.1c0,0-5.1,1.9-8.6-1.6s-1-5.9-1-5.9l6.6-7c2.1,2.7,5.3,5.4,8.5,6.2v-4.1l4.9-2.1
	c0,0-4.9-2.3-8.2-5.5l4-4.2l4.1,3.9c-0.2,0.6-1,1.4,0.1,2.6c1.2,1.2,3,0.5,3.5,0.1c0.5-0.5,2-1.7,0.4-3.3c-1.6-1.6-2.7-1-2.7-1
	L36,19.3l2.5-2.7C40.7,17.8,43.4,17.4,45.2,15.6z M22.7,24.9l1.4-2l-3,0.1v-0.2c0-0.8-0.1-1.7-0.2-2.2c-0.5,0.6-1.4,1.7-2,2.4
	l-0.4-0.3c0.8-1,2.2-2.8,2.4-2.9l0.1-0.1l0.2,0.1c0.2,0.1,0.3,0.1,0.4,2.7l3.5-0.1l-2,2.9L22.7,24.9z M26.8,28.1L26.8,28.1
	c-0.6,0-1.2-0.3-1.4-0.5c-0.1-0.1-0.7-0.8-0.6-1.6c0.1-0.5,0.3-0.9,0.9-1.2c0.4-0.3,0.9-0.4,1.4-0.4c0.8,0,1.3,0.4,1.4,0.5
	s0.6,0.8,0.6,1.5c0,0.5-0.2,0.9-0.6,1.2C27.9,27.9,27.4,28.1,26.8,28.1z M31.1,27.2l-0.5,3.2l3,0.1l-3.1,2.7l-0.3-0.4l2.2-1.9
	L30,30.8l0.4-2.4l-2.1,1.8L28,29.8L31.1,27.2z M39.1,9.5c1.2-1.2,3.1-1.2,4.3,0s1.2,3.1,0,4.3s-3.1,1.2-4.3,0
	C37.9,12.5,37.9,10.6,39.1,9.5z"/>
</svg>
