<?xml version="1.0" encoding="utf-8"?>
<!-- Generator: Adobe Illustrator 23.0.3, SVG Export Plug-In . SVG Version: 6.00 Build 0)  -->
<svg version="1.1" id="Layer_1" xmlns="http://www.w3.org/2000/svg" xmlns:xlink="http://www.w3.org/1999/xlink" x="0px" y="0px"
	 viewBox="0 0 50 50" style="enable-background:new 0 0 50 50;" xml:space="preserve">
<style type="text/css">
	.st0{fill:#231F20;}
</style>
<title>teacup</title>
<path class="st0" d="M49.5,26c-0.7-1-1.8-1.5-3-1.5h-6.2c0.1-0.9,0.1-1.7,0.1-2.2c0-0.5-0.4-0.9-0.9-0.9c0,0,0,0,0,0h-38
	c-0.5,0-0.9,0.4-0.9,0.9c0.1,4.1,1.1,20.2,14.2,24.1H2.4c-0.8,0-1.6,0.5-1.9,1.3l-0.4,1c-0.2,0.4-0.1,1,0.4,1.2C0.6,50,0.8,50,1,50
	h38.9c0.5,0.1,0.9-0.3,1-0.8c0-0.2,0-0.4-0.1-0.5l-0.4-1c-0.3-0.8-1.1-1.3-1.9-1.3H26.8c4-1.3,7.4-4,9.4-7.7
	c8.4-0.2,12-6.1,13.5-9.6C50.2,28.1,50.1,27,49.5,26 M20.1,20.1c0.2,0.2,0.5,0.3,0.8,0.4c0.2,0,0.5-0.1,0.7-0.2
	c0.4-0.4,0.5-1,0.1-1.4c0,0,0,0,0,0c0,0-2.7-3.2-1-5.3c2.3-2.9,0.9-5.2-0.2-6c-0.5-0.2-1.1,0-1.3,0.5c-0.2,0.3-0.1,0.7,0.1,1
	c0.2,0.2,1.4,1.3-0.1,3.2C16.3,15.7,19.9,19.9,20.1,20.1 M25.4,2.2c0.4-0.3,0.5-1,0.2-1.4c-0.3-0.4-1-0.5-1.4-0.2
	c-1,0.8-2.4,3.2-0.2,6.1c1.7,2.2-1,5.3-1,5.3c-0.4,0.4-0.3,1,0.1,1.4c0,0,0,0,0,0c0.2,0.2,0.4,0.2,0.6,0.2c0.3,0,0.6-0.1,0.8-0.4
	c0.1-0.2,3.8-4.4,1-7.9C24,3.5,25.1,2.4,25.4,2.2"/>
</svg>
