<?xml version="1.0" encoding="utf-8"?>
<!-- Generator: Adobe Illustrator 23.0.2, SVG Export Plug-In . SVG Version: 6.00 Build 0)  -->
<svg version="1.1" id="Layer_1" xmlns="http://www.w3.org/2000/svg" xmlns:xlink="http://www.w3.org/1999/xlink" x="0px" y="0px"
	 viewBox="0 0 50 50" style="enable-background:new 0 0 50 50;" xml:space="preserve">
<style type="text/css">
	.st0{fill:#231F20;}
</style>
<path class="st0" d="M43.1,16.2H25.6l8.6-10.4c0.5-0.6,0.4-1.6-0.2-2.1c-0.6-0.5-1.6-0.4-2.1,0.2L23.5,14l-5.4-6.1
	c-0.6-0.6-1.5-0.7-2.1-0.1s-0.7,1.5-0.1,2.1l5.6,6.4H6.9c-2.8,0-5.1,2.3-5.1,5.1V45c0,2.8,2.3,5.1,5.1,5.1h36.2
	c2.8,0,5.1-2.3,5.1-5.1V21.3C48.2,18.5,45.9,16.2,43.1,16.2z M38.2,37.5c0,0.6-0.1,3.7-2.6,6.2c-1.6,1.6-3.8,2.6-6.2,2.6
	c-2.1,0.2-4.5,0.3-7,0.3c-2.8,0-5.1-0.1-7.4-0.3c-0.6,0-3.7-0.1-6.2-2.6c-1.6-1.6-2.6-3.8-2.6-6.2C6,36.2,6,34.8,6,33.2
	c0-1.6,0-3.2,0.1-4.5c0-0.6,0.1-3.7,2.6-6.2c1.6-1.6,3.8-2.6,6.2-2.6c2.1-0.2,4.6-0.3,7.2-0.3c2.7,0,5,0.1,7.2,0.3
	c0.6,0,3.7,0.1,6.2,2.6c1.6,1.6,2.6,3.8,2.6,6.2c0.2,1.1,0.3,2.6,0.3,4.2C38.5,34.7,38.5,36.2,38.2,37.5z M43.1,33.2
	c-1.2,0-2.2-1-2.2-2.2s1-2.2,2.2-2.2s2.2,1,2.2,2.2S44.3,33.2,43.1,33.2z M43.1,26.2c-1.2,0-2.2-1-2.2-2.2s1-2.2,2.2-2.2
	s2.2,1,2.2,2.2S44.3,26.2,43.1,26.2z"/>
</svg>
