<?xml version="1.0" encoding="utf-8"?>
<!-- Generator: Adobe Illustrator 23.0.4, SVG Export Plug-In . SVG Version: 6.00 Build 0)  -->
<svg version="1.1" id="Layer_1" xmlns="http://www.w3.org/2000/svg" xmlns:xlink="http://www.w3.org/1999/xlink" x="0px" y="0px"
	 viewBox="0 0 512 512" style="enable-background:new 0 0 512 512;" xml:space="preserve">
<style type="text/css">
	.st0{fill-rule:evenodd;clip-rule:evenodd;}
</style>
<title>dsTimes</title>
<path class="st0" d="M288.6,256.9L505,39.7c9-8.7,9.3-23.1,0.6-32.1c0,0,0,0,0,0L505,7.1c-8.4-9-22.4-9.4-31.4-1.1c0,0,0,0,0,0l-1,1
	L255.9,224.3L39.6,7.1C30.3-1.7,15.7-1.3,6.9,8c-8.5,8.9-8.4,22.9,0,31.8L223.3,257L6.9,474.2c-9,8.7-9.3,23-0.7,32
	c0.1,0.1,0.1,0.1,0.2,0.2l0.5,0.6c5.4,3.8,12,5.5,18.6,4.9c4.5,0,14,0,14-4.6l216.4-217.6l216.6,217.3c5.5,3.9,12.2,5.6,18.9,4.9
	c4.7,0,13.9,0,13.9-4.6c8.9-8.9,8.9-23.3,0-32.3l0,0L288.6,256.9z"/>
</svg>
