<?xml version="1.0" encoding="utf-8"?>
<!-- Generator: Adobe Illustrator 23.0.2, SVG Export Plug-In . SVG Version: 6.00 Build 0)  -->
<svg version="1.1" id="Layer_1" xmlns="http://www.w3.org/2000/svg" xmlns:xlink="http://www.w3.org/1999/xlink" x="0px" y="0px"
	 viewBox="0 0 50 50" style="enable-background:new 0 0 50 50;" xml:space="preserve">
<style type="text/css">
	.st0{fill:#231F20;}
</style>
<path class="st0" d="M20,10c0-2.6-2.1-4.7-4.7-4.7H9.7C7.1,5.3,5,7.4,5,10v16h3.4v8.4c0,0,1.2,2.8,4.8,6.4c2,2,1.1,4.6-0.1,6.5h-1.9
	c-0.8,0-1.4,0.6-1.4,1.4c0,0.8,0.6,1.4,1.4,1.4h23.7c0.8,0,1.4-0.6,1.4-1.4c0-0.8-0.6-1.4-1.4-1.4h-1.2c-0.5-1.6-1.4-3.5-2.4-5
	c-2-2.8-2.8-4.8,0.4-5.7s12.1-5.2,12.1-11.1H20V10z M43.5,20.6H23.1c-0.8,0-1.4,0.6-1.4,1.4s0.6,1.4,1.4,1.4h20.5
	c0.8,0,1.4-0.6,1.4-1.4C45,21.3,44.3,20.6,43.5,20.6z"/>
</svg>
