<svg id="svg2" xmlns="http://www.w3.org/2000/svg" viewBox="0 0 33.33 33.33"><defs><style>.cls-1{fill:#231f20;}</style></defs><title>toilet</title><path id="g10" class="cls-1" d="M13,3.5A3.49,3.49,0,0,0,9.45,0H5.29A3.49,3.49,0,0,0,1.79,3.5V15.4H4.32v6.25a17.25,17.25,0,0,0,3.57,4.76c1.49,1.49.82,3.42-.07,4.83H6.4a1,1,0,0,0,0,2.09H24a1,1,0,0,0,0-2.09h-.89a16.08,16.08,0,0,0-1.79-3.72c-1.49-2.08-2.08-3.57.3-4.23s9-3.87,9-8.26H13Zm17.47,7.89H15.25a1,1,0,1,0,0,2.08H30.5a1,1,0,0,0,1-1,1.13,1.13,0,0,0-1.12-1"/></svg>