<?xml version="1.0" encoding="utf-8"?>
<!-- Generator: Adobe Illustrator 23.0.2, SVG Export Plug-In . SVG Version: 6.00 Build 0)  -->
<svg version="1.1" id="Layer_1" xmlns="http://www.w3.org/2000/svg" xmlns:xlink="http://www.w3.org/1999/xlink" x="0px" y="0px"
	 viewBox="0 0 50 50" style="enable-background:new 0 0 50 50;" xml:space="preserve">
<style type="text/css">
	.st0{fill:#231F20;}
</style>
<path class="st0" d="M37.1,25.2c2,0,3.9-0.7,5.4-2.2c2-2,2.7-4.8,2-7.4l-3,3c-0.8,0.8-1.8,1.1-2.8,1.1s-2-0.4-2.8-1.1
	c-1.5-1.5-1.5-4,0-5.5l3-3c-0.6-0.2-1.3-0.2-1.9-0.2c-2,0-3.9,0.7-5.4,2.2c-2.2,2.2-2.8,5.3-1.8,8l-23,23c-1.3,1.3-1.3,3.5,0,4.8
	c0.7,0.7,1.5,1,2.4,1s1.7-0.3,2.4-1l23-23C35.4,25,36.3,25.2,37.1,25.2z M9.5,46.5c-0.8,0-1.4-0.6-1.4-1.4c0-0.8,0.6-1.4,1.4-1.4
	c0.8,0,1.4,0.6,1.4,1.4C11,45.8,10.3,46.5,9.5,46.5z M10,24.8c-0.3-0.7-0.1-1.6,0.5-2.2c0.8-0.8,2.1-0.8,2.9,0
	c0.2,0.2,0.4,0.5,0.5,0.8l5,5l3.5-3.5l-6-6c-0.4-0.4-0.6-0.9-0.7-1.4c3.2-7.6,9.9-6,9.9-6l0.4-0.7c-8.2-5.1-17.5,5.9-17.5,5.9
	c-0.2,0.4,0,0.9,0.1,1.1l0,0c0.3,0.7,0.1,1.6-0.5,2.2s-1.5,0.8-2.2,0.5l-3.1,3.1L7,27.8L10,24.8z M30.5,31.4l-5,5l12.8,12.8
	c1,1,2.5,1,3.5,0l1.5-1.5c1-1,1-2.5,0-3.5L30.5,31.4z"/>
</svg>
