<?xml version="1.0" encoding="utf-8"?>
<!-- Generator: Adobe Illustrator 23.0.2, SVG Export Plug-In . SVG Version: 6.00 Build 0)  -->
<svg version="1.1" id="Layer_1" xmlns="http://www.w3.org/2000/svg" xmlns:xlink="http://www.w3.org/1999/xlink" x="0px" y="0px"
	 viewBox="0 0 50 50" style="enable-background:new 0 0 50 50;" xml:space="preserve">
<style type="text/css">
	.st0{fill:#231F20;}
</style>
<path class="st0" d="M45.7,15.3l-1.8-2C43.7,13,43.3,13,43,13.2l0,0l-4.5-5.1l-10.9,9.7l4.5,5.1L32,23.1c-0.3,0.2-0.3,0.6-0.1,0.9
	l0.1,0.1L4.8,46.5c-0.8,0.7-1,2-0.2,2.8c0.7,0.8,2,0.9,2.8,0.1l26.5-23.3c0.2,0.1,0.5,0.1,0.7-0.1l11.1-9.8C46,16,46,15.6,45.7,15.3
	z M33.3,21.9L29.9,18l1.5-1.4l2.1,1.6L32.2,16l1.6-1.5l2.1,1.6l-1.4-2.3l1.6-1.5l2.1,1.6l-1.4-2.3l1.5-1.4l3.4,3.8L33.3,21.9z"/>
</svg>
