<?xml version="1.0" encoding="utf-8"?>
<!-- Generator: Adobe Illustrator 23.0.2, SVG Export Plug-In . SVG Version: 6.00 Build 0)  -->
<svg version="1.1" id="Layer_1" xmlns="http://www.w3.org/2000/svg" xmlns:xlink="http://www.w3.org/1999/xlink" x="0px" y="0px"
	 viewBox="0 0 50 50" style="enable-background:new 0 0 50 50;" xml:space="preserve">
<style type="text/css">
	.st0{fill:#231F20;}
</style>
<path class="st0" d="M14.9,28.9l2.7,3.9l-3.9,2.7l-2.7-3.9L14.9,28.9z M46.9,19.1L37.4,5.5c0,0-1.1,0.5-2,1.3L45,20.5
	C46.1,19.9,46.9,19.1,46.9,19.1z M18.2,32c0,0,3,1.7,5.1,0.3c2.2-1.4,13.5-8.3,13.5-8.3s4.7-2.6,6.6-3.1l-9.1-13
	c-1.1,1.6-5.1,5.1-5.1,5.1s-10.3,8.4-12.4,10s-1.5,4.9-1.5,4.9L18.2,32z M26.9,18.7c2.6-1.8,5.6-1.9,6.7-0.3c1.2,1.7,0,4.4-2.6,6.2
	c-2.6,1.8-5.6,1.9-6.7,0.3C23.1,23.3,24.3,20.5,26.9,18.7z M5.5,38.6H7c0.1,0,2.9-0.1,4.3-2.3c0.3-0.5,0.2-1.3-0.3-1.6
	S9.7,34.5,9.4,35C8.7,36.1,7,36.2,7,36.2H5.5c-0.6,0-1.2,0.5-1.2,1.2C4.4,38.1,4.9,38.6,5.5,38.6z M18.1,47v-6.9H4.5V47H4.3
	c-0.8,0-1.5,0.7-1.5,1.5S3.5,50,4.3,50h42.9v-3H18.1z M16.6,46.4H6v-4.8h1.9l0.4,2.5l0.5-2.4h2l0.4,2.5l0.5-2.4h2l0.4,2.5l0.5-2.5
	h1.9L16.6,46.4z"/>
</svg>
