<?xml version="1.0" encoding="utf-8"?>
<!-- Generator: Adobe Illustrator 23.0.2, SVG Export Plug-In . SVG Version: 6.00 Build 0)  -->
<svg version="1.1" id="Layer_1" xmlns="http://www.w3.org/2000/svg" xmlns:xlink="http://www.w3.org/1999/xlink" x="0px" y="0px"
	 viewBox="0 0 50 50" style="enable-background:new 0 0 50 50;" xml:space="preserve">
<style type="text/css">
	.st0{fill:#231F20;}
</style>
<path class="st0" d="M21.7,31c4.1-0.4,7.3-3.9,7.3-8.1c0-3.6-2.4-6.7-5.7-7.8c0.8-1,1.3-2.3,1.3-3.7c0-3.5-3-6.3-6.6-6.3
	c-2,0-3.9,0.9-5.1,2.2c-0.1,0-0.2,0-0.3,0c-4,0-7.3,3.3-7.3,7.3c0,1.4,0.4,2.6,1,3.7c-2.2,1.5-3.7,4-3.7,6.8c0,4.5,3.6,8.1,8.1,8.1
	h0.1l3.2,6.1l-0.7,10.4H19l-1-12.9l2.3-3.9L21.7,31z M12.5,33.2c0.9-0.2,1.7-0.6,2.5-1l-0.2,4.3L12.5,33.2z M17.8,30.5
	c0.7,0.3,1.5,0.5,2.3,0.5l-2,2.2L17.8,30.5z M46.4,31.8H28.9c-0.7,0-1.3,0.5-1.5,1.2l-0.9,3.7c-0.2,0.7,0.3,1.2,0.9,1.2H29l-0.7,3
	c0,0.1,0,0.2,0,0.2h-4.5c-0.4,0-0.7,0.3-0.7,0.7V43c0,0.4,0.3,0.7,0.7,0.7H24c-0.5,0.8-0.8,1.9-0.8,3.2v2.4c0,0.4,0.3,0.7,0.7,0.7
	c0.4,0,0.7-0.3,0.7-0.7v-2.4c0-1.8,0.8-3.1,1.5-3.1h1c0.7,0,1.5,1.3,1.5,3.1v2.4c0,0.4,0.3,0.7,0.7,0.7c0.4,0,0.7-0.3,0.7-0.7v-2.4
	c0-1.2-0.3-2.4-0.8-3.2h9.4c-0.5,0.8-0.8,1.9-0.8,3.2v2.4c0,0.4,0.3,0.7,0.7,0.7s0.7-0.3,0.7-0.7v-2.4c0-1.8,0.8-3.1,1.5-3.1h1
	c0.7,0,1.5,1.3,1.5,3.1v2.4c0,0.4,0.3,0.7,0.7,0.7s0.7-0.3,0.7-0.7v-2.4c0-1.3-0.3-2.4-0.8-3.2c0.4,0,0.7-0.3,0.7-0.7v-1.1
	c0-0.4-0.3-0.7-0.7-0.7h-0.1l0.7-3c0-0.1,0-0.2,0-0.3H45c0.7,0,1.4-0.5,1.5-1.2l0.9-3.7C47.5,32.3,47.1,31.8,46.4,31.8z M41.8,40.9
	c0,0.1,0,0.2,0,0.2h-12l0.7-3c0-0.1,0-0.2,0-0.3h12.1L41.8,40.9z"/>
</svg>
