<?xml version="1.0" encoding="utf-8"?>
<!-- Generator: Adobe Illustrator 23.0.2, SVG Export Plug-In . SVG Version: 6.00 Build 0)  -->
<svg version="1.1" id="Layer_1" xmlns="http://www.w3.org/2000/svg" xmlns:xlink="http://www.w3.org/1999/xlink" x="0px" y="0px"
	 viewBox="0 0 50 50" style="enable-background:new 0 0 50 50;" xml:space="preserve">
<path d="M26.1,44v-9.7c0.3-1.6,0.9-2.9,5-6c3.9-2.9,3.8-6.9,3.8-6.9c0-9.4-2.4-14.2-2.4-14.2H16.7c0,0-2.4,4.8-2.4,14.2
	c0,0-0.1,4,3.8,6.9c4.1,3.1,4.8,4.3,5,6V44c-0.2,0.5-1.9,4.4-7.4,4.4V50h17.6v-1.6C27.9,48.4,26.2,44.5,26.1,44z M17,21.4
	c0-5.7,0.9-9.6,1.6-11.6h12.2c0.4,1.3,0.9,3.2,1.2,5.9H21c0,0-2.3,4.6-0.8,10.9l0,0c-0.2-0.1-0.4-0.3-0.6-0.4
	C17.1,24.1,17,21.5,17,21.4z"/>
</svg>
