<svg id="Layer_1" data-name="Layer 1" xmlns="http://www.w3.org/2000/svg" viewBox="0 0 16.99 16.99"><defs><style>.cls-1{fill:#231f20;fill-rule:evenodd;}</style></defs><title>zoom-in</title><path id="fullsize-icon" class="cls-1" d="M16.78,15.77,12.7,11.69a7.2,7.2,0,1,0-1,1l4.09,4.08a.7.7,0,0,0,1,0,.71.71,0,0,0,0-1ZM7.16,12.88A5.73,5.73,0,1,1,12.9,7.16h0a5.74,5.74,0,0,1-5.74,5.72Zm3-6a.31.31,0,0,0-.3-.29H7.75V4.49a.29.29,0,0,0-.29-.29h-.6a.29.29,0,0,0-.29.29V6.56H4.5a.29.29,0,0,0-.29.29v.59a.29.29,0,0,0,.29.3H6.57V9.81a.29.29,0,0,0,.29.29h.59a.3.3,0,0,0,.3-.29V7.74H9.81a.29.29,0,0,0,.3-.3V6.85Z"/></svg>